<?xml version="1.0" encoding="UTF-8" standalone="no"?>
<!-- Created with Inkscape (http://www.inkscape.org/) -->

<svg
   xmlns:dc="http://purl.org/dc/elements/1.1/"
   xmlns:cc="http://creativecommons.org/ns#"
   xmlns:rdf="http://www.w3.org/1999/02/22-rdf-syntax-ns#"
   xmlns:svg="http://www.w3.org/2000/svg"
   xmlns="http://www.w3.org/2000/svg"
   xmlns:sodipodi="http://sodipodi.sourceforge.net/DTD/sodipodi-0.dtd"
   xmlns:inkscape="http://www.inkscape.org/namespaces/inkscape"
   width="310.37469"
   height="233.42979"
   viewBox="0 0 310.37469 233.4298"
   id="svg6502"
   version="1.1"
   inkscape:version="0.91 r13725"
   sodipodi:docname="meeting2_icon.svg">
  <defs
     id="defs6504" />
  <sodipodi:namedview
     id="base"
     pagecolor="#ffffff"
     bordercolor="#666666"
     borderopacity="1.0"
     inkscape:pageopacity="0.0"
     inkscape:pageshadow="2"
     inkscape:zoom="0.35"
     inkscape:cx="-351.81859"
     inkscape:cy="160.43267"
     inkscape:document-units="px"
     inkscape:current-layer="layer1"
     showgrid="false"
     fit-margin-top="20"
     fit-margin-left="20"
     fit-margin-right="20"
     fit-margin-bottom="20"
     units="px"
     inkscape:window-width="1366"
     inkscape:window-height="705"
     inkscape:window-x="-8"
     inkscape:window-y="-8"
     inkscape:window-maximized="1" />
  <metadata
     id="metadata6507">
    <rdf:RDF>
      <cc:Work
         rdf:about="">
        <dc:format>image/svg+xml</dc:format>
        <dc:type
           rdf:resource="http://purl.org/dc/dcmitype/StillImage" />
        <dc:title></dc:title>
      </cc:Work>
    </rdf:RDF>
  </metadata>
  <g
     inkscape:label="Layer 1"
     inkscape:groupmode="layer"
     id="layer1"
     transform="translate(-338.24716,-459.36509)">
    <path
       style="fill:#dc0000"
       d="m 392.97666,662.52099 c 0,-12.0594 -0.065,-11.6307 2.0747,-13.795 0.6696,-0.6779 1.3274,-1.2659 1.4615,-1.3067 0.1335,-0.041 0.4682,-0.9726 0.7426,-2.0698 2.4821,-9.928 11.7073,-15.0546 27.1051,-15.063 4.7248,0 9.6111,0.6779 13.1113,1.8258 7.1727,2.3522 11.9284,7.1856 13.2859,13.5033 0.3147,1.4641 0.4217,1.6829 0.9964,2.0381 0.9672,0.5977 2.0615,1.9017 2.6509,3.1587 l 0.5257,1.1214 0.056,10.4302 0.056,10.4302 -3.4487,-0.055 -3.4487,-0.055 -0.052,-9.405 c -0.046,-8.4025 -0.086,-9.4337 -0.3764,-9.6742 -0.2684,-0.2228 -4.3526,-0.2703 -23.576,-0.274 -15.6737,0 -23.3871,0.063 -23.6671,0.2026 -0.41,0.2043 -0.4166,0.3308 -0.5151,9.6788 l -0.099,9.4718 -3.4418,0.055 -3.442,0.055 0,-10.2732 z m 69.37,10.1308 c -0.2311,-0.2311 -0.1525,-18.8403 0.084,-20.1245 0.3707,-2.0048 1.354,-3.5448 3.1298,-4.901 0.5519,-0.4216 0.7126,-0.7465 1.0339,-2.0916 1.5518,-6.4976 6.1577,-11.1104 13.4012,-13.4221 4.4636,-1.4244 8.7176,-1.9296 14.9303,-1.773 5.8808,0.1472 9.4101,0.7655 13.5117,2.3642 6.2593,2.4396 10.4364,7.0593 11.7357,12.9792 0.3071,1.3989 0.4014,1.5739 1.0933,2.032 0.9711,0.6426 2.0544,1.9671 2.64,3.2278 l 0.4604,0.991 0,10.3756 0,10.3755 -3.4418,0.055 -3.442,0.055 0,-9.4778 0,-9.4778 -0.4488,-0.2716 c -0.3732,-0.2259 -4.3769,-0.2645 -23.6943,-0.2282 -12.785,0.024 -23.3431,0.055 -23.4626,0.067 -0.6127,0.068 -0.6807,1.0869 -0.6807,10.2094 l 0,9.169 -3.3587,0 c -1.8472,0 -3.4185,-0.059 -3.4918,-0.1335 z m 69.4365,0 c -0.074,-0.074 -0.1336,-4.4989 -0.1336,-9.8349 0,-10.7998 0.041,-11.2117 1.2973,-13.1132 0.3754,-0.568 1.013,-1.2864 1.4167,-1.5961 1.2391,-0.951 1.4761,-1.2412 1.4779,-1.8104 0,-0.3019 0.3016,-1.4186 0.6681,-2.4815 3.1106,-9.0227 12.0086,-13.531 26.7059,-13.531 9.8854,0 17.671,2.5736 22.0848,7.2998 2.2121,2.3689 3.6516,5.1116 4.296,8.1859 0.2267,1.0806 0.3989,1.4396 0.8472,1.7648 1.3395,0.9717 1.9059,1.6357 2.6102,3.0608 l 0.7495,1.516 0,10.2865 0,10.2864 -3.4419,0.055 -3.4419,0.055 0,-9.3445 c 0,-7.7378 -0.047,-9.4109 -0.2821,-9.7303 -0.276,-0.3775 -0.7853,-0.3859 -23.7908,-0.3905 -22.2068,0 -23.5282,0.018 -23.861,0.3476 -0.3268,0.3268 -0.3525,1.0331 -0.3525,9.7303 l 0,9.3781 -3.3587,0 c -1.8472,0 -3.4186,-0.059 -3.4918,-0.1337 z m -173.4817,-27.2525 0.056,-10.4256 0.528,-1.0973 c 0.5742,-1.194 1.4562,-2.239 2.593,-3.073 0.5861,-0.4299 0.7527,-0.7058 0.8606,-1.4254 0.074,-0.4909 0.3465,-1.5178 0.6064,-2.282 2.5398,-7.4675 9.2039,-11.9285 19.8359,-13.2783 2.1621,-0.2746 3.6552,-0.3188 7.7818,-0.2297 5.0655,0.1091 7.031,0.3208 9.7115,1.0458 l 1.2132,0.3281 0.439,1.492 c 0.8881,3.0189 2.8039,6.4989 4.784,8.6911 0.6085,0.6735 0.6381,0.759 0.3035,0.8766 -4.7221,1.6619 -9.034,4.6713 -11.8918,8.2994 l -1.2153,1.5429 -14.1407,0.053 c -12.313,0.046 -14.1653,0.093 -14.3302,0.3531 -0.1112,0.1776 -0.1901,4.2099 -0.192,9.9265 l 0,9.6274 -3.4987,0 -3.4985,0 0.056,-10.4254 z m 263.3368,0.8479 c 0,-9.3114 -0.017,-9.5885 -0.399,-9.9764 -0.3915,-0.3915 -0.665,-0.3992 -14.421,-0.3992 l -14.0218,0 -0.8717,-1.1971 c -1.2346,-1.6954 -3.8134,-4.1051 -5.8228,-5.4408 -1.459,-0.9698 -3.8297,-2.192 -6.0177,-3.1026 l -0.5506,-0.2292 1.0106,-1.2503 c 1.8597,-2.3011 3.7269,-5.9878 4.3935,-8.6749 l 0.2577,-1.0391 1.7918,-0.4206 c 2.9059,-0.6823 6.1439,-0.9939 10.4072,-1.0014 5.8323,-0.017 9.6274,0.5135 13.8029,1.9047 3.4603,1.1531 5.8042,2.5011 8.077,4.6451 2.5701,2.4245 3.9934,4.8791 4.883,8.4213 0.3584,1.4269 0.5877,1.9697 0.9243,2.1869 0.8516,0.5497 2.2452,2.1177 2.692,3.0289 0.2468,0.5033 0.5386,1.389 0.6485,1.9683 0.1165,0.6112 0.1997,5.0635 0.1997,10.6036 l 0,9.5503 -3.4918,0 -3.4918,0 0,-9.5775 z m -164.7732,-4.4319 c -0.6242,-1.9733 -2.2344,-5.1856 -3.3292,-6.642 -2.9224,-3.8877 -7.0998,-6.9755 -12.1263,-8.9633 l -0.7512,-0.2971 1.2774,-1.5823 c 0.7027,-0.8703 1.616,-2.1877 2.0298,-2.9275 0.828,-1.4807 1.9726,-4.3761 2.1917,-5.5454 0.1644,-0.8763 0.3353,-0.9857 2.189,-1.4024 3.95,-0.8882 11.5681,-1.2372 16.0623,-0.7359 2.0303,0.2264 6.0141,0.9663 6.3263,1.1749 0.1047,0.071 0.4384,0.9345 0.7428,1.9221 0.8859,2.8745 2.2152,5.3687 4.1457,7.779 0.526,0.6568 0.9564,1.2409 0.9564,1.298 0,0.056 -0.561,0.3171 -1.2469,0.5782 -1.6076,0.6121 -4.7291,2.3494 -6.3568,3.5381 -3.8451,2.808 -7.01,7.1977 -8.4701,11.7481 l -0.4483,1.3967 -1.3662,0.058 -1.3663,0.058 -0.4601,-1.4541 z m 69.4132,0 c -2.1509,-6.7316 -7.7182,-12.5077 -14.6809,-15.2311 -0.7681,-0.3004 -1.4306,-0.573 -1.4718,-0.6059 -0.041,-0.033 0.2804,-0.4896 0.7154,-1.0152 2.0089,-2.4294 3.5011,-5.1501 4.3557,-7.9426 0.3018,-0.9859 0.6181,-1.8706 0.703,-1.9658 0.086,-0.096 0.8435,-0.3374 1.6859,-0.5381 5.7297,-1.3651 15.6294,-1.3502 21.129,0.033 l 1.6151,0.4057 0.4558,1.6247 c 0.6793,2.4217 2.0415,5.1142 3.7123,7.3379 l 1.4886,1.9817 -0.7331,0.3317 c -4.5922,2.0784 -6.6237,3.3239 -8.8802,5.4439 -3.3015,3.1018 -5.3133,6.3494 -6.715,10.8398 l -0.2336,0.7483 -1.342,0 -1.342,0 -0.4622,-1.4467 z m -105.5668,-16.0026 c -1.5699,-0.3558 -4.1229,-1.3892 -5.3617,-2.1703 -1.6022,-1.0102 -4.0102,-3.5165 -5.0824,-5.2904 -4.3238,-7.1521 -2.416,-16.4675 4.3584,-21.281 1.6389,-1.1644 2.9559,-1.7975 5.0266,-2.4157 2.3527,-0.7027 5.9104,-0.7438 8.3419,-0.096 8.6629,2.3066 13.7035,10.9503 11.4723,19.6741 -1.4437,5.6446 -6.3341,10.3003 -12.0708,11.4913 -2.0555,0.4266 -5.0188,0.4659 -6.6843,0.089 z m 69.6509,0.072 c -4.3741,-0.8581 -8.532,-3.7757 -10.7503,-7.5436 -1.3843,-2.351 -2.0709,-4.6786 -2.1875,-7.4153 -0.2027,-4.7568 1.2274,-8.6243 4.412,-11.9306 7.738,-8.0342 21.1117,-5.9343 25.9537,4.0752 1.8063,3.7339 2.1121,7.8269 0.8831,11.8132 -1.6898,5.4801 -6.38,9.7472 -11.9824,10.9013 -1.6398,0.338 -4.8571,0.3886 -6.3286,0.099 z m 69.1223,-0.079 c -5.9827,-1.3192 -10.7977,-5.9428 -12.263,-11.7757 -0.5506,-2.1918 -0.555,-5.6334 -0.017,-7.7997 0.4932,-1.9603 1.9007,-4.8365 3.0351,-6.2026 2.3646,-2.8472 5.7463,-4.9226 9.238,-5.6692 1.8268,-0.3907 5.4873,-0.2984 7.3086,0.1842 4.5469,1.205 8.5894,4.5649 10.4985,8.726 1.0178,2.218 1.4637,4.2544 1.4679,6.7019 0,4.6297 -1.5383,8.3587 -4.7706,11.5066 -2.3777,2.3157 -4.0513,3.2621 -7.3213,4.1409 -2.0692,0.5559 -5.1484,0.6364 -7.1831,0.1876 z m -173.39,-17.5942 c -7.3427,-1.5731 -12.4903,-8.3575 -12.0048,-15.8219 0.1387,-2.1183 0.4109,-3.2773 1.2238,-5.1965 2.7187,-6.4177 9.8457,-10.2149 16.6977,-8.8967 5.2539,1.011 9.4946,4.4931 11.4364,9.3911 2.6568,6.7004 0.1854,14.45 -5.8537,18.3568 -3.3644,2.1764 -7.6696,2.9876 -11.4994,2.1672 z m 70.4324,0.2018 c -5.0352,-0.8053 -9.2835,-3.895 -11.4816,-8.3504 -1.2044,-2.4416 -1.4878,-3.7526 -1.4878,-6.8839 0,-2.2656 0.074,-2.9312 0.4672,-4.19 2.1376,-6.8459 8.4301,-11.304 15.3954,-10.907 2.4437,0.1387 3.8479,0.5166 6.1854,1.6622 1.6242,0.7961 2.1685,1.2029 3.8025,2.8423 1.6344,1.6397 2.0383,2.1837 2.8271,3.8085 1.572,3.2376 2.0284,6.1425 1.4696,9.3517 -1.0452,6.0009 -5.3429,10.7254 -11.192,12.3029 -1.1955,0.3225 -4.8538,0.5448 -5.9858,0.3637 z m 68.4388,-0.1885 c -4.4944,-1.003 -8.3198,-3.9112 -10.3773,-7.8896 -3.9296,-7.5974 -0.8349,-17.0488 6.7858,-20.725 2.0744,-1.0009 3.5554,-1.3854 5.8936,-1.5307 4.3526,-0.2701 8.2586,1.2348 11.4827,4.4248 3.3937,3.3576 4.9835,7.7744 4.4591,12.3887 -0.4198,3.6944 -1.8284,6.5573 -4.5673,9.2822 -1.4269,1.4194 -2.0541,1.8786 -3.6114,2.6425 -1.0364,0.5086 -2.4232,1.067 -3.0817,1.2409 -1.7561,0.4638 -5.2742,0.5476 -6.9835,0.1662 z m 69.5363,0.029 c -3.2151,-0.6913 -5.3571,-1.8611 -7.682,-4.1959 -2.0359,-2.0447 -2.8913,-3.3698 -3.7041,-5.7392 -1.4803,-4.3147 -1.032,-8.9124 1.2503,-12.8221 1.1629,-1.9921 3.8368,-4.5596 5.8569,-5.6238 2.5149,-1.325 4.3115,-1.7558 7.2719,-1.7444 2.894,0.017 4.2729,0.3168 6.6842,1.4807 5.1515,2.4866 8.4802,7.8295 8.4802,13.6119 0,2.6078 -0.4236,4.4202 -1.5988,6.8414 -1.9102,3.9358 -5.396,6.8054 -9.682,7.9706 -1.6682,0.4537 -5.2571,0.5687 -6.8766,0.2208 z m -171.6957,-21.3718 c -0.2196,-0.052 -0.893,-0.1884 -1.4965,-0.3057 -1.4571,-0.2832 -4.4106,-1.734 -5.8347,-2.866 -2.1674,-1.7227 -4.1181,-4.797 -4.8803,-7.6913 -0.4101,-1.5571 -0.4537,-5.4351 -0.075,-6.7841 2.021,-7.2241 7.9508,-11.5767 15.1295,-11.106 7.8599,0.5156 13.8079,7.3108 13.3693,15.2729 -0.3417,6.2003 -4.6501,11.4252 -10.8238,13.1265 -1.0192,0.2809 -4.6674,0.5204 -5.3874,0.3537 z m 68.1637,-0.099 c -1.5462,-0.2766 -3.6745,-1.0548 -4.977,-1.82 -1.7189,-1.0096 -4.3958,-3.7838 -5.2604,-5.4512 -1.2067,-2.328 -1.5849,-3.7284 -1.6968,-6.2852 -0.1284,-2.9477 0.2189,-4.6592 1.4595,-7.1831 1.6887,-3.435 4.9916,-6.1988 8.8597,-7.4133 1.9432,-0.6101 5.7545,-0.6462 7.7762,-0.074 4.079,1.1553 7.3257,3.8405 9.1733,7.5863 1.0093,2.0462 1.4389,3.91 1.4482,6.2852 0.018,4.0776 -1.3598,7.4556 -4.1903,10.2862 -1.8253,1.8251 -3.5894,2.8811 -6.1318,3.6699 -1.6115,0.4999 -4.7953,0.6964 -6.4606,0.3985 z m 69.113,0.083 c -1.1099,-0.178 -3.3851,-0.911 -4.3897,-1.4146 -3.7252,-1.8669 -6.5075,-5.3188 -7.6017,-9.431 -0.517,-1.9435 -0.4745,-5.2517 0.095,-7.2739 2.337,-8.3181 11.1375,-12.7717 19.1385,-9.6852 4.4087,1.7005 7.6682,5.4449 8.8472,10.1626 0.5752,2.3021 0.4574,5.3892 -0.2936,7.6944 -1.5233,4.6753 -5.3373,8.2992 -10.0854,9.5826 -1.1529,0.3117 -4.6476,0.5352 -5.709,0.3651 z m -94.8766,-14.8694 c -0.4939,-0.2221 -1.8216,-0.6422 -2.9505,-0.9335 l -2.0526,-0.5299 -0.043,-8.3803 -0.043,-8.3801 -2.993,-0.056 c -2.9611,-0.056 -2.9984,-0.062 -3.5191,-0.5986 -0.4533,-0.4672 -0.7632,-1.5146 -2.2446,-7.5846 -0.9452,-3.8733 -1.7186,-7.3595 -1.7186,-7.747 0,-0.5128 0.1593,-0.8636 0.5833,-1.2879 l 0.5831,-0.5833 3.7566,0 c 2.0661,0 21.1699,0 42.453,0 42.7358,0 39.2902,-0.1014 39.9395,1.2604 0.2928,0.614 0.2347,0.9232 -1.4972,7.9712 -0.9908,4.0326 -1.8968,7.5099 -2.0129,7.727 -0.3958,0.7393 -0.9526,0.8557 -3.9282,0.8198 l -2.8584,-0.034 0,8.674 0,8.6741 -1.1475,0.1163 c -0.631,0.064 -2.0002,0.2514 -3.0428,0.4168 -1.0425,0.1661 -1.9628,0.2991 -2.0452,0.2975 -0.083,0 -0.149,-5.2866 -0.149,-11.7438 l 0,-11.7405 -26.8866,0.019 -26.8867,0.019 -0.052,12.0218 c -0.029,6.6117 -0.1181,12.0154 -0.1994,12.0074 -0.083,0 -0.5524,-0.1957 -1.0461,-0.4178 z m 2.3944,-43.7508 c 0,-3.6574 1.8808,-7.8323 4.8666,-10.8021 2.743,-2.7285 6.8344,-4.9242 11.1648,-5.992 l 1.3658,-0.3368 4.1712,4.1675 4.1711,4.1676 4.1682,-4.1649 4.1683,-4.1647 0.7225,0.1353 c 1.1498,0.2158 4.1291,1.2415 5.7313,1.9734 2.4015,1.0969 4.353,2.4697 6.26,4.4034 2.8278,2.8673 4.3211,5.982 4.6468,9.6915 0.087,1.002 0.1181,1.8635 0.068,1.914 -0.052,0.052 -11.66,0.093 -25.7982,0.093 l -25.7061,0 0,-1.0843 z m 23.2453,-21.5445 c -4.2645,-0.8311 -7.8655,-3.5386 -9.7461,-7.3278 -1.0873,-2.1908 -1.5191,-3.9975 -1.5239,-6.3757 -0.017,-5.0458 2.8829,-9.8153 7.3516,-12.12 2.4325,-1.2545 3.5388,-1.5116 6.5122,-1.5127 2.3233,0 2.7606,0.056 4.1903,0.5544 2.3497,0.8173 3.6022,1.606 5.4068,3.4047 1.896,1.8898 3.0441,3.8184 3.6833,6.1875 0.3662,1.3575 0.4187,1.9795 0.3446,4.0986 -0.1403,4.0014 -1.1875,6.4053 -4.0475,9.2864 -2.4771,2.4955 -5.4245,3.7893 -9.0786,3.9856 -1.007,0.055 -2.2633,-0.019 -3.0927,-0.181 z"
       id="path5231"
       inkscape:connector-curvature="0" />
  </g>
</svg>
