<?xml version="1.0" encoding="UTF-8" standalone="no"?>
<!-- Created with Inkscape (http://www.inkscape.org/) -->

<svg
   xmlns:dc="http://purl.org/dc/elements/1.1/"
   xmlns:cc="http://creativecommons.org/ns#"
   xmlns:rdf="http://www.w3.org/1999/02/22-rdf-syntax-ns#"
   xmlns:svg="http://www.w3.org/2000/svg"
   xmlns="http://www.w3.org/2000/svg"
   xmlns:sodipodi="http://sodipodi.sourceforge.net/DTD/sodipodi-0.dtd"
   xmlns:inkscape="http://www.inkscape.org/namespaces/inkscape"
   version="1.1"
   id="svg5928"
   xml:space="preserve"
   width="880"
   height="880"
   viewBox="0 0 880 880"
   sodipodi:docname="face-mask-silhouette-colour.svg"
   inkscape:version="0.91 r13725"><metadata
     id="metadata5934"><rdf:RDF><cc:Work
         rdf:about=""><dc:format>image/svg+xml</dc:format><dc:type
           rdf:resource="http://purl.org/dc/dcmitype/StillImage" /><dc:title></dc:title><cc:license
           rdf:resource="http://creativecommons.org/publicdomain/zero/1.0/" /><dc:description>remix by j4p4n</dc:description></cc:Work><cc:License
         rdf:about="http://creativecommons.org/publicdomain/zero/1.0/"><cc:permits
           rdf:resource="http://creativecommons.org/ns#Reproduction" /><cc:permits
           rdf:resource="http://creativecommons.org/ns#Distribution" /><cc:permits
           rdf:resource="http://creativecommons.org/ns#DerivativeWorks" /></cc:License></rdf:RDF></metadata><defs
     id="defs5932"><clipPath
       clipPathUnits="userSpaceOnUse"
       id="clipPath5944"><path
         d="M 0,660 H 660 V 0 H 0 Z"
         id="path5942"
         inkscape:connector-curvature="0" /></clipPath><filter
       inkscape:collect="always"
       style="color-interpolation-filters:sRGB"
       id="filter8389"
       x="-0.16887856"
       width="1.3377571"
       y="-0.056971085"
       height="1.1139422"><feGaussianBlur
         inkscape:collect="always"
         stdDeviation="5.0364611"
         id="feGaussianBlur8391" /></filter></defs><sodipodi:namedview
     pagecolor="#ffffff"
     bordercolor="#666666"
     borderopacity="1"
     objecttolerance="10"
     gridtolerance="10"
     guidetolerance="10"
     inkscape:pageopacity="0"
     inkscape:pageshadow="2"
     inkscape:window-width="1916"
     inkscape:window-height="1035"
     id="namedview5930"
     showgrid="false"
     inkscape:zoom="0.7330722"
     inkscape:cx="444.78833"
     inkscape:cy="318.67976"
     inkscape:window-x="4"
     inkscape:window-y="1"
     inkscape:window-maximized="1"
     inkscape:current-layer="g6737" /><g
     id="g5936"
     inkscape:groupmode="layer"
     inkscape:label="face-mask-silhouette-freesvg.org"
     transform="matrix(1.3333333,0,0,-1.3333333,0,880)"><g
       id="g6737"><g
         id="g8393"><path
           d="m 490.959,167.325 c -11.049,57.505 -81.781,82.696 -126.693,45.124 -4.054,-3.388 -5.495,-8.676 -3.73,-13.657 1.767,-4.981 6.226,-8.178 11.511,-8.253 34.549,-0.49 71.952,-13.811 99.033,-35.272 4.142,-3.282 9.618,-3.624 14.134,-0.88 4.516,2.739 6.741,7.753 5.745,12.938 m -124.363,-28.429 5.18,1.183 c 12.652,2.89 25.831,-1.804 33.808,-12.041 12.651,2.889 25.83,-1.805 33.807,-12.041 l 3.265,-4.19 -4.16,9.447 c -4.881,10.284 -14.88,17.184 -26.228,18.096 l -2.581,0.208 -2.132,1.47 c -9.37,6.465 -21.479,7.441 -31.764,2.559 z M 559.14,274.813 c -11.853,-1.853 -22.343,-9.968 -26.65,-22.063 -6.262,-17.583 2.914,-36.915 20.497,-43.178 13.58,-4.835 28.201,-0.462 37.041,9.882 -8.032,-5.253 -18.335,-6.82 -28.073,-3.352 -16.531,5.888 -25.16,24.064 -19.272,40.598 2.964,8.322 9.042,14.64 16.457,18.113 m -179.758,64.022 c 3.549,-7.377 4.264,-16.114 1.301,-24.437 -5.889,-16.534 -24.065,-25.163 -40.598,-19.274 -9.736,3.468 -16.729,11.197 -19.633,20.342 0.313,-13.603 8.877,-26.235 22.456,-31.07 17.582,-6.262 36.913,2.915 43.175,20.499 4.31,12.093 1.31,25.013 -6.701,33.94 m 63.755,-95.517 7.258,-1.206 c 4.743,-0.787 9.475,1.458 11.863,5.632 l 3.987,-3.194 1.764,-2.798 c 2.331,-3.696 6.679,-5.605 10.979,-4.814 4.3,0.79 7.688,4.115 8.554,8.4 l -2.397,-1.408 c -2.194,-1.288 -4.845,-1.541 -7.243,-0.687 -2.396,0.854 -4.293,2.726 -5.178,5.11 -2.041,5.499 -7.304,9.131 -13.17,9.086 -3.696,-0.024 -7.344,0.513 -10.827,1.574 -3.371,1.381 -6.538,3.27 -9.384,5.625 -4.517,3.744 -10.893,4.256 -15.95,1.284 -2.195,-1.288 -4.845,-1.538 -7.242,-0.685 -2.397,0.853 -4.293,2.725 -5.178,5.11 l -0.968,2.606 c -2.036,-3.867 -1.514,-8.587 1.32,-11.916 2.832,-3.33 7.406,-4.6 11.552,-3.209 l 3.133,1.053 5.108,-0.047 c -0.788,-4.742 1.459,-9.474 5.631,-11.862 z m 46.705,97.958 c -1.566,-3.309 -3.131,-6.618 -4.697,-9.93 -9.096,-19.228 -10.859,-41.118 -4.957,-61.554 0.024,22.699 2.547,46.282 9.654,71.484 m -20.972,7.471 c -10.427,-24.023 -23.378,-43.892 -37.708,-61.494 17.491,12.105 29.963,30.181 35.07,50.83 0.879,3.554 1.76,7.111 2.638,10.664 m 57.457,-21.991 c 15.22,-17.663 39.069,-25.917 63.407,-20.727 2.76,0.589 5.362,-0.078 7.197,-1.842 1.835,-1.767 2.3,-4.249 2.509,-7.492 2.554,50.263 -62.525,64.816 -89.608,78.965 -0.264,-11.688 1.834,-22.281 5.738,-31.512 -4.386,2.512 -9.78,3.684 -15.606,3.81 9.159,-1.067 16.396,-8.265 17.51,-17.418 0.69,-5.667 2.19,-11.207 4.453,-16.446 4.373,-10.126 14.892,-16.162 25.843,-14.83 l 6.029,0.735 c -14.103,1.843 -25.268,12.759 -27.472,26.757 m -44.989,59.052 c -29.929,6.156 -89.556,36.021 -119.352,-4.541 2.211,2.379 4.142,4.011 6.681,4.218 2.539,0.208 4.977,-0.921 6.741,-3.121 15.576,-19.409 39.277,-28.087 62.233,-24.022 -10.555,-9.451 -26.109,-10.852 -38.202,-3.367 l 4.207,-4.381 c 7.643,-7.953 19.612,-9.926 29.401,-4.845 5.064,2.631 9.729,5.974 13.848,9.93 6.647,6.387 16.806,7.391 24.576,2.428 -4.593,3.584 -9.514,6.084 -14.501,6.913 8.861,4.684 17.182,11.565 24.368,20.788 m 45.745,40.257 -5.145,-7.468 c -1.352,-1.964 -1.014,-4.585 0.886,-6.877 1.902,-2.292 5.075,-3.908 8.329,-4.239 25.268,-2.56 35.926,-33.239 50.692,-51.048 9.797,-11.815 28.797,-18.978 44.133,-26.783 l -7.649,7.453 c -2.169,2.112 -4.489,4.138 -6.878,6.116 -6.916,8.792 -14.478,17.061 -22.626,24.738 l -3.36,3.165 c 3.829,-6.13 8.124,-11.944 12.845,-17.393 -5.896,4.824 -11.337,9.823 -15.111,15.62 -12.345,18.969 -24.336,50.325 -49.624,50.506 -1.895,0.013 -3.877,0.804 -5.209,2.079 -1.333,1.274 -0.49,5.285 -1.283,4.131 m -27.25,9.705 c 0.114,1.397 -1.767,-2.244 -3.606,-2.39 -1.838,-0.146 -3.873,0.495 -5.35,1.682 -19.71,15.846 -48.82,-0.872 -70.379,-7.765 -6.589,-2.107 -13.964,-2.54 -21.582,-2.551 7.102,1.238 14.104,3.027 20.949,5.357 l -4.607,-0.329 c -11.165,-0.797 -22.252,-2.423 -33.169,-4.864 -3.101,-0.024 -6.178,-0.128 -9.195,-0.394 l -10.638,-0.939 c 16.816,-3.648 36.067,-10.109 51.128,-7.144 22.696,4.465 50.35,21.5 71.548,7.511 2.728,-1.801 6.211,-2.556 9.132,-1.981 2.922,0.575 4.842,2.392 5.035,4.769 z m 160.695,-19.502 c -0.964,-4.765 -1.928,-9.529 -2.894,-14.293 -4.301,-21.228 -10.873,-41.817 -19.653,-61.547 -8.209,-18.448 -19.432,-36.635 -17.229,-53.643 6.152,-47.438 1.729,-94.359 -39.188,-121.097 -40.078,-26.189 -77.314,-55.55 -111.322,-87.774 -17.109,-16.213 -44.089,-21.235 -69.248,-12.89 -5.446,1.806 -10.593,4.168 -15.361,6.997 -5.484,0.824 -10.965,2.248 -16.327,4.29 -24.771,9.438 -42.5,30.381 -45.51,53.758 -5.98,46.469 -16.274,92.759 -30.772,138.387 -14.803,46.583 11.431,85.734 46.183,118.604 12.46,11.786 15.262,32.972 20.561,52.457 5.67,20.838 13.589,40.946 23.677,60.113 2.265,4.303 4.531,8.603 6.793,12.905 98.398,-8.747 188.494,-40.833 270.29,-96.267"
           style="fill:#4b5bb4;fill-opacity:1;fill-rule:evenodd;stroke:none"
           id="path6038"
           inkscape:connector-curvature="0" /><path
           inkscape:connector-curvature="0"
           id="path8177"
           d="m 309.30683,201.94414 10.22502,-15.33753 51.1251,117.58772 0,46.01259 -25.56255,48.56884 -12.78127,-35.78757 10.22502,-23.00629 -43.45634,-127.81275 z"
           style="fill:#000000;fill-rule:evenodd;stroke:#000000;stroke-width:0.75px;stroke-linecap:butt;stroke-linejoin:miter;stroke-opacity:1;opacity:0.294;filter:url(#filter8389)" /><path
           d="m 273.217,379.485 c -9.005,-7.925 -13.499,-20.404 -10.641,-32.921 4.153,-18.197 22.275,-29.579 40.472,-25.424 14.053,3.209 24.04,14.748 25.945,28.217 -3.955,-8.739 -11.806,-15.595 -21.883,-17.894 -17.11,-3.907 -34.148,6.796 -38.054,23.906 -1.966,8.612 -0.23,17.206 4.161,24.116 M 87.186,337.008 c 6.955,-4.321 12.249,-11.308 14.215,-19.92 3.908,-17.11 -6.796,-34.147 -23.906,-38.054 -10.076,-2.302 -20.124,0.466 -27.483,6.623 7.564,-11.309 21.57,-17.368 35.624,-14.159 18.197,4.154 29.579,22.274 25.425,40.47 -2.858,12.517 -12.323,21.81 -23.875,25.04 m 96.54,-175.555 3.736,3.78 c 9.122,9.229 22.763,12.345 34.988,7.99 9.12,9.227 22.76,12.343 34.985,7.988 l 5.006,-1.783 -8.581,5.737 c -9.64,6.057 -21.778,6.51 -31.843,1.187 l -2.29,-1.209 -2.589,0.097 c -11.376,0.425 -22.116,-5.253 -28.171,-14.891 z m -61.271,93.236 7.798,-12.956 c 19.483,-32.365 54.427,-46.317 84.231,-33.63 32.357,1.506 57.783,29.243 61.286,66.856 l 1.403,15.056 c -17.298,-17.766 -38.44,-29.828 -61.517,-35.098 l -11.273,-2.573 -11.274,-2.575 c -23.076,-5.27 -47.358,-3.581 -70.654,4.92 m 56.616,143.675 c 0.457,-3.633 0.912,-7.267 1.369,-10.901 2.648,-21.107 12.912,-40.521 28.86,-54.594 -12.163,19.163 -22.693,40.414 -30.229,65.495 m -21.702,-4.957 c 4.098,-25.864 3.836,-49.579 1.194,-72.124 8.261,19.602 9.079,41.547 2.304,61.711 -1.166,3.471 -2.332,6.943 -3.498,10.413 m 34.881,-102.762 6.772,2.877 c 4.423,1.881 7.209,6.317 6.985,11.12 l 5.079,-0.555 2.989,-1.412 c 3.952,-1.868 8.644,-1.145 11.848,1.828 3.205,2.975 4.278,7.599 2.709,11.68 l -1.266,-2.475 c -1.16,-2.263 -3.262,-3.899 -5.743,-4.466 -2.48,-0.567 -5.085,-0.005 -7.111,1.53 -4.675,3.544 -11.067,3.783 -15.991,0.598 -3.104,-2.007 -6.471,-3.512 -9.979,-4.486 -3.584,-0.645 -7.27,-0.749 -10.936,-0.289 -5.82,0.733 -11.475,-2.257 -14.148,-7.479 -1.159,-2.264 -3.261,-3.899 -5.742,-4.466 -2.481,-0.567 -5.084,-0.006 -7.111,1.531 l -2.215,1.679 c 0.358,-4.356 3.331,-8.055 7.508,-9.345 4.177,-1.288 8.72,0.096 11.469,3.494 l 2.08,2.57 4.334,2.704 c 1.882,-4.424 6.318,-7.212 11.119,-6.983 z m -66.206,94.747 c -3.614,-13.988 -16.15,-23.821 -30.598,-24 l 5.901,-1.437 c 10.718,-2.609 21.873,2.151 27.405,11.693 2.863,4.94 5.002,10.264 6.353,15.811 2.181,8.958 10.213,15.259 19.434,15.243 -13.192,1.268 -24.821,-3.103 -28.495,-17.31 m -105.748,25.428 6.197,4.253 c 11.245,7.714 21.294,17.041 29.827,27.679 l -3.708,-2.75 C 40.924,431.338 30.102,421.566 20.296,410.82 m 118.989,64.995 c 0.654,-1.24 -0.285,-2.843 -1.76,-3.953 -1.473,-1.109 -3.533,-1.662 -5.417,-1.452 -25.135,2.789 -52.497,-7.293 -66.986,-24.681 C 55.68,434.396 44.49,423.74 31.81,414.007 l -8.472,-6.503 c 16.147,5.95 30.499,14.654 41.615,25.239 16.752,15.953 42.714,25.518 68.109,25.095 3.268,-0.055 6.611,1.176 8.768,3.231 2.156,2.053 2.8,4.617 1.687,6.725 z m 4.029,-58.944 c -42.23,16.731 -92.207,-8.588 -97.273,-51.353 0.685,2.777 1.499,4.919 3.515,6.517 2.016,1.597 4.601,2.296 7.148,1.931 24.559,-3.522 49.013,7.054 63.267,27.362 3.944,5.618 9.435,9.968 15.806,12.522 z m 73.894,-10.663 c -9.475,11.205 -21.849,10.096 -33.181,3.227 8.299,4.016 18.269,1.827 24.123,-5.297 3.624,-4.411 7.863,-8.279 12.585,-11.486 9.125,-6.196 21.242,-5.643 29.765,1.36 l 4.692,3.856 c -13.093,-6.11 -28.654,-2.693 -37.984,8.34 m 84.233,68.806 c -13.499,5.426 -27.489,9.532 -41.777,12.265 l -4.536,0.867 c 12.303,-5.88 25.405,-9.92 38.884,-11.99 z m -135.407,6.909 -0.331,-9.063 c -0.087,-2.382 1.605,-4.412 4.439,-5.327 2.836,-0.914 6.381,-0.573 9.302,0.896 22.693,11.402 50.235,14.053 72.251,6.953 14.608,-4.712 31.317,-6.323 48.444,-4.675 l -10.453,2.182 c -15.648,3.264 -30.355,8.007 -43.78,14.118 -20.6,9.378 -49.626,6.584 -71.06,-6.84 -1.606,-1.006 -3.702,-1.401 -5.511,-1.041 -1.809,0.36 -3.352,1.395 -3.301,2.797 m 21.954,-54.851 8.102,0.549 c 6.848,0.465 13.684,-1.071 19.674,-4.421 21.655,-12.108 48.277,-11.022 68.875,2.81 2.134,1.434 4.767,1.927 7.278,1.363 2.508,-0.564 4.171,-2.142 5.993,-4.346 -23.126,36.328 -79.138,37.446 -109.922,4.045 m 94.839,126.186 c 1.744,-4.538 3.487,-9.075 5.231,-13.613 7.767,-20.219 13.274,-41.118 16.457,-62.477 2.977,-19.972 3.271,-41.342 14.26,-54.507 30.653,-36.723 52.111,-78.684 31.941,-123.207 -19.757,-43.61 -35.413,-88.373 -46.807,-133.815 -5.733,-22.864 -25.8,-41.581 -51.505,-48.048 -5.566,-1.4 -11.177,-2.167 -16.718,-2.341 -5.068,-2.251 -10.457,-3.991 -16.078,-5.146 -25.965,-5.334 -52.168,2.82 -67.255,20.931 -29.989,35.993 -63.522,69.524 -100.249,100.236 -37.493,31.357 -36.377,78.472 -24.701,124.86 4.187,16.632 -4.823,36.01 -10.811,55.295 -6.402,20.624 -10.513,41.841 -12.291,63.428 -0.399,4.845 -0.798,9.69 -1.197,14.534 87.714,45.439 180.955,66.733 279.723,63.87"
           style="fill:#cf204e;fill-opacity:1;fill-rule:evenodd;stroke:none"
           id="path6042"
           inkscape:connector-curvature="0" /></g></g></g></svg>