<?xml version="1.0" encoding="UTF-8" standalone="no"?>
<svg xmlns:dc="http://purl.org/dc/elements/1.1/" xmlns:cc="http://creativecommons.org/ns#" xmlns:rdf="http://www.w3.org/1999/02/22-rdf-syntax-ns#" xmlns:svg="http://www.w3.org/2000/svg" xmlns="http://www.w3.org/2000/svg" xmlns:sodipodi="http://sodipodi.sourceforge.net/DTD/sodipodi-0.dtd" xmlns:inkscape="http://www.inkscape.org/namespaces/inkscape" version="1.1" x="0" y="0" width="1994" height="903" viewBox="0 0 1994 903" id="svg9857" inkscape:version="0.91 r13725" sodipodi:docname="diversityofstudents.svg">
  <metadata id="metadata10112">
    <rdf:RDF>
      <cc:Work rdf:about="">
        <dc:format>image/svg+xml</dc:format>
        <dc:type rdf:resource="http://purl.org/dc/dcmitype/StillImage"/>
        <dc:title/>
        <dc:creator>
          <cc:Agent>
            <dc:title>j4p4n</dc:title>
          </cc:Agent>
        </dc:creator>
        <dc:description>just a remix</dc:description>
        <cc:license rdf:resource="http://creativecommons.org/publicdomain/zero/1.0/"/>
      </cc:Work>
      <cc:License rdf:about="http://creativecommons.org/publicdomain/zero/1.0/">
        <cc:permits rdf:resource="http://creativecommons.org/ns#Reproduction"/>
        <cc:permits rdf:resource="http://creativecommons.org/ns#Distribution"/>
        <cc:permits rdf:resource="http://creativecommons.org/ns#DerivativeWorks"/>
      </cc:License>
    </rdf:RDF>
  </metadata>
  <sodipodi:namedview pagecolor="#ffffff" bordercolor="#666666" borderopacity="1" objecttolerance="10" gridtolerance="10" guidetolerance="10" inkscape:pageopacity="0" inkscape:pageshadow="2" inkscape:window-width="1916" inkscape:window-height="1035" id="namedview10110" showgrid="false" inkscape:zoom="0.47745072" inkscape:cx="933.37255" inkscape:cy="603.94989" inkscape:window-x="4" inkscape:window-y="1" inkscape:window-maximized="1" inkscape:current-layer="g10774"/>
  <defs id="defs9859">
    <clipPath id="Clip_1">
      <path d="m 0.06,0.544 1993.5,0 0,897.456 -1993.5,0 z" id="path9862" inkscape:connector-curvature="0"/>
    </clipPath>
    <clipPath id="Clip_2">
      <path d="m 0.06,0.544 1993.5,0 0,897.456 -1993.5,0 z" id="path9865" inkscape:connector-curvature="0"/>
    </clipPath>
  </defs>
  <g id="Layer_1" transform="translate(0,5)">
    <g id="g10654">
      <g id="g10774">
        <g id="g10891">
          <g id="g9868" clip-path="url(#Clip_1)">
            <path inkscape:connector-curvature="0" style="fill:#392508;fill-opacity:1" id="path9870" d="m 379.439,621.14 c -9.915,25.326 -19.834,50.652 -29.853,75.937 -0.667,1.685 -0.387,4.567 -3.91,4.012 -3.096,-0.488 -2.839,-2.712 -3.23,-4.769 -3.286,-17.295 -6.276,-34.651 -10.433,-51.77 -0.404,-1.665 -0.459,-3.132 0.829,-4.619 4.743,-5.475 5.838,-12.153 5.841,-19.095 0.001,-1.906 -0.238,-3.319 2.348,-4.008 16.96,-4.519 32.79,-11.607 48.195,-21.043 -3.26,8.452 -6.484,16.919 -9.787,25.355 z M 1869.9,395.559 c -7.13,-2.576 -5.93,-6.655 -4.03,-11.654 0.29,-0.764 0.38,-1.629 0.43,-2.456 0.61,-8.763 -5.71,-14.731 -14.36,-13.454 -2.35,0.346 -4.63,1.119 -7.1,1.735 0.44,-6.78 -0.54,-12.715 -6.3,-16.7 -6.2,-4.283 -11.94,-1.317 -17.84,1.921 -0.79,-27.521 -7.47,-52.859 -20.55,-76.409 -20.14,-36.295 -50.61,-61.353 -87.53,-78.916 -39.48,-18.78 -81.15,-26.093 -124.74,-21.662 -24.92,2.534 -48.99,9.102 -73.04,15.747 -23.85,6.591 -47.28,14.797 -71.78,18.932 -8.03,1.356 -16.1,2.597 -24.05,4.316 -5.43,1.172 -7.52,7.286 -3.49,10.617 8.22,6.798 13.71,15.836 20.69,23.63 1.73,1.926 2.25,3.007 -0.15,4.974 -15.44,12.647 -29.86,26.574 -46.9,37.222 -4.96,3.102 -4.85,8.703 0.22,11.666 12.92,7.545 26.64,12.981 41.72,13.964 4.46,0.291 5.76,1.681 5.62,6.168 -0.53,16.288 -2.18,32.58 -0.12,48.889 1.06,8.378 3.03,16.667 2.01,25.27 -0.33,2.855 -0.77,3.87 -3.93,3.982 -10.87,0.387 -18.01,6.193 -21.09,16.58 -2.07,6.969 -2.55,14.095 -1.51,21.26 2.7,18.771 13.05,27.861 31.93,27.962 2.95,0.016 4.32,0.808 5.3,3.703 4.74,13.936 11.48,26.88 20.23,38.732 17.82,24.129 41.6,39.905 69.84,49.186 3.83,1.259 3.91,2.483 2.16,5.577 -8.29,14.625 -20.04,25.507 -34.81,33.406 -3.76,2.013 -4.9,0.946 -6.27,-2.615 -8.4,-21.855 -17.04,-43.621 -25.59,-65.424 -2.97,-7.589 -3.25,-7.817 -11.22,-7.817 -48.83,-0.004 -97.66,-0.002 -146.48,-0.002 -1.17,0 -2.34,-0.087 -3.5,0.017 -2.3,0.209 -2.67,-0.634 -2.34,-2.886 3.32,-22.916 -0.63,-45.099 -7.28,-66.918 -8.05,-26.425 -20.32,-50.887 -35.55,-73.857 -2.24,-3.381 -1.52,-4.376 1.68,-5.955 8.23,-4.058 15.77,-9.249 22.88,-15.059 20.12,-16.447 33.83,-37.357 42.49,-61.666 1.21,-3.399 2.75,-4.769 6.33,-4.395 2.79,0.291 5.62,0.071 8.42,-0.623 14.07,-3.486 23.37,-13.839 22.66,-30.563 -0.54,-12.957 3.31,-23.758 7.47,-35.4 15.08,-42.135 9.54,-82.971 -10.98,-121.941 -20.02,-38.034 -51.69,-63.817 -90.09,-81.651 -44.19,-20.528 -90.55,-27.558 -138.64,-18.674 -37.22,6.878 -69.82,24.205 -99.24,47.697 -2.16,1.719 -4.35,2.771 -7.1,3.245 -14.68,2.534 -28.68,7.185 -41.808,14.273 -13.701,7.399 -25.569,16.907 -33.24,30.791 -9.12,16.508 -4.5,33.267 11.764,42.883 3.545,2.095 7.399,3.671 11.101,5.481 -14.94,23.802 -14.388,64.328 8.458,82.204 -8.018,6.146 -10.162,14.954 -10.685,24.315 -1.161,20.753 8.557,39.427 33.25,37.964 3.36,-0.199 3.64,1.933 4.41,4.09 12.61,35.01 34.84,61.732 68.29,78.555 3.58,1.799 3.55,2.888 1.78,6.027 -15.02,26.721 -28.53,54.103 -35.12,84.341 -0.48,2.211 -1.29,2.867 -3.73,2.455 -10.17,-1.72 -20.38,-3.247 -30.6,-4.634 -5.89,-0.799 -8.01,0.738 -8.99,6.537 -1.64,9.676 -3.13,19.383 -4.48,29.104 -0.75,5.334 1.14,7.684 6.52,8.564 8.21,1.341 16.44,2.539 24.66,3.846 1.22,0.193 3.4,-0.275 3.31,1.334 -0.18,3.272 -0.63,6.708 -1.9,9.674 -0.8,1.86 -3.63,0.786 -5.52,0.787 -63.495,0.046 -126.986,0.038 -190.477,0.038 -1.615,0 -3.231,0 -5.801,0 5.376,-7.774 9.062,-15.185 11.062,-23.349 4.705,-19.215 1.286,-37.712 -5.408,-55.774 -8.464,-22.831 -21.437,-43.109 -36.396,-62.16 -2.063,-2.628 -1.999,-3.662 1.104,-5.135 4.643,-2.203 9.33,-4.559 13.41,-7.63 3.511,-2.642 5.874,-2.075 8.981,0.347 5.811,4.53 12.224,8.074 19.508,9.674 29.618,6.507 66.021,-8.337 82.562,-33.769 10.688,-16.431 14.53,-34.976 14.999,-54.133 0.951,-38.9 -4.271,-77.041 -17.043,-113.876 -13.106,-37.799 -32.62,-71.885 -62.729,-98.789 -43.722,-39.068 -95.64,-56.74 -153.89,-55.218 -58.611,1.531 -106.935,26.665 -146.311,68.819 -33.462,35.823 -53.637,79.023 -63.456,126.904 -6.167,30.067 -6.73,60.252 2.905,89.837 7.912,24.291 20.273,46.033 42.888,59.397 23.551,13.917 48.068,18.81 72.394,0.908 1.41,-1.038 2.282,-0.676 3.522,0.048 5.566,3.252 11.178,6.425 16.904,9.701 -2.883,3.841 -5.875,7.626 -8.654,11.562 -15.073,21.351 -28.602,43.495 -34.598,69.365 -5.047,21.781 -3.803,42.645 9.37,61.685 0.234,0.338 0.123,0.915 0.153,1.191 -48.708,0 -97.318,0 -146.483,0 10.721,-9.01 12.805,-20.472 11.934,-32.926 -0.497,-7.103 -1.897,-14.134 -7.358,-19.086 -2.912,-2.641 -2.704,-4.18 -0.855,-7.127 10.619,-16.922 15.992,-35.488 15.35,-55.43 -0.705,-21.914 -7.834,-42.048 -19.196,-60.666 -23.949,-39.242 -57.918,-66.555 -100.757,-82.549 -46.09,-17.208 -92.977,-20.813 -140.218,-4.627 -32.444,11.117 -60.815,29.069 -85.179,53.219 -2.232,2.212 -4.04,2.707 -6.875,1.695 -6.151,-2.198 -12.606,-3.098 -19.086,-3.476 C 79.376,310.84 53.458,318.21 32.813,338.883 9.837,361.89 1.102,391.116 0.077,422.79 c -0.94,29.012 6.848,56.265 18.994,82.381 10.087,21.689 20.629,43.184 26.02,66.717 6.569,28.672 0.897,52.87 -25.107,69.764 -2.756,1.79 -3.703,4.275 -3.06,7.28 0.675,3.156 3.13,4.465 6.114,5.085 14.795,3.075 29.698,3.866 44.693,1.963 30.428,-3.859 55.256,-17.29 72.881,-42.927 8.158,-11.867 13.532,-25.01 17.625,-38.927 0.667,0.373 1.178,0.51 1.464,0.841 16.556,19.159 37.293,31.88 61.24,39.542 2.954,0.945 2.764,2.47 2.487,4.799 -4.24,35.692 -8.945,71.32 -15.698,106.635 -4.306,22.518 -8.461,45.1 -17.724,66.321 -2.1,4.81 -0.291,8.116 5.157,9.745 2.671,0.798 3.583,1.857 3.389,4.837 -1.833,28.177 11.918,50.733 37.604,62.234 12.153,5.442 24.97,8.039 38.153,8.886 3.631,0.233 4.519,1.176 2.704,4.356 -0.406,0.712 -0.605,1.543 -0.904,2.317 -3.082,7.985 0.587,13.361 9.123,13.361 439.601,0 879.198,0 1318.808,0 8.55,0 12.3,-5.402 9.21,-13.298 -4.59,-11.754 -9.05,-23.566 -13.87,-35.228 -1.32,-3.188 -0.36,-3.458 2.42,-3.676 5.14,-0.402 10.29,-0.906 15.35,-1.848 24.33,-4.529 44.14,-16.007 57.59,-37.429 3.69,-5.873 4.41,-13.981 9.87,-17.942 5.43,-3.948 12.82,-5.238 19.4,-7.563 4.46,-1.577 6.09,-4.504 5.64,-9.211 -1.02,-10.601 -1.74,-21.232 -2.57,-31.851 -2.53,-32.19 -5.03,-64.382 -7.61,-96.568 -0.2,-2.489 0.36,-4.353 2.07,-6.282 31.94,-35.923 59.68,-74.994 85.92,-115.175 14.28,-21.867 27.99,-44.092 40.86,-66.813 2.28,-4.029 4.85,-6.97 9.03,-9.153 9.51,-4.979 17.77,-11.75 24.76,-19.926 5,-5.844 9.48,-12.064 11.1,-19.818 0.88,-4.183 0.53,-9.271 -3.31,-10.66"/>
          </g>
          <path style="fill:#ff7164" inkscape:connector-curvature="0" id="path9872" d="m 1974.89,304.347 c -0.02,3.065 -1.32,5.328 -3.94,7.027 -14.23,9.238 -28.39,18.581 -42.62,27.808 -5.26,3.41 -10.09,2.866 -12.76,-1.173 -2.8,-4.24 -1.2,-8.892 4.25,-12.455 13.92,-9.094 27.84,-18.189 41.75,-27.301 2.99,-1.955 6.08,-2.742 9.37,-0.909 2.71,1.505 4,3.897 3.95,7.003"/>
          <g id="g9874" clip-path="url(#Clip_2)">
            <path style="fill:#ff7164" inkscape:connector-curvature="0" id="path9876" d="m 1879.68,279.451 c -6.01,-0.009 -10.07,-5.767 -7.11,-11.056 7.3,-13.053 15.61,-25.496 24.68,-37.39 2.71,-3.56 7.18,-3.794 10.74,-1.311 3.4,2.367 4.63,6.952 2.09,10.581 -8.29,11.844 -16.32,23.847 -23.91,36.149 -1.4,2.266 -3.82,3.094 -6.49,3.027"/>
            <path style="fill:#ff7164" inkscape:connector-curvature="0" id="path9878" d="m 1993.54,395.674 c 0.27,4.2 -1.94,6.573 -5.82,7.426 -12.79,2.818 -25.8,4.575 -38.45,8.12 -4.78,1.337 -8.63,-1.429 -9.59,-5.657 -0.95,-4.215 1.24,-8.041 5.84,-9.621 12.94,-4.44 26.53,-5.931 39.87,-8.497 4.86,-0.935 8.24,2.924 8.15,8.229"/>
          </g>
          <path style="fill:#fefefe" inkscape:connector-curvature="0" id="path9880" d="m 561.578,644.033 c -0.259,8.013 2.649,10.27 10.282,8.173 47.341,-13.006 95.103,-15.423 143.254,-5.168 7.505,1.599 14.101,-1.262 21.009,-2.531 39.592,-7.269 78.814,-6.485 117.621,4.794 3.185,0.925 6.234,2.311 9.4,3.313 5.793,1.834 10.253,-1.974 8.967,-7.846 -5.696,-25.99 -11.558,-51.944 -17.236,-77.937 -0.784,-3.588 -2.876,-5.407 -6.125,-6.436 -30.512,-9.671 -61.75,-13.088 -93.636,-10.844 -10.97,0.772 -21.799,2.543 -32.608,4.554 -6.003,1.117 -11.668,-1.902 -17.583,-2.363 -0.739,-0.058 -1.207,-0.733 -1.096,-1.419 0.789,-4.859 -0.853,-9.074 -4.541,-13.43 12.828,0 24.639,-1.206 36.006,0.519 5.518,0.838 12.176,1.596 17.288,6.67 5.283,5.244 12.544,3.039 18.831,0.414 2.756,-1.151 4.947,-0.827 7.833,-0.371 7.608,1.202 15.414,1.51 23.137,1.455 3.269,-0.024 6.225,-2.515 8.245,-5.208 2.123,-2.832 4.569,-3.577 8.037,-3.571 71.82,0.109 143.64,0.118 215.457,-0.017 3.9,-0.008 5.72,1.068 7.31,4.683 3.78,8.575 10.7,14.235 19.89,18.341 -4.32,1.361 -7.91,2.585 -11.56,3.611 -3.18,0.896 -5.04,2.821 -6.01,5.995 -7.34,23.981 -14.74,47.947 -22.21,71.89 -0.92,2.945 -1.04,5.564 1.18,7.881 2.27,2.359 4.97,2.12 7.87,1.309 45.2,-12.644 90.78,-14.738 136.77,-4.728 5.35,1.164 10.18,-1.165 15.18,-2.134 40.95,-7.94 81.38,-7.113 121.1,6.743 2.69,0.938 5.19,1.205 7.5,-0.758 2.47,-2.102 2.57,-4.704 1.89,-7.718 -5.29,-23.692 -10.48,-47.409 -15.74,-71.108 -0.43,-1.91 -0.46,-4.362 -2.38,-5.299 -3.47,-1.696 -2.24,-3.313 -0.64,-5.529 4.4,-6.07 8.24,-12.513 11.07,-19.459 1.1,-2.675 2.4,-3.702 5.41,-3.695 49.49,0.104 98.98,0.098 148.47,0.01 2.77,-0.005 4.07,0.8 5.08,3.418 7.95,20.607 16,41.174 24.19,61.691 1.28,3.208 1.11,4.816 -2.7,5.154 -4.26,0.378 -8.58,3.144 -12.69,-0.684 -0.58,-0.539 -1.93,-0.392 -2.91,-0.338 -20.03,1.107 -39.81,-0.215 -59.28,-5.504 -4.64,-1.261 -10.75,-2.187 -14.06,0.973 -9.39,8.957 -20.57,4.467 -30.94,5.561 -6.76,0.713 -13.64,0.333 -20.46,0.431 -6.75,0.096 -8.33,1.407 -9.71,8.111 -3.81,18.451 -0.39,36.039 6.42,53.203 4.37,11.025 10.2,21.269 17,30.963 1.18,1.686 2.07,3.129 1.53,5.416 -6.02,25.546 -1.25,50.218 6.33,74.618 3.4,10.967 7.96,21.483 12.64,31.966 2.2,4.94 5.38,6.843 10.79,6.819 37.99,-0.166 75.99,-0.049 113.98,-0.143 4.12,-0.01 7.76,0.663 11.3,2.946 5.31,3.416 10.85,6.476 16.37,9.53 4.7,2.597 7.81,1.81 10.51,-2.751 5.09,-8.581 10.08,-17.222 14.97,-25.916 2.42,-4.31 1.49,-7.54 -2.76,-10.145 -3.97,-2.43 -7.9,-4.996 -12.12,-6.915 -5.69,-2.59 -8.76,-6.752 -10.84,-12.621 -8.57,-24.157 -13.89,-48.922 -15.16,-74.528 -0.13,-2.59 -0.73,-4.774 -2.25,-6.924 -2.2,-3.111 -4.13,-6.428 -6.01,-9.752 -3.75,-6.649 -3.69,-6.629 3.53,-9.249 2.22,-0.806 3.55,-1.212 4.72,1.782 27.82,71.334 55.78,142.618 83.7,213.913 0.05,0.135 -0.02,0.318 -0.06,0.82 -437.06,0 -874.159,0 -1311.682,0 4.468,-11.494 8.876,-22.919 13.348,-34.32 10.491,-26.747 21.08,-53.457 31.436,-80.257 1.238,-3.204 2.569,-4.102 6.022,-3.747 8.12,0.834 16.259,0.141 24.943,-1.344 -3.503,11.094 -8.275,21.121 -13.464,30.968 -1.473,2.794 -3.209,5.453 -4.617,8.278 -2.682,5.382 -0.215,9.751 5.704,10.261 1.158,0.1 2.331,0.026 3.498,0.026 49.49,0 98.982,-0.085 148.472,0.111 5.997,0.023 9.37,-1.914 11.897,-7.445 12.345,-27.023 21.508,-54.778 21.35,-84.914 -0.031,-5.842 -0.233,-11.755 -1.829,-17.334 -1.331,-4.654 -0.266,-7.956 2.415,-11.775 11.307,-16.101 18.809,-33.908 22.63,-53.236 0.423,-0.524 0.798,-0.492 1.125,0.097"/>
          <path style="fill:#fef8ea" inkscape:connector-curvature="0" id="path9882" d="m 1732.52,460.944 c -13.5,22.393 -29.1,43.299 -45.22,63.827 -6.16,7.849 -12.64,15.452 -18.97,23.163 -1.27,1.544 -2.57,2.827 -4.74,3.332 -45.87,10.657 -91.26,10.326 -134.92,-8.75 -39.6,-17.298 -61.89,-49.352 -72.05,-90.561 -0.48,-1.917 -0.66,-3.905 -0.98,-5.86 2.28,-0.289 3.03,1.745 4.28,2.923 14.59,13.726 42.98,16.084 55.19,-9.78 2.71,-5.737 2.98,-11.777 1.77,-17.588 -2.85,-13.677 -12.02,-25.764 -25.19,-28.015 -14.62,-2.498 -27.62,4.531 -35.1,18.259 -1.35,2.472 -1.41,5.954 -4.79,7.09 -1.5,-49.063 11.65,-93.185 45.34,-129.777 20.3,-22.052 46.21,-34.89 75.12,-42.037 3.35,-0.828 4.3,0.997 5.65,3.256 13.09,21.857 26.74,43.34 42.55,63.36 2.99,3.776 6.17,7.453 9.68,10.734 5.46,5.108 9.71,4.149 12.83,-2.55 4.42,-9.481 8.91,-18.936 11.84,-29.03 0.17,-0.595 0.63,-1.108 1.1,-1.902 7.01,7.914 13.92,15.571 21.55,22.528 6.54,5.96 13.47,11.397 21.32,15.551 6.46,3.413 10.61,1.402 11.8,-5.714 1.91,-11.413 1.55,-22.857 0.44,-34.309 -0.25,-2.594 -0.54,-5.183 -0.92,-8.854 7.33,5.815 12.86,11.931 18.01,18.362 13.48,16.841 22.72,35.878 28.82,56.503 0.43,1.448 0.97,2.698 0,4.235 -5.55,8.849 -4.74,18.401 -2.91,28.04 0.87,4.563 1.75,9.125 2.62,13.688 -2.28,0.699 -3.78,-0.918 -5.37,-1.97 -8.52,-5.644 -18.01,-6.602 -27.76,-5.434 -9.82,1.177 -22.28,14.179 -24.31,24.731 -2.55,13.244 5.11,30.077 16.8,36.833 3.63,2.1 7.47,3.508 11.78,3.573 1.74,0.026 4.13,-0.673 4.74,2.143"/>
          <path inkscape:connector-curvature="0" style="fill:#b39b74;fill-opacity:1" id="path9884" d="m 1019.87,240.144 c 0.05,-58.073 17.66,-108.172 65.71,-144.377 3.71,-2.793 7.86,-4.993 11.72,-7.598 2.76,-1.866 3.77,-1.359 4.35,2.03 3.48,20.312 11.46,38.798 23.31,55.614 5.98,8.498 12.9,16.099 21.96,21.492 14.79,8.8 29.39,5.762 39.34,-8.255 3.98,-5.608 6.73,-11.817 8.71,-18.904 8.09,10.008 17.04,18.579 27.63,25.348 5.05,3.232 10.27,6.159 15.85,8.354 19.31,7.595 32.97,1.063 39.74,-19.135 7.13,6.669 14.71,12.548 23.53,16.663 6.09,2.84 12.37,4.985 19.16,4.815 2.65,-0.066 3.87,0.858 4.54,3.315 5.32,19.483 9.65,39.092 8.04,59.508 -2.4,-0.195 -2.5,-2.425 -3.28,-3.915 -8.21,-15.726 -25.43,-20.243 -40.65,-16.878 -12.07,2.667 -28.03,21.438 -21.08,39.73 0.89,2.337 1.89,4.609 2.98,6.856 11.76,24.316 40.31,23.228 53.85,3.533 1.38,-2.011 2.04,-5.019 5.35,-5.073 0.05,-10e-4 0.15,0.237 0.16,0.369 0.01,0.162 -0.04,0.329 -0.06,0.494 -8.28,48.853 -32.57,86.279 -79.81,104.574 -48.43,18.759 -98.13,18.706 -146.88,0.77 -42.22,-15.533 -66.95,-47.522 -78.36,-90.405 -0.51,-1.921 -0.82,-3.895 -1.22,-5.845 0.06,-2.262 1.46,-1.279 2.31,-0.804 2.19,1.207 4.02,2.951 6.06,4.382 10.79,7.561 29.12,8.165 38.23,1.259 16.55,-12.551 19.15,-29.422 8.04,-46.964 -12.26,-19.359 -38.41,-17.13 -49.99,-1.444 -2.18,2.952 -4.25,5.941 -5.9,9.237 -0.63,1.26 -1.24,3.521 -3.34,1.254"/>
          <path style="fill:#fef8ea" inkscape:connector-curvature="0" id="path9886" d="m 141.049,504.004 c -6.794,-32.116 -2.91,-63.315 8.071,-93.903 0.333,-1.579 1.6,-2.205 2.917,-2.21 10.363,-0.041 20.688,-1.04 31.041,-1.193 6.781,4.984 7.428,4.891 14.701,-0.165 3.65,-2.537 6.537,-6.226 11.07,-7.472 6.34,0.113 12.274,2.433 18.476,3.366 7.908,1.19 15.737,1.723 23.654,0.307 1.892,-0.338 3.907,-1.008 5.75,0.324 3.832,5.345 6.489,5.858 12.028,2.083 24.656,-16.803 42.33,-39.704 56.844,-65.331 2.211,-3.903 4.568,-7.803 6.11,-11.981 1.48,-4.009 3.412,-3.7 6.704,-2.428 37.03,14.312 63.404,39.756 78.858,76.196 13.398,31.59 18.674,64.383 12.291,98.534 -0.55,0.919 -0.501,3.235 -2.39,1.091 -0.551,-0.626 -0.572,-1.544 -0.747,-2.357 -3.018,-13.983 -12.762,-20.18 -25.897,-22.852 -13.016,-2.647 -22.296,2.861 -29.675,12.83 -7.91,10.687 -7.715,22.453 0.378,34.921 12.051,18.569 35.432,18.576 48.788,0.106 1.324,-1.83 1.634,-4.964 4.956,-4.84 -9.671,34.353 -29.92,60.226 -62.196,75.849 -28.719,13.901 -59.479,17.174 -90.96,15.479 -24.847,-1.338 -48.835,-6.226 -70.78,-18.496 -25.095,-14.031 -42.519,-34.736 -52.406,-61.756 1.943,-1.014 2.03,-1.134 4.083,0.354 5.249,3.803 11.238,5.484 17.469,6.891 20.303,4.584 38.946,-20.192 33.317,-36.332 -3.842,-11.015 -9.183,-20.464 -20.939,-24.239 -12.152,-3.902 -25.208,1.262 -33.037,12.565 -2.28,3.291 -4.076,6.844 -5.398,10.641 -0.571,1.643 -0.687,3.732 -3.081,4.018"/>
          <path inkscape:connector-curvature="0" style="fill:#feeee1;fill-opacity:1" id="path9888" d="m 860.805,293.118 c -10.498,34.309 -31.195,60.596 -64.483,74.257 -51.761,21.242 -104.2,21.109 -155.264,-2.663 -27.029,-12.582 -45.024,-34.576 -55.511,-62.546 2.014,-1.182 2.074,-1.274 4.586,0.34 4.54,2.919 9.39,4.834 14.739,5.799 11.33,2.043 20.667,-1.092 28.107,-9.928 7.473,-8.876 9.743,-18.69 5.547,-29.713 -4.595,-12.073 -12.407,-20.712 -25.924,-21.789 -11.476,-0.915 -19.974,5.061 -26.687,13.867 -2.44,3.201 -4.121,6.807 -5.438,10.615 -0.49,1.415 -0.293,3.514 -2.64,3.661 -4.235,-19.733 -4.78,-39.522 -1.141,-59.42 5.314,-29.06 15.375,-56.018 34.575,-78.983 12.241,-14.641 27.122,-25.894 44.137,-34.435 2.383,-1.196 3.887,-1.413 5.79,1.1 27.817,36.745 65.043,60.179 107.754,75.782 1.089,0.398 2.175,0.821 3.294,1.118 5.212,1.384 8.878,3.372 10.911,9.547 2.99,9.084 11.435,12.471 20.552,13.323 9.004,0.84 17.956,-0.219 26.835,-1.66 3.317,-0.538 4.987,-0.34 5.372,3.814 0.794,8.584 1.898,17.206 4.913,25.375 4.831,13.09 13.907,18.619 27.775,16.837 -0.044,9.381 -1.326,18.549 -3.085,27.672 -2.125,-0.235 -1.891,-2.056 -2.163,-3.405 -2.871,-14.21 -12.004,-21.754 -25.833,-24.155 -17.56,-3.049 -33.214,8.444 -35.906,26.218 -1.769,11.685 8.31,28.363 20.145,33.331 11.058,4.643 24.886,0.47 32.996,-9.933 1.431,-1.836 2.472,-4.05 4.297,-5.48 1.714,-1.342 2.376,-0.503 1.75,1.454"/>
          <path style="fill:#579cd7" inkscape:connector-curvature="0" id="path9890" d="m 1553.39,571.991 c 0.66,11.392 5.57,18.741 15.17,22.633 2.27,0.92 2.71,2.532 3.27,4.515 6.23,22.254 12.53,44.488 18.8,66.728 0.97,3.414 1.82,6.952 6.16,7.554 4.52,0.628 6.39,-2.588 8.32,-5.823 13.43,-22.42 26.92,-44.8 40.32,-67.229 1.66,-2.769 3.49,-4.85 6.7,-6.17 9.77,-4.012 14.57,-12.283 13.98,-23.576 -0.12,-2.3 -0.06,-3.76 2.5,-4.351 1.87,-0.429 2.96,-2.041 4.16,-3.435 35.56,-41.217 67.77,-84.771 93.01,-133.181 1.49,-2.859 2.82,-2.852 5.37,-1.474 13.47,7.278 26.97,14.489 40.57,21.506 3.05,1.574 3.16,2.867 1.51,5.662 -35.03,59.088 -72.56,116.428 -117.48,168.623 -4.13,4.795 -8.46,9.416 -12.78,14.04 -4.97,5.326 -4.49,9.266 1.99,12.376 2.2,1.053 2.29,2.671 2.42,4.421 2.1,26.373 4.14,52.749 6.2,79.126 0.83,10.784 1.57,21.579 2.56,32.349 0.21,2.256 0.25,3.759 -2.2,4.711 -36.8,14.302 -73.92,18.857 -111.98,4.71 -9.43,-3.504 -15.65,-8.557 -19.08,-18.701 -6.59,-19.512 -14.74,-38.503 -22.36,-57.66 -1.17,-2.928 -1.38,-5.688 -0.72,-8.708 6.16,-28.095 12.27,-56.2 18.38,-84.304 1.08,-4.964 -0.48,-8.342 -4.2,-9.281 -4.47,-1.128 -7.32,0.985 -8.55,6.579 -2.82,12.827 -6.01,25.581 -7.88,38.601 -0.32,2.222 -1,3.628 -3.59,3.903 -1.36,0.145 -2.68,1.231 -3.9,2.059 -23.56,15.929 -49.61,20.935 -77.56,17.953 -2.53,-0.27 -3.44,-1.356 -3.76,-3.654 -1.65,-12.027 -3.33,-24.052 -5.1,-36.063 -0.47,-3.228 0.16,-4.134 3.82,-3.883 27.4,1.873 53.43,-2.313 76.69,-18.13 12.06,-8.197 21.37,-18.878 29.24,-32.426"/>
          <path inkscape:connector-curvature="0" style="fill:#615137;fill-opacity:1" id="path9892" d="m 1037.66,68.038 c 1.69,-1.522 3.82,-0.747 5.74,-1.054 4.57,-0.731 8.9,-1.571 10.29,-7.065 0.28,-1.114 1.58,-2.109 2.62,-2.875 29.1,-21.478 60.92,-37.084 97.08,-41.653 39.25,-4.96 77.24,0.93 113.74,16.37 24.06,10.177 45.65,24.14 63.96,42.703 25,25.33 39.97,55.679 43.8,91.329 2.28,21.284 -0.51,41.766 -8.45,61.61 -1.28,3.196 -2.39,5.138 -6.15,2.364 -2.36,-1.748 -5.53,-2.662 -8.51,-2.459 -4.15,0.282 -5.15,-1.153 -5.29,-5.27 -0.54,-15.37 -4.22,-30.248 -8.18,-45.028 -0.66,-2.435 -1,-4.228 1.07,-6.261 2.26,-2.217 2.28,-5.227 0.45,-7.77 -1.93,-2.687 -4.83,-3.853 -7.92,-2.258 -8.81,4.56 -17.22,2.654 -25.3,-1.612 -15.58,-8.23 -28,-19.6 -34.78,-36.342 -1.94,-4.787 -5.05,-6.424 -8.78,-4.912 -3.72,1.504 -5.12,4.936 -3.45,9.546 2.49,6.897 4.88,13.762 5.16,21.212 0.54,14.242 -7.65,17.513 -18.12,13.887 -21.5,-7.445 -38.23,-21.274 -47.73,-42.644 -1.42,-3.215 -2.12,-6.677 -2.19,-10.18 -0.08,-4.331 -1.91,-7.117 -6.36,-7.371 -3.97,-0.227 -6.67,3.319 -6.67,8.216 0,7.983 0.43,15.978 -1.02,23.907 -1.21,6.681 -3.82,12.755 -7.96,18.093 -5.68,7.311 -12.04,8.603 -20.21,3.993 -9.39,-5.305 -16.13,-13.407 -21.66,-22.387 -11.86,-19.264 -20.21,-39.715 -19.48,-62.94 0.13,-4.133 -0.9,-7.929 -5.82,-8.435 -4.77,-0.492 -6.9,2.57 -7.41,6.882 -0.26,2.168 -1.65,3.027 -3.34,3.921 -48.95,25.902 -74.69,68.315 -86.15,120.969 -1.98,9.073 -2.44,18.317 -4.02,27.42 -3.71,-11.281 -9.078,-22.219 -9.084,-34.362 -0.008,-14.564 1.752,-28.838 11.474,-40.723 -2.33,-2.786 -4.22,-0.121 -6.24,0.225 -0.27,-7.886 -0.84,-8.448 -8.859,-9.118 -0.766,-0.064 -1.501,-0.498 -2.251,-0.76 -10.568,-10.039 -11.921,-23.067 -3.433,-36.6 8.8,-14.03 21.353,-23.447 36.923,-28.921 1.36,-0.405 2.69,-0.916 4.05,-1.334 1.08,-0.423 2.18,-0.763 3.35,-0.805 1.42,-1.487 3.62,-0.296 5.11,-1.508"/>
          <path sodipodi:nodetypes="cssscsccccccccccccscccccccccccccccccccccscccccscsc" inkscape:connector-curvature="0" style="fill:#dccf53;fill-opacity:1" id="path9894" d="m 609.708,71.768 c 26.905,-18.055 55.81,-31.179 88.479,-33.871 60.519,-4.987 114.554,11.242 159.839,52.262 31.716,28.729 50.649,65.673 62.454,106.33 8.537,29.402 12.264,59.614 12.089,90.201 -0.105,18.301 -2.866,36.224 -13.069,52.069 -13.695,21.268 -44.907,33.828 -69.52,28.185 -5.171,-1.185 -9.391,-4.157 -13.646,-7.086 -2.762,-1.902 -0.032,-2.79 0.851,-3.622 12.275,-11.571 21.881,-25.039 28.978,-40.32 0.351,-0.755 0.743,-1.493 1.052,-2.264 1.73,-4.323 2.56,-9.389 5.394,-12.783 3.079,-3.687 8.56,-0.695 13.009,-1.635 12.052,-2.546 20.047,-10.248 22.659,-23.594 1.485,-7.586 1.274,-15.249 -0.851,-22.707 -2.546,-8.937 -8.252,-14.653 -18.396,-16.24 5.077,-4.755 9.857,-9.202 13.955,-14.3 3.875,-4.82 7.48,-9.796 10.146,-15.39 5.975,-12.532 2.26,-23.974 -10.278,-30.136 -12.434,-6.111 -25.839,-7.374 -39.435,-6.007 -4.559,0.458 -6.664,-0.139 -7.504,-5.224 -2.025,-12.257 -6.137,-23.841 -13.791,-33.878 -10.019,-13.139 -23.673,-14.225 -35.638,-2.879 -0.12,0.115 -0.235,0.236 -0.354,0.352 -7.15,6.906 -7.198,6.944 -13.405,-0.775 -9.196,-11.439 -17.515,-23.482 -24.634,-36.334 -2.692,-4.861 -6.304,-6.487 -10.033,-4.554 -3.58,1.855 -4.231,5.974 -1.482,10.88 8.983,16.031 19.364,31.096 31.705,44.735 2.524,2.79 3.722,4.939 1.23,8.528 -3.038,4.374 -5.073,9.409 -6.517,14.53 -0.847,3 -2.057,3.151 -4.614,2.282 -27.995,-9.516 -53.926,-22.807 -76.718,-41.836 -13.492,-11.265 -25.502,-23.889 -35.172,-38.656 -3.229,-4.932 -7.761,-5.33 -11.489,-1.04 -1.163,1.338 -2.463,2.168 -3.953,2.883 -42.324,20.297 -68.034,54.35 -81.331,98.554 -4.413,14.671 -7.774,29.595 -8.102,45.025 -0.052,2.444 -0.718,3.459 -3.524,3.389 -12.292,-0.307 -19.563,5.435 -22.647,17.367 -2.043,7.902 -2.096,15.763 -0.019,23.671 3.881,14.777 16.188,23.482 31.377,21.68 2.796,-0.332 3.791,0.263 4.651,2.714 6.417,18.293 15.927,34.754 29.328,48.866 3.082,3.246 6.169,6.487 9.33,9.811 -4.715,4.345 -10.867,6.016 -17.353,6.876 -20.136,-4.279 -33.256,-17.68 -43.151,-34.465 -12.758,-21.642 -17.718,-45.675 -20.332,-70.448 -3.708,-35.149 5.552,-67.673 18.939,-99.421 11.577,-27.455 26.404,-53.051 45.397,-76.113"/>
          <path inkscape:connector-curvature="0" style="fill:#625648;fill-opacity:1" id="path9896" d="m 183.668,408.02 c -1.882,-1.663 -3.833,-0.232 -5.664,0.031 -7.879,1.133 -15.785,1.189 -23.71,1.04 -1.791,-0.034 -3.652,-0.356 -5.175,1.011 -3.626,-2.078 -7.7,-1.202 -11.562,-1.709 -2.089,-0.274 -2.251,1.643 -2.685,2.985 -5.284,16.345 -9.141,32.999 -9.99,50.204 -0.164,3.336 -0.949,3.884 -4.203,3.769 -5.957,-0.21 -11.712,1.31 -15.763,6.093 -2.771,3.271 -3.747,2.152 -5.064,-1.045 -9.391,-22.789 -10.998,-46.012 -4.37,-69.811 6.695,-24.035 19.043,-45.005 35.237,-63.667 30.31,-34.929 67.655,-59.031 112.997,-69.092 37.182,-8.25 73.739,-3.548 109.36,9.325 9.245,3.341 18.059,7.65 26.858,11.998 1.518,0.75 2.628,1.862 3.809,2.961 1.386,0.97 2.766,1.948 4.214,2.831 31.029,24.404 51.53,55.353 58.703,94.548 2.536,13.855 1.317,27.53 -2.45,41.027 -0.486,1.74 -0.745,3.646 -2.651,4.58 -4.366,-18.661 -10.168,-36.774 -19.528,-53.643 -18.015,-32.469 -44.436,-55.104 -79.082,-68.262 -1.767,-0.671 -3.87,-0.704 -4.421,-3.328 -0.686,-3.267 -2.985,-5.366 -6.344,-5.336 -3.571,0.032 -5.408,2.479 -6.74,5.702 -6.247,15.113 -14.191,29.313 -23.551,42.723 -11.325,16.226 -24.388,30.755 -41.039,41.723 -3.142,2.069 -4.528,4.71 -4.124,8.38 -14.884,3.968 -29.437,1.29 -43.959,-2.157 -1.589,-0.377 -3.227,-0.546 -4.841,-0.811 -0.657,-2.198 1.35,-2.842 2.439,-3.84 18.891,-17.312 33.173,-38.05 45.158,-60.507 2.51,-4.703 4.45,-9.673 6.598,-14.54 2.493,-5.648 1.804,-9.008 -1.649,-10.376 -3.18,-1.261 -5.821,0.74 -8.167,6.166 -6.027,13.938 -13.254,27.232 -21.878,39.725 -10.929,15.833 -23.299,30.357 -39.33,41.344 -3.667,2.513 -6.646,5.374 -7.433,9.958"/>
          <path inkscape:connector-curvature="0" style="fill:#625648;fill-opacity:1" id="path9898" d="m 1449.61,342.26 c 0,-8.684 0.03,-17.109 -0.01,-25.533 -0.03,-6.992 -2.18,-9.073 -9,-9.749 -11.87,-1.178 -23.81,-2.228 -34.81,-8.408 8.75,-7.275 17.24,-14.423 25.83,-21.456 7.06,-5.777 13.49,-12.302 21.45,-17.026 3.79,-2.254 3.56,-6.749 -0.16,-10.169 -7.02,-6.461 -12.2,-14.394 -18.54,-22.186 10.52,-2.177 20.56,-3.993 30.47,-6.36 26.51,-6.334 52.28,-15.364 78.76,-21.895 26.28,-6.481 52.73,-11.163 79.92,-9.362 46.93,3.108 89.29,18.3 125.96,48.269 27.88,22.781 46.3,51.505 54.54,86.644 0.19,0.808 0.3,1.639 0.55,2.43 1.63,5.319 1.51,8.803 -4.84,12.038 -8.08,4.118 -12.34,12.844 -16.96,20.54 -2.07,3.448 -2.56,4.318 -6.25,0.928 -5.14,-4.707 -7.2,-10.365 -9.26,-16.489 -11.34,-33.72 -30.29,-62.042 -59.51,-82.938 -2.41,-1.72 -3.15,-4.134 -4.1,-6.612 -0.99,-2.594 -1.57,-5.478 -4.51,-6.853 -2.77,-1.289 -5.23,-0.869 -7.33,1.213 -2.41,2.4 -2.43,5.086 -1.17,8.24 6.07,15.115 9.29,38.56 7.69,55.427 -5.38,-2.384 -9.19,-6.522 -13.26,-10.17 -9.31,-8.357 -17.15,-18.116 -25.38,-27.5 -1.1,-1.251 -2.09,-2.611 -3.28,-3.757 -2.04,-1.956 -4.37,-3 -7.26,-1.79 -2.75,1.153 -4.27,3.279 -4.41,6.133 -0.52,10.892 -4.93,20.593 -8.97,30.443 -1.34,3.288 -2.29,2.828 -4.19,0.456 -13.03,-16.275 -24.29,-33.766 -35.34,-51.395 -5.84,-9.308 -11.49,-18.732 -16.3,-28.619 -1.83,-3.737 -4.91,-4.497 -8.36,-3.368 -3.25,1.063 -4.95,4.026 -3.81,7.169 1.51,4.123 -0.7,4.692 -3.67,5.443 -22.24,5.631 -42.45,15.474 -60.52,29.604 -24.55,19.194 -41.19,44.06 -52.01,73.053 -0.44,1.17 -0.49,2.584 -1.96,3.605"/>
          <path style="fill:#579cd7" inkscape:connector-curvature="0" id="path9900" d="m 1147.6,523.066 c 4.7,-2.312 9.38,-4.647 14.09,-6.932 9.01,-4.367 9.6,-8.216 2.25,-15.184 -4.95,-4.696 -10.14,-9.162 -14.86,-14.083 -2.88,-3.003 -6.2,-4.188 -10.1,-4.717 -6.75,-0.916 -13.47,-2.143 -20.24,-2.942 -2.55,-0.301 -3.36,-1.354 -3.5,-3.737 -0.45,-7.306 -1.07,-14.601 -1.58,-21.903 -0.36,-5.161 -2.49,-7.657 -6.63,-7.638 -4.39,0.021 -6.55,2.649 -6.34,8.212 0.24,6.316 0.66,12.628 1.16,18.93 0.19,2.426 -0.4,3.269 -3,2.871 -9.86,-1.51 -19.72,-2.958 -29.62,-4.167 -3.69,-0.451 -4.47,-1.69 -3.55,-5.361 5.78,-22.902 15.25,-44.294 26.19,-65.104 2.7,-5.153 5.71,-10.15 8.39,-15.319 1.21,-2.331 2.45,-3.014 5.05,-1.989 4.01,1.583 9.33,1.627 11.96,4.371 2.45,2.55 0.04,7.748 0.17,11.808 0.33,10.362 4.56,18.306 13.81,23.182 2.53,1.332 4.08,3.143 5.39,5.547 11.03,20.139 22.16,40.227 33.21,60.358 1.57,2.872 3.19,5.595 6.94,5.601 3.98,0.007 5.64,-2.877 7.26,-5.923 10.62,-19.977 21.31,-39.92 31.94,-59.892 1.43,-2.673 3.11,-4.753 5.93,-6.362 9.61,-5.481 14.31,-16.666 12.13,-28.93 -0.74,-4.125 -0.06,-6.088 4.28,-6.805 3.25,-0.536 6.64,-1.409 9.47,-3.006 5.11,-2.884 7.39,-0.608 10.08,3.6 18.31,28.71 32.38,59.104 39.38,92.675 7.11,34.166 -1.77,63.162 -26.52,87.5 -0.84,0.834 -1.49,3.297 -3.31,1.036 -7.24,-8.993 -17.53,-13.607 -27.33,-18.857 -3.05,-1.637 -3.64,-2.599 -1.51,-5.706 6.68,-9.746 13.02,-19.74 16.58,-31.169 1.02,-3.26 0.91,-6.321 -2.06,-8.568 -2.41,-1.821 -4.99,-1.619 -7.47,-0.059 -1.64,1.037 -2.29,2.77 -2.91,4.525 -5.25,14.978 -5.26,14.975 -21.11,14.975 -23.49,0 -46.98,0 -70.47,0 -1.09,0 -2.19,0 -3.28,0 -0.09,-0.279 -0.18,-0.559 -0.27,-0.838"/>
          <path inkscape:connector-curvature="0" style="fill:#625648;fill-opacity:1" id="path9902" d="M 118.852,330.161 C 108.16,344.02 98.256,358.36 91.061,374.43 c -7.768,17.351 -12.834,35.432 -12.835,54.463 0,22.042 6.008,42.705 17.14,61.774 1.577,2.701 2.275,5.337 2.352,8.442 0.404,16.386 10.177,26.659 26.381,29.196 5.988,0.938 10.705,5.329 13.575,10.642 3.152,5.836 5.559,12.088 9.074,17.755 1.141,1.839 1.413,3.695 0.942,5.721 -5.215,22.461 -14.019,43 -31.557,58.855 -14.35,12.973 -31.485,19.552 -50.454,21.758 -8.41,0.979 -16.861,1.763 -25.607,0.048 5.995892,-6.24702 10.183224,-12.12969 14.485,-19.378 C 64.746,603.196 64.762,581.693 60.8,559.812 56.946,538.525 49.625,518.354 41.027,498.595 31.031,475.623 25.643,451.64 27.554,426.583 c 2.145,-28.104 10.132,-54.519 28.462,-76.546 14.881,-17.882 34.417,-25.617 57.814,-22.402 1.889,0.26 4.129,0.143 5.022,2.526" sodipodi:nodetypes="cccccccccsccccscscc"/>
          <path style="fill:#fefefe" inkscape:connector-curvature="0" id="path9904" d="m 431.253,737.261 c 0.594,0.407 0.811,0.472 0.857,0.598 6.159,16.993 22.565,20.063 36.362,26.551 3.917,1.842 7.963,-0.648 8.391,-5.075 0.944,-9.761 1.389,-19.571 2.018,-29.362 0.127,-1.968 -1.083,-3.444 -2.009,-5.005 -3.795,-6.396 -7.607,-12.781 -11.969,-20.105 9.205,0 17.576,0.013 25.946,-0.01 1.992,-0.005 4.034,0.129 5.963,-0.255 3.8,-0.757 5.796,-3.221 5.324,-7.168 -0.44,-3.685 -2.692,-5.565 -6.439,-5.566 -11.493,-0.003 -22.988,-0.131 -34.477,0.082 -3.086,0.057 -4.724,-0.95 -6.249,-3.555 -9.743,-16.636 -19.566,-33.227 -29.59,-49.695 -1.911,-3.139 -2.292,-5.63 -0.783,-9.074 4.638,-10.586 4.482,-10.566 16.074,-10.434 33.462,0.381 66.925,0.769 100.388,0.92 4.691,0.021 6.682,0.942 6.956,6.176 1.103,21.038 -5.776,39.878 -16.996,56.813 -7.304,11.025 -10.691,20.622 -7.915,34.544 4.478,22.459 -2.277,44.499 -9.896,65.797 -2.29,6.399 -5.156,12.59 -7.654,18.918 -0.912,2.31 -2.279,3.201 -4.862,3.197 -44.474,-0.078 -88.947,-0.1 -133.421,0.014 -4.212,0.011 -3.896,-1.368 -2.372,-4.251 5.605,-10.6 10.077,-21.696 13.705,-33.105 1.357,-4.271 3.979,-5.115 7.915,-4.568 7.021,0.977 13.975,0.519 20.649,-1.989 4.496,-1.689 8.437,-4.275 9.572,-9.35 0.586,-2.623 2.494,-2.752 4.386,-3.272 9.003,-2.476 9.212,-2.719 10.126,-11.771"/>
          <path style="fill:#fefefe" inkscape:connector-curvature="0" id="path9906" d="m 856.953,636.576 c -18.802,-5.386 -37.139,-8.428 -55.789,-9.384 -25.907,-1.327 -51.566,0.588 -76.836,6.653 -3.932,0.943 -7.556,-0.036 -11.305,-0.739 -44.664,-8.375 -89.074,-6.841 -133.254,3.479 -0.454,0.106 -0.932,0.107 -1.972,0.218 4.15,-13.543 8.191,-26.79 12.273,-40.025 2.154,-6.986 4.499,-13.917 6.512,-20.943 0.709,-2.476 1.772,-3.981 4.375,-4.581 6.637,-1.531 13.232,-3.239 19.837,-4.905 1.727,-0.436 3.081,-0.087 4.61,0.988 14.098,9.917 23.7,9.178 36.27,-2.644 0.692,-0.65 1.326,-1.824 2.119,-0.204 2.068,4.224 6.411,5.003 10.105,6.734 5.716,2.68 11.468,5.284 17.226,7.873 6.724,3.022 10.376,0.863 11.169,-6.548 0.854,-7.981 1.235,-8.988 8.439,-6.258 7.288,2.76 13.689,0.796 20.427,-0.451 36.485,-6.75 72.526,-4.832 108.172,5.327 1.991,0.568 3.5,1.237 4.029,3.687 4.38,20.279 8.905,40.527 13.593,61.723"/>
          <path style="fill:#579cd7" inkscape:connector-curvature="0" id="path9908" d="m 716.402,523.721 c -7.157,0.061 -14.316,0.031 -21.469,0.234 -2.357,0.067 -3.556,-0.909 -4.688,-2.828 -8.196,-13.903 -16.515,-27.733 -24.75,-41.613 -2.961,-4.99 -1.664,-10.736 -2.58,-16.095 -1.023,-5.979 -2.928,-8.105 -8.864,-7.065 -2.479,0.435 -2.877,-0.889 -3.665,-2.19 -3.533,-5.835 -7.019,-11.699 -10.485,-17.574 -4.363,-7.392 -6.446,-7.921 -13.972,-3.469 -1.551,0.917 -3.111,1.821 -4.744,2.777 -0.916,-1.912 0.454,-3.041 1.064,-4.253 7.963,-15.828 18.074,-30.253 28.926,-44.199 1.674,-2.151 3.2,-2.558 5.928,-1.809 6.745,1.85 12.021,3.33 11.432,12.867 -0.599,9.689 5.491,16.862 14.807,20.418 2.594,0.99 3.981,2.765 5.288,4.923 8.445,13.949 16.903,27.89 25.388,41.814 4.186,6.869 9.388,6.864 13.578,-0.127 8.468,-14.129 16.825,-28.325 25.219,-42.498 1.101,-1.86 2.239,-3.395 4.465,-4.37 9.92,-4.346 14.677,-12.269 14.314,-22.966 -0.151,-4.426 1.037,-6.701 5.602,-7.558 4.537,-0.851 9.624,-4.479 13.159,-3.217 2.987,1.066 5.097,6.692 7.704,10.23 15.28,20.739 28.784,42.445 35.105,67.785 4.607,18.467 3.967,36.348 -7.761,52.444 -2.01,2.758 -4.535,5.141 -7.462,8.412 -1.458,-16.063 -10.729,-23.983 -24.442,-27.537 -2.746,-0.712 -2.926,-2.041 -2.696,-4.238 0.9,-8.6 1.75,-17.206 2.597,-25.812 0.26,-2.642 0.738,-5.317 -1.032,-7.706 -1.835,-2.475 -4.372,-3.057 -7.117,-2.293 -2.814,0.783 -4.329,2.806 -4.611,5.835 -0.863,9.274 -2.047,18.525 -2.647,27.815 -0.231,3.564 -1.42,4.466 -4.764,4.25 -9.749,-0.63 -18.852,1.624 -27.052,7.014 -6.638,4.364 -11.496,10.334 -13.307,18.067 -1.019,4.351 -3.016,5.384 -6.87,4.531 -0.667,-1.446 0.425,-2.526 0.793,-3.752 0.884,-2.944 -0.073,-5.298 -2.495,-6.96 -2.305,-1.581 -4.737,-1.414 -6.953,0.313 -2.242,1.746 -2.737,4.038 -1.899,6.697 0.383,1.216 1.604,2.22 0.956,3.703"/>
          <path style="fill:#fefefe" inkscape:connector-curvature="0" id="path9910" d="m 1404.05,652.46 c -9.68,6.728 -9.06,16.791 1.44,23.339 4.57,2.851 9.83,4.087 14.87,3.232 14.47,-2.457 28.71,-0.021 43.04,0.922 8.15,0.535 16.32,-0.152 24.36,-1.651 2.91,-0.542 4.43,0.113 5.81,2.894 2.73,5.495 5.98,10.737 9.08,16.045 0.6,1.026 1.07,1.986 1.13,3.212 1.26,23.039 5.55,45.508 12.74,67.432 0.14,0.436 0.01,0.959 0.01,2.118 -11.6,-6.695 -22.87,-13.2 -34.14,-19.703 -11.81,-6.813 -23.64,-13.572 -35.4,-20.48 -2.43,-1.427 -4.83,-1.988 -7.58,-1.741 -8.29,0.743 -16.59,1.331 -24.88,2.104 -6.04,0.563 -8.49,4.616 -6.01,10.171 3.6,8.029 7.47,15.934 11.17,23.916 1.05,2.27 2.96,3.487 5,4.667 20.44,11.784 40.85,23.596 61.29,35.41 -0.51,1.844 -1.93,1.111 -2.88,1.113 -29.33,0.045 -58.65,-0.008 -87.97,0.106 -2.94,0.011 -4.4,-0.91 -5.59,-3.587 -10.19,-22.968 -17.79,-46.612 -18.6,-71.958 -0.27,-8.317 0.58,-16.643 3.29,-24.611 1.25,-3.68 0.54,-6.626 -1.77,-9.726 -11.87,-15.919 -20.79,-33.232 -24.32,-52.997 -1.12,-6.27 -1.12,-12.558 -0.6,-18.896 0.21,-2.562 1.28,-3.56 3.68,-3.571 11.67,-0.051 23.33,-0.155 34.99,-0.15 2.25,10e-4 5.4,5.209 4.23,7.34 -4.27,7.795 -0.62,13.392 4.9,18.399 2.7,2.444 5.79,4.449 8.71,6.651"/>
          <path style="fill:#579cd7" inkscape:connector-curvature="0" id="path9912" d="m 310.661,686.116 c -13.757,-7.678 -25.917,-17.499 -37.465,-28.108 -2.98,-2.737 -6.01,-4.361 -9.794,-2.007 -3.401,2.115 -4.021,7.01 -0.815,9.967 27.07,24.97 56.494,45.678 94.435,50.071 4.863,0.563 6.385,1.935 5.702,6.946 -1.378,10.122 0.067,19.943 5.655,28.754 1.695,2.672 0.335,2.915 -1.781,3.413 -16.423,3.872 -32.706,3.007 -48.809,-1.612 -21.623,-6.202 -40.662,-17.227 -57.792,-31.661 -5.733,-4.832 -9.492,-5.518 -12.455,-1.983 -3.069,3.663 -1.974,7.109 3.919,11.997 19.848,16.458 41.704,29.135 66.998,35.197 3.029,0.726 3.063,1.985 2.055,4.453 -3.082,7.543 -6.013,15.149 -8.925,22.76 -0.844,2.207 -1.977,3.461 -4.613,3.704 -33.063,3.049 -65.827,1.486 -98.267,-5.876 -2.788,-0.632 -3.937,-1.248 -2.805,-4.494 9.354,-26.813 14.078,-54.708 18.764,-82.584 4.55,-27.066 8.363,-54.245 11.207,-81.549 0.371,-3.559 1.28,-4.858 5.26,-3.792 4.948,1.325 10.728,0.557 15.091,2.774 4.399,2.235 3.553,8.767 6.114,12.994 3.834,6.326 8.321,11.676 15.821,13.571 1.588,0.401 2.647,1.354 3.641,2.465 9.992,11.163 19.966,22.343 29.945,33.518 0.236,0.962 -0.02,1.428 -1.086,1.082"/>
          <path style="fill:#fefefe" inkscape:connector-curvature="0" id="path9914" d="m 561.578,644.033 c -0.375,-0.033 -0.75,-0.065 -1.125,-0.097 0.639,-9.127 1.217,-18.23 -0.694,-27.316 -1.646,-7.833 -2.778,-8.983 -10.925,-9.089 -39.795,-0.517 -79.589,-1.02 -119.384,-1.476 -9.38,-0.107 -9.372,-0.012 -12.942,8.882 -0.615,1.533 -1.337,3.024 -2.095,4.724 -7.601,-11.005 -13.462,-0.055 -20.382,1.292 -0.249,-2.572 1.318,-4.632 2.142,-6.794 4.791,-12.568 9.777,-25.062 14.65,-37.599 1.213,-3.12 2.788,-5.971 4.832,-8.648 6.489,-8.5 11.664,-17.796 15.777,-27.646 1.058,-2.535 2.262,-3.455 5.068,-3.45 56.818,0.09 113.636,0.082 170.454,0.019 2.545,-0.003 3.902,0.284 3.969,3.333 0.088,3.993 1.117,7.909 2.785,11.571 0.925,2.033 0.52,2.784 -1.724,3.325 -6.457,1.558 -12.832,3.455 -19.265,5.12 -3.91,1.012 -6.01,3.295 -7.222,7.292 -7.42,24.477 -15.102,48.875 -22.708,73.295 -0.344,1.105 -0.805,2.175 -1.211,3.262"/>
          <path style="fill:#fefefe" inkscape:connector-curvature="0" id="path9916" d="m 1037.33,634.613 c 5.93,-19.219 11.78,-38.083 17.51,-56.984 0.64,-2.119 2.03,-2.814 3.81,-3.329 33.85,-9.774 68.2,-11.723 102.65,-4.618 7.53,1.555 13.97,0.377 20.86,-0.817 2.36,-0.409 3.24,-0.167 3.98,2.424 1.66,5.845 5.96,9.013 11.99,9.714 1.59,0.184 2.95,-0.237 3.57,2.238 2.24,9.004 9.24,13.251 18.47,11.138 3.04,-0.697 4.49,-0.254 6.33,2.37 3.28,4.676 8.36,5.607 13.8,4.776 1.59,-0.243 2.93,-0.718 4.7,0.32 9.71,5.697 17.29,3.793 23.33,-5.628 0.98,-1.525 2.18,-3.204 2.34,-4.9 0.65,-6.866 5.89,-10.463 10.01,-14.884 2.72,-2.917 4.12,-1.872 4.88,1.575 3.89,17.693 7.78,35.388 11.8,53.055 0.7,3.061 -0.2,3.424 -2.9,2.693 -39.86,-10.767 -79.91,-10.582 -120,-1.599 -5.09,1.141 -9.55,-0.431 -14.19,-1.245 -40.73,-7.144 -81.16,-5.564 -121.36,3.838 -0.28,0.066 -0.61,-0.046 -1.58,-0.137"/>
          <path sodipodi:nodetypes="ccccccssscc" inkscape:connector-curvature="0" style="fill:#ece6aa;fill-opacity:1" id="path9918" d="m 607.64793,80.845825 c -27.256,29.722995 -48.58297,60.291525 -62.68297,97.919525 -9.288,24.789 -16.50896,49.05165 -14.89196,75.83465 1.535,25.438 5.97,50.244 17.911,73.099 9.469,18.121 22.355,32.684 42.941,38.572 0.701,0.2 1.223,1.024 1.832,1.556 -25.783,1.242 -45.117,-10.223 -59.766,-30.612 -15.384,-21.412 -22.196,-45.788 -22.117,-71.754 0.195,-64.143 24.436,-118.981 66.475,-166.549 6.966,-7.882 15.005,-14.638 23.439,-20.896 1.261,-0.935 5.62726,-6.184458 7.85826,-5.118458"/>
          <path style="fill:#ff7164" inkscape:connector-curvature="0" id="path9920" d="m 793.728,178.231 c 0.945,-9.388 5.449,-18.058 10.803,-26.364 3.53,-5.477 7.622,-10.522 12.592,-14.772 4.842,-4.139 8.174,-4.071 12.571,0.478 7.327,7.584 10.371,17.309 12.82,27.189 1.112,4.488 1.643,9.165 1.979,13.79 0.459,6.323 3.063,8.351 9.438,6.929 12.223,-2.725 24.418,-2.441 36.565,0.527 0.646,0.158 1.297,0.306 1.924,0.522 11.164,3.846 12.995,8.627 6.739,18.66 -6.875,11.026 -15.521,20.417 -27.022,26.765 -10.327,5.699 -16.045,3.325 -19.609,-7.891 -2.89,-9.092 -3.193,-18.646 -4.847,-27.96 -0.462,-2.6 -0.474,-5.416 -2.268,-7.529 -1.874,-2.208 -4.344,-2.73 -7.235,-2.009 -10.996,2.74 -22.162,4.223 -33.504,3.478 -7.065,-0.464 -10.936,-4.629 -10.946,-11.813"/>
          <path style="fill:#fef8ea" inkscape:connector-curvature="0" id="path9922" d="m 1853.28,380.877 c -1.8,7.317 -5.8,12.379 -9.62,17.542 -1.48,2.007 -3.01,3.984 -4.48,6.001 -2.35,3.231 -2.71,6.549 0.41,9.392 2.9,2.634 5.98,2.174 9.03,-0.151 2.59,-1.971 5.35,-3.744 9.08,-4.872 -0.27,2.567 -1.76,3.928 -2.86,5.391 -7.23,9.636 -17.04,16.031 -26.98,22.569 -5.43,3.573 -8.82,2.234 -13.46,-0.331 -12.35,-6.828 -24.91,-13.283 -37.38,-19.891 -1.45,-0.763 -2.97,-1.275 -3.49,-3.229 -3.08,-11.568 -6.01,-23.171 -7.71,-35.032 -0.37,-2.554 -0.56,-5.325 0.93,-8.239 3.33,3.388 4.61,7.619 5.65,11.743 0.96,3.807 2.57,6.792 6.62,6.954 4.04,0.162 5.59,-2.698 7,-6.405 4.15,-10.953 10.44,-20.749 18.13,-29.599 0.67,-0.768 1.31,-2.238 2.75,-1.469 1.01,0.537 0.73,1.773 0.79,2.712 0.37,5.04 -1.05,9.906 -1.52,14.866 -0.18,1.981 -0.48,3.994 -0.31,5.955 0.25,2.817 1.6,5.175 4.48,6.042 2.98,0.896 5.51,0.059 7.53,-2.455 2.92,-3.627 5.91,-7.202 8.98,-10.693 1.16,-1.313 2.34,-2.823 4.6,-3.013 1.16,4.31 -0.49,8.156 -1.63,12.063 -0.88,3.029 -1.94,6.019 -2.6,9.093 -0.67,3.068 0.37,5.734 3.33,7.061 2.8,1.25 5.57,0.894 7.78,-1.481 4,-4.307 8.59,-7.769 14.95,-10.524"/>
          <path style="fill:#579cd7" inkscape:connector-curvature="0" id="path9924" d="m 304.779,811.476 c -6.846,17.484 -13.52,34.489 -20.148,51.513 -0.718,1.845 -1.918,2.484 -3.827,2.396 -16.29,-0.749 -32.151,-3.328 -46.354,-11.949 -16.331,-9.913 -23.096,-25.029 -23.096,-43.698 0,-3.062 0.999,-3.475 3.85,-2.926 22.117,4.262 44.457,6.243 66.982,5.798 7.288,-0.145 14.568,-0.719 22.593,-1.134"/>
          <path inkscape:connector-curvature="0" style="fill:#c7a993;fill-opacity:1" id="path9926" d="m 1330.73,264.13 c -2.97,0.892 -3.53,3.889 -5.02,5.98 -9.76,13.65 -28.2,18.837 -41.92,10.322 -12.57,-7.803 -19.3,-20.048 -17.96,-35.002 1.16,-13.048 9.06,-22.888 20.99,-27.611 14.51,-5.746 36.94,-0.407 44.98,17.631 0.53,1.198 1.1,2.377 1.66,3.564 -0.15,8.455 -0.81,16.853 -2.73,25.116"/>
          <path inkscape:connector-curvature="0" style="fill:#84796d;fill-opacity:1" id="path9928" d="m 118.852,330.161 c -18.856,-4.856 -35.95,-0.741 -51.291,10.712 -16.928,12.637 -25.278,30.97 -31.673,50.26 -12.021,36.26 -8.628,71.776 6.269,106.487 9.464,22.052 17.728,44.456 21.106,68.357 2.894,20.475 1.98,40.455 -8.545,59.014 -0.88,0.228 -1.378,0.084 -0.944,-0.968 C 66.616,595.749 59.33,568.511 49.377,541.481 43.063,524.331 34.391,508.197 27.318,491.375 16.671,466.054 10.542,439.812 13.851,412.16 c 3.101,-25.911 11.395,-49.847 31.841,-67.359 20.934,-17.93 45.683,-22.613 72.51,-17.778 3.335,0.602 2.791,1.604 0.65,3.138"/>
          <path inkscape:connector-curvature="0" style="fill:#c7a993;fill-opacity:1" id="path9930" d="m 1019.87,240.144 c 2.33,1.022 1.85,-1.23 2.3,-2.123 4.74,-9.33 11.15,-16.879 21.39,-20.42 14.72,-5.094 29.56,0.314 37.22,13.889 4.23,7.518 8.27,15.24 6.12,24.453 -4.81,20.607 -22.39,33.367 -44.19,26.726 -5.84,-1.777 -11.06,-4.429 -15.54,-8.564 -0.7,-0.643 -1.25,-2.341 -2.71,-0.88 -2.98,-10.827 -4.03,-21.919 -4.59,-33.081"/>
          <path style="fill:#ffd9b4" inkscape:connector-curvature="0" id="path9932" d="m 1451.8,418.984 c 3.86,-9.371 8.99,-17.771 18.07,-23.015 14.06,-8.113 33.89,-5.077 43.81,13.163 10.41,19.133 4.6,36.473 -12.82,47.731 -10.51,6.794 -34.67,4.331 -45.22,-10.768 -2.58,-8.854 -3.28,-17.973 -3.84,-27.111"/>
          <path style="fill:#ffceb4" inkscape:connector-curvature="0" id="path9934" d="m 860.805,293.118 c -1.205,-2.856 -1.527,0.002 -1.776,0.395 -4.881,7.703 -11.233,13.469 -20.307,15.743 -12.93,3.239 -25.565,-2.255 -32.341,-13.725 -11.046,-18.701 -7.172,-32.398 8.82,-45.283 9.133,-7.359 23.417,-6.267 35.29,0.443 8.585,4.852 13.51,12.56 14.252,22.643 0.045,0.6 0.508,1.168 0.776,1.753 -1.134,6.125 -2.199,12.268 -4.714,18.031"/>
          <path style="fill:#ffceb4" inkscape:connector-curvature="0" id="path9936" d="m 424.977,519.03 c -3.519,4.783 -6.606,9.947 -11.494,13.552 -13.978,10.312 -31.973,8.365 -42.341,-6.606 -13.973,-20.178 -7.3,-39.023 11.972,-49.386 17.249,-9.274 41.89,3.953 44.608,22.971 0.35,2.449 0.984,1.196 1.842,0.569 -0.939,6.444 -2.341,12.774 -4.587,18.9"/>
          <path style="fill:#ffceb4" inkscape:connector-curvature="0" id="path9938" d="m 141.049,504.004 c 2.52,-5.378 4.192,-11.121 7.729,-16.06 10.382,-14.499 28.738,-17.955 42.947,-7.912 16.25,11.486 18.002,34.359 4.831,49.042 -12.223,13.626 -29.464,11.247 -42.281,4.089 -1.859,-1.038 -2.927,-3.608 -5.64,-3.056 -3.761,-8.343 -5.818,-17.181 -7.586,-26.103"/>
          <path style="fill:#ffceb4" inkscape:connector-curvature="0" id="path9940" d="m 577.837,275.018 c 2.582,-9.353 7.217,-17.461 15.02,-23.385 15.713,-11.931 36.422,-6.178 45.247,12.284 8.423,17.623 2.751,32.494 -12.267,42.247 -11.719,7.61 -23.813,4.348 -35.342,-1.811 -1.576,-0.842 -2.571,-3.132 -4.947,-2.186 -3.791,-8.704 -6.308,-17.768 -7.711,-27.149"/>
          <path style="fill:#ffd9b4" inkscape:connector-curvature="0" id="path9942" d="m 1732.52,460.944 c -3.19,-1.901 -6.8,-0.338 -10.19,-1.409 -9.26,-2.933 -15.71,-8.968 -20.14,-17.352 -9.96,-18.866 -4.55,-35.17 12.23,-46.116 12.18,-7.942 25.12,-4.919 37.27,1.696 1.73,0.946 3.3,2.196 4.95,3.305 2.89,6.818 3.16,13.061 -0.87,20.044 -7.68,13.319 -14.58,27.088 -23.25,39.832"/>
          <path inkscape:connector-curvature="0" style="fill:#84796d;fill-opacity:1" id="path9944" d="m 441.559,435.099 c 9.156,-28.119 4.899,-55.036 -7.512,-81.119 -11.103,-23.334 -27.127,-42.81 -47.155,-59.053 -0.273,-0.848 -0.176,-1.324 0.861,-0.859 36.079,22.47 63.199,52.315 75.325,93.825 7.807,26.725 2.415,51.628 -13.242,74.427 -0.873,1.272 -1.576,3.529 -3.566,2.863 -1.844,-0.618 -1.316,-2.841 -1.325,-4.388 -0.048,-8.715 -2.203,-17.14 -3.386,-25.696"/>
          <path style="fill:#579cd7" inkscape:connector-curvature="0" id="path9946" d="m 1574.91,786.85 c 30.54,12.214 60.68,12.787 92.11,6.304 -5.19,10.568 -11.85,18.798 -20.77,25.169 -15.08,10.784 -32.36,14.11 -50.43,14.71 -1.88,0.062 -3.06,-0.4 -3.8,-2.309 -5.49,-14.235 -11.07,-28.436 -17.11,-43.874"/>
          <path style="fill:#fef8ea" inkscape:connector-curvature="0" id="path9948" d="m 393.402,751.019 c -8.837,0.052 -14.713,-4.161 -16.664,-12.443 -3.528,-14.968 -0.58,-28.443 10.474,-39.557 7.52,-7.561 16.615,-9.655 26.581,-5.87 8.696,3.302 16.167,8.636 21.7,16.222 4.279,5.866 2.435,10.021 -4.744,11.345 -4.562,0.842 -8.969,-0.003 -13.175,-1.784 -3.864,-1.637 -7.384,-1.526 -9.428,2.491 -1.979,3.891 -0.522,7.078 3.283,9.173 0.436,0.24 0.879,0.494 1.253,0.818 1.584,1.372 4.435,2.423 3.809,4.679 -0.454,1.634 -3.369,1.465 -5.253,1.758 -7.882,1.226 -8.447,1.743 -7.884,9.722 0.129,1.831 -0.946,2.009 -1.901,2.238 -2.741,0.658 -5.482,1.491 -8.051,1.208"/>
          <path style="fill:#ffde79" inkscape:connector-curvature="0" id="path9950" d="m 1542.88,801.539 c -1.49,2.605 -3.04,5.343 -4.61,8.074 -4.23,7.374 -4.23,7.379 -11.66,3.088 -29.1,-16.817 -58.16,-33.694 -87.33,-50.38 -3.38,-1.936 -4.72,-3.342 -2,-6.907 2.7,-3.534 3.58,-9.762 7.24,-10.847 3.72,-1.102 7.79,3.543 11.65,5.756 27.7,15.902 55.35,31.906 82.98,47.926 1.35,0.779 3.22,1.089 3.73,3.29"/>
          <path style="fill:#fefefe" inkscape:connector-curvature="0" id="path9952" d="m 1099.72,553.037 c 1.49,-4.819 2.67,-9.314 1.02,-13.981 -0.5,-1.4 -0.12,-2.232 1.52,-2.164 0.67,0.027 1.33,-0.008 2,-0.008 40.12,0 80.24,-10e-4 120.36,0.008 0.78,0 1.56,0.114 2.59,0.194 -1.74,4.27 -3.84,6.468 -8.9,5.984 -10.07,-0.963 -19.09,2.032 -26.09,9.729 -1.39,1.522 -3.07,1.821 -4.87,2.127 -3.93,0.67 -7.95,1.017 -11.76,2.092 -7.02,1.979 -13.42,-1.113 -20.07,-1.978 -16.54,-2.151 -33.1,-3.152 -49.76,-2.02 -1.81,0.123 -3.64,0.017 -6.04,0.017"/>
          <path inkscape:connector-curvature="0" style="fill:#b39b74;fill-opacity:1" id="path9954" d="m 1078.49,550.163 c -10.43,-0.714 -19.65,-3.979 -24.98,-13.692 -5.2,-9.467 -3.25,-18.931 2.28,-27.4 7.8,-11.951 18.76,-19.594 33.35,-21.092 3.88,-0.399 7.62,0.384 11.07,2.284 4.17,2.3 4.35,3.358 0.7,6.274 -5.53,4.428 -11.92,7.245 -18.74,8.932 -3.94,0.971 -7.1,2.597 -6.88,7.096 0.23,4.778 3.69,6.087 7.92,6.582 2.22,0.26 5.63,-0.106 5.4,3.608 -0.18,2.981 -1.98,4.446 -5.37,4.451 -3.02,0.006 -5.23,1.975 -5.69,5.272 -0.47,3.394 0.89,5.817 3.98,7.249 0.6,0.277 1.32,0.329 1.88,0.658 2.11,1.233 5.71,1.183 4.87,5.104 -0.78,3.578 -3.6,4.479 -6.79,4.665 -1,0.058 -2,0.009 -3,0.009"/>
          <path style="fill:#fefefe" inkscape:connector-curvature="0" id="path9956" d="m 1201.96,427.622 c -8.42,15.734 -16.59,31.018 -25.15,47.014 -7.67,-13.886 -14.97,-27.077 -22.24,-40.287 -3.26,-5.927 -3.24,-5.987 3.34,-7.835 8.48,-2.383 14.44,-7.935 19,-15.247 10.43,11.52 14.03,13.905 25.05,16.355"/>
          <path style="fill:#fefefe" inkscape:connector-curvature="0" id="path9958" d="m 1599.98,650.667 c -4.92,-17.319 -9.52,-33.614 -14.2,-49.884 -0.69,-2.415 0.08,-3.013 2.44,-3.427 11.21,-1.971 14.62,-4.069 22.81,-13.512 5.39,5.926 11.51,10.822 19.43,12.927 2.09,0.556 0.79,1.715 0.26,2.6 -10.05,16.799 -20.12,33.589 -30.74,51.296"/>
          <path inkscape:connector-curvature="0" style="fill:#feeee1;fill-opacity:1" id="path9960" d="m 650.639,557.293 c -4.689,4.207 -8.613,4.814 -13.656,2.253 -13.705,-6.957 -17.197,-25.046 -7.045,-36.491 11.571,-13.044 30.747,-13.995 43.769,-2.333 2.785,2.494 1.442,3.443 -1.003,4.346 -4.809,1.777 -9.552,-0.031 -14.318,-0.384 -2.152,-0.16 -4.283,-0.616 -6.435,-0.757 -3.918,-0.256 -6.535,1.646 -7.113,5.467 -0.587,3.885 1.591,6.466 5.295,7.269 2.956,0.641 5.406,1.517 6.385,4.813 -4.138,2.641 -11.436,0.485 -12.268,7.983 -0.512,4.618 2.986,6.223 6.389,7.834"/>
          <path style="fill:#aad9d3;fill-opacity:1" inkscape:connector-curvature="0" id="path9962" d="m 445.597,700.517 c -8.633,-9.506 -18.374,-17.359 -31.068,-20.793 -1.554,-0.421 -2.516,-1.407 -3.325,-2.775 -6.775,-11.46 -13.539,-22.927 -20.469,-34.293 -1.425,-2.338 -0.957,-3.425 1.267,-4.627 3.51,-1.898 6.974,-3.912 10.288,-6.131 2.273,-1.521 3.329,-0.942 4.63,1.266 12.915,21.935 25.93,43.812 38.918,65.705 0.385,0.617 0.305,1.167 -0.241,1.648"/>
          <path style="fill:#ffc6a5" inkscape:connector-curvature="0" id="path9964" d="m 661.631,500.282 c -6.329,-1.475 -12.266,-1.149 -18.105,0.342 -1.899,0.484 -2.685,-0.269 -3.532,-1.698 -8.127,-13.71 -16.256,-27.418 -24.495,-41.06 -1.182,-1.956 -0.807,-2.992 1.05,-3.88 0.15,-0.072 0.291,-0.161 0.435,-0.243 4.307,-2.474 8.87,-7.212 12.846,-6.761 3.688,0.418 5.267,7.33 7.736,11.396 7.494,12.345 14.825,24.789 22.195,37.209 0.741,1.249 1.863,2.346 1.87,4.695"/>
          <path inkscape:connector-curvature="0" style="fill:#feeee1;fill-opacity:1" id="path9966" d="m 761.622,533.919 c 0.626,-1.512 0.972,-2.383 1.345,-3.242 1.526,-3.517 0.98,-6.594 -2.354,-8.652 -3.129,-1.932 -6.088,-1.16 -8.491,1.51 -1.789,1.988 -3.965,5.03 -6.427,3.18 -2.768,-2.082 -0.02,-5.209 1.187,-7.51 3.124,-5.951 8.489,-9.468 14.796,-10.914 10.893,-2.499 21.864,-1.857 32.387,1.878 9.739,3.455 12.714,11.047 8.363,19.607 -6.316,-5.735 -7.93,-5.732 -14.626,0.287 -1.598,-2.586 -2.837,-5.584 -6.522,-5.865 -3.451,-0.263 -5.424,2.128 -7.783,3.862 -3.354,2.468 -6.77,4.795 -11.875,5.859"/>
          <path sodipodi:nodetypes="ccccccccc" inkscape:connector-curvature="0" style="fill:#897b66;fill-opacity:1" id="path9968" d="m 1002.77,147.084 c 1.96,-6.955 6.08,-0.818 8.59,-1.701 -14.777,20.537 -15.668,42.595 -6.94,65.564 1.4,3.68 2.45,7.13 2.2,10.998 -4.23,1.119 -7.394,-0.904 -10.262,-3.593 -6.352,-5.955 -9.258,-13.677 -10.504,-21.995 -1.568,-10.46 -0.796,-20.826 2.822,-30.855 2.279,-6.316 5.126,-12.237 11.604,-15.449 1.19,-0.592 2.06,-1.644 2.49,-2.969"/>
          <path style="fill:#fef8ea" inkscape:connector-curvature="0" id="path9970" d="m 1412.75,663.922 c 4.23,-1.279 8.52,-2.411 12.69,-3.882 3.43,-1.211 5.66,-3.643 5.1,-7.572 -0.52,-3.669 -3.09,-4.884 -6.54,-5.701 -7.03,-1.668 -13.15,-5.413 -18.87,-9.778 -1.68,-1.283 -3.21,-2.413 -0.14,-4.062 1.48,-0.797 2.62,-3.018 1.95,-4.289 -2.5,-4.775 -0.31,-10.283 -3.03,-15.53 8.6,0.08 16.41,2.438 24.25,4.641 1.77,0.495 1.39,2.034 1.57,3.281 1.92,13.155 3.77,26.321 5.77,39.463 0.44,2.881 -0.16,4.249 -3.31,4.573 -6.56,0.673 -13.09,2.159 -19.44,-1.144"/>
          <path sodipodi:nodetypes="cccccccccc" inkscape:connector-curvature="0" style="fill:#897b66;fill-opacity:1" id="path9972" d="m 1037.2435,67.904238 c -13.17,5.99 -36.8435,17.557762 -45.4385,29.644762 -4.025,5.659 -6.999,11.765 -7.67,18.687 -0.636,6.557 1.479,12.418 5.631,17.591 0.768,0.957 2.967,1.331 1.894,3.379 -6.287,-1.191 -12.176,-3.373 -17.133,-7.512 -7.167,-5.982 -8.667,-12.942 -4.613,-21.359 4.375,-9.084 11.403,-15.886 19.549,-21.507 11.007,-7.597 34.6205,-17.244762 47.7205,-20.236762 0.42,0.419 0.44,0.857 0.06,1.313"/>
          <path inkscape:connector-curvature="0" style="fill:#b39b74;fill-opacity:1" id="path9974" d="m 1255.12,590.112 c 1.22,-3.956 0.92,-7.334 -3.09,-9.202 -4.24,-1.973 -6.84,0.516 -9.32,3.521 -1.42,1.724 -2.58,3.916 -5.18,4.236 -1.25,-1.357 -0.11,-2.588 0.07,-3.791 0.46,-3.157 0.28,-6.051 -2.72,-7.94 -2.72,-1.714 -5.38,-1.13 -7.95,0.478 -2.82,1.764 -5.75,3.333 -8.97,4.249 -0.98,0.277 -2.08,0.477 -2.84,-0.315 -0.89,-0.941 0.04,-1.838 0.44,-2.692 1.08,-2.309 2.9,-4.011 4.69,-5.769 2.7,-2.658 3.47,-5.794 1,-8.923 -2.55,-3.248 -5.71,-3.47 -9.25,-1.208 -3.99,2.557 -7.95,5.409 -13.13,5.174 0.45,-7.314 10.24,-14.358 21.71,-11.567 13.06,3.178 24.68,9.872 34.77,18.726 5.81,5.099 5.44,11.345 -0.23,15.023"/>
          <path style="fill:#fefefe" inkscape:connector-curvature="0" id="path9976" d="m 720.732,451.437 c -6.341,-10.409 -12.265,-20.132 -18.433,-30.257 8.076,-2.017 14.116,-6.443 18.617,-13.361 4.726,5.402 9.533,10.123 16.245,12.3 2.839,0.921 0.626,2.454 0.078,3.398 -5.256,9.04 -10.627,18.014 -16.507,27.92"/>
          <path style="fill:#fefefe" inkscape:connector-curvature="0" id="path9978" d="m 1148.77,414.546 c -13.41,-0.099 -19.78,-7.23 -18.14,-20.137 0.31,-2.362 0.73,-3.585 3.64,-2.995 10.43,2.115 21.03,2.876 31.64,3.457 1.81,0.099 3.21,-0.059 2.74,2.61 -1.68,9.525 -10.42,17.134 -19.88,17.065"/>
          <path style="fill:#abeb8a" inkscape:connector-curvature="0" id="path9980" d="m 1062.34,483.82 c -6.26,4.933 -11.52,9.443 -15.63,15.078 -1.12,1.548 -2.61,1.243 -4.06,1.032 -6.74,-0.983 -13.46,-2.113 -20.21,-3.018 -3.14,-0.422 -4.2,-1.67 -3.41,-4.922 0.87,-3.534 1.22,-7.2 1.68,-10.823 0.26,-2.05 0.72,-3.554 3.32,-3.153 12.43,1.916 24.87,3.774 38.31,5.806"/>
          <path style="fill:#fefefe" inkscape:connector-curvature="0" id="path9982" d="m 1182.93,395.097 c 12.18,-0.628 23.74,-1.394 35.15,-3.537 2.11,-0.398 2.39,0.379 2.82,2.108 1.77,7.062 -0.19,14.102 -5.09,17.493 -5.97,4.129 -14.31,4.357 -20.05,0.282 -5.65,-4.008 -9.63,-9.421 -12.83,-16.346"/>
          <path style="fill:#fefefe" inkscape:connector-curvature="0" id="path9984" d="m 381.206,652.284 c 3.714,6.156 6.961,11.538 10.208,16.92 0.656,1.088 0.704,2.208 0.094,3.318 -2.836,5.163 -4.693,10.839 -10.232,14.299 -5.132,3.205 -8.604,8.242 -11.628,13.477 -0.497,0.861 -0.905,1.809 -1.551,2.543 -1.613,1.83 -3.761,1.252 -5.512,0.559 -1.911,-0.757 -0.464,-2.244 -0.035,-3.346 6.076,-15.61 12.182,-31.209 18.656,-47.77"/>
          <path style="fill:#fef8ea" inkscape:connector-curvature="0" id="path9986" d="m 1424.58,435.52 c 0.09,-5.555 0.54,-9.668 2.12,-13.57 1.21,-2.975 3.39,-4.829 6.58,-5.508 3.53,-0.753 5.37,-0.125 5.56,4.235 0.46,10.611 1.88,21.151 4.51,31.47 0.85,3.306 0.05,4.416 -3.44,4.062 -7.04,-0.715 -12.46,-5.319 -14.15,-12.704 -0.7,-3.057 -0.93,-6.22 -1.18,-7.985"/>
          <path inkscape:connector-curvature="0" style="fill:#b39b74;fill-opacity:1" id="path9988" d="m 1360.48,258.129 c -0.05,4.168 -0.52,8.281 -2.02,12.191 -1.49,3.866 -4.04,6.88 -7.92,8.495 -2.76,1.148 -6.17,2.648 -8.53,0.902 -1.89,-1.401 0.17,-4.563 0.64,-6.877 1.91,-9.441 3.22,-18.972 3.69,-28.57 0.2,-3.906 1.9,-4.449 5,-3.907 3.57,0.624 6.01,2.634 7.24,6.048 1.37,3.784 1.89,7.709 1.9,11.718"/>
          <path inkscape:connector-curvature="0" style="fill:#b39b74;fill-opacity:1" id="path9990" d="m 992.763,258.231 c 0.379,-3.92 0.48,-7.927 1.993,-11.685 1.166,-2.894 2.993,-5.113 6.224,-5.916 3.56,-0.887 5.81,-0.815 6.07,4.062 0.58,10.765 1.94,21.489 4.65,31.956 0.93,3.572 -0.61,3.872 -3.39,3.559 -6.54,-0.735 -11.123,-4.054 -13.518,-10.19 -1.466,-3.756 -1.625,-7.773 -2.029,-11.786"/>
          <path style="fill:#fef8ea" inkscape:connector-curvature="0" id="path9992" d="m 440.055,514.752 c 2.32,-11.007 4.325,-22.059 4.732,-33.319 0.07,-1.92 1.004,-2.431 2.669,-2.81 4.586,-1.043 8.466,0.515 10.101,4.981 2.96,8.086 2.944,16.307 -0.783,24.162 -2.773,5.846 -8.583,8.088 -16.719,6.986"/>
          <path style="fill:#fef8ea" inkscape:connector-curvature="0" id="path9994" d="m 110.502,494.443 c 0.025,-3.858 0.318,-7.612 1.93,-11.228 1.486,-3.332 4.126,-4.747 7.487,-4.863 2.971,-0.103 5.042,0.458 5.25,4.562 0.497,9.797 1.772,19.564 4.253,29.092 0.806,3.092 -0.511,3.258 -2.927,3.243 -8.508,-0.051 -14.15,-4.94 -15.546,-13.837 -0.36,-2.29 -0.309,-4.644 -0.447,-6.969"/>
          <path style="fill:#feeee1;fill-opacity:1" inkscape:connector-curvature="0" id="path9996" d="m 546.82,266.195 c 0.509,-3.92 0.535,-7.793 2.072,-11.369 1.185,-2.755 3.102,-4.582 6.306,-4.952 5.415,-0.625 6.192,0.029 6.602,5.512 0.708,9.466 2.061,18.855 4.204,28.099 0.62,2.676 -0.18,3.091 -2.554,3.109 -7.928,0.062 -13.671,-4.256 -15.498,-12.125 -0.636,-2.74 -0.779,-5.593 -1.132,-8.274"/>
          <path style="fill:#feeee1;fill-opacity:1" inkscape:connector-curvature="0" id="path9998" d="m 896.139,265.786 c -0.39,4.223 -0.356,8.396 -2.176,12.287 -2.676,5.717 -8.9,9.205 -15.082,8.523 -1.783,-0.197 -2.348,-0.769 -1.931,-2.475 2.536,-10.361 3.867,-20.903 4.552,-31.529 0.124,-1.922 1.062,-2.428 2.775,-2.707 5.231,-0.852 8.59,1.131 10.441,6.173 1.175,3.2 0.973,6.551 1.421,9.728"/>
          <path style="fill:#579cd7" inkscape:connector-curvature="0" id="path10000" d="m 618.38,515.962 c -9.689,-12.965 -11.959,-27.192 -9.068,-42.824 3.194,5.324 6.391,10.647 9.583,15.972 2.902,4.841 5.796,9.687 8.701,14.527 0.875,1.459 1.87,2.859 -0.228,4.204 -3.357,2.152 -5.97,5.191 -8.988,8.121"/>
          <path style="fill:#fefdfd" inkscape:connector-curvature="0" id="path10002" d="m 1602.29,571.174 c -5.3,13.052 -19.74,17.569 -31.05,10.203 -4.2,-2.738 -4.91,-6.77 -4.6,-11.313 0.19,-2.689 2.03,-2.101 3.62,-1.917 5.28,0.608 10.53,1.37 15.82,1.873 5.27,0.502 10.57,0.763 16.21,1.154"/>
          <path style="fill:#fefdfd" inkscape:connector-curvature="0" id="path10004" d="m 1618.27,571.084 c 11.13,-1.085 21.74,-1.532 32.14,-3.653 1.42,-0.291 1.98,0.05 2.41,1.496 1.61,5.356 -0.71,11.027 -5.89,13.35 -7.61,3.411 -14.84,3.051 -21.39,-2.611 -2.65,-2.291 -5,-4.829 -7.27,-8.582"/>
          <path style="fill:#abea8a" inkscape:connector-curvature="0" id="path10006" d="m 1106.07,509.458 c 5.49,-4.785 10.62,-8.688 10.79,-15.818 0.03,-1.396 1.08,-1.462 2.13,-1.313 0.66,0.092 1.29,0.296 1.95,0.4 15.14,2.419 15.1,2.408 11.36,17.578 -0.53,2.172 -1.39,3.238 -3.69,2.677 -0.48,-0.117 -0.99,-0.105 -1.48,-0.182 -6.66,-1.054 -13.33,-2.114 -21.06,-3.342"/>
          <path style="fill:#fdfdfd" inkscape:connector-curvature="0" id="path10008" d="m 711.875,395.137 c -3.059,12.369 -15.277,17.388 -25.73,10.698 -4.301,-2.753 -5.213,-6.981 -5.027,-11.704 0.089,-2.26 1.44,-2.258 3.066,-1.952 9.14,1.715 18.426,2.144 27.691,2.958"/>
          <path style="fill:#fdfdfd" inkscape:connector-curvature="0" id="path10010" d="m 317.939,672.113 c -6.734,-7.502 -13.469,-15.003 -20.199,-22.508 -0.33,-0.368 -0.965,-0.978 -0.875,-1.132 1.847,-3.13 5.504,-4.478 7.422,-7.665 1.065,-1.771 2.222,0.236 3.283,0.698 0.908,0.395 1.722,1.25 2.637,1.35 6.857,0.744 7.232,5.668 7.456,10.962 0.254,5.958 0.83,11.902 1.266,17.852 -0.33,0.148 -0.66,0.295 -0.99,0.443"/>
          <path style="fill:#fdfdfd" inkscape:connector-curvature="0" id="path10012" d="m 728.635,395.45 c 9.469,-0.951 18.355,-1.735 27.206,-2.807 2.285,-0.277 2.897,0.209 2.895,2.421 -0.005,4.361 -0.793,8.408 -4.877,10.711 -4.819,2.719 -9.946,3.754 -15.1,0.771 -4.398,-2.545 -7.401,-6.417 -10.124,-11.096"/>
          <path style="fill:#aad9d3;fill-opacity:1" inkscape:connector-curvature="0" id="path10014" d="m 450.707,707.039 c 3.776,6.212 7.48,12.47 11.369,18.611 1.344,2.123 0.763,3.195 -1.208,4.278 -2.898,1.592 -5.608,3.552 -8.579,4.981 -1.844,0.887 -3.797,4.39 -6.103,0.682 -1.689,-2.715 -4.327,-4.946 -0.263,-8.671 5.83,-5.345 5.79,-12.606 3.504,-19.847 0.414,-0.47 0.841,-0.482 1.28,-0.034"/>
          <path style="fill:#fdfdfd" inkscape:connector-curvature="0" id="path10016" d="m 272.022,623.713 c 7.302,0 14.522,0.07 21.738,-0.054 1.651,-0.028 2.204,0.566 1.939,1.947 -0.806,4.198 -1.17,8.706 -5.982,10.652 -4.565,1.845 -9.981,0.552 -13.147,-3.086 -2.055,-2.362 -3.321,-4.955 -4.548,-9.459"/>
          <path style="fill:#ffc5a5" inkscape:connector-curvature="0" id="path10018" d="m 682.528,534.951 c 2.713,1.678 3.565,5.037 5.227,7.728 1.251,2.025 -1.149,2.311 -2.18,2.984 -2.908,1.901 -5.93,3.629 -8.933,5.38 -3.976,2.319 -6.776,1.058 -7.238,-3.503 -0.248,-2.437 -0.263,-5.067 0.401,-7.386 0.83,-2.894 3.996,-1.4 5.981,-2.271 2.117,-0.928 4.239,-1.844 6.742,-2.932"/>
          <path style="fill:#fdfdfd" inkscape:connector-curvature="0" id="path10020" d="m 716.402,523.721 c -2.61,-2.796 -3.733,-5.89 -1.642,-9.457 1.56,-2.661 3.974,-3.931 7.068,-3.619 3.316,0.335 5.458,2.21 6.436,5.373 0.942,3.049 -0.373,5.471 -2.266,7.703 -3.197,-10e-4 -6.397,-10e-4 -9.596,0"/>
          <path style="fill:#fdfcfc" inkscape:connector-curvature="0" id="path10022" d="m 325.299,624.735 c -0.829,1.984 0.313,6.573 -4.638,7.412 -3.656,0.62 -9.38,-3.21 -10.751,-6.722 -0.86,-2.202 -0.013,-2.989 2.11,-3.211 3.61,-0.379 7.254,-0.653 10.795,-1.395 2.738,-0.573 3.269,0.369 2.484,3.916"/>
          <path style="fill:#f5f2ef" inkscape:connector-curvature="0" id="path10024" d="m 1530.29,672.232 c -3.4,-6.842 -3.4,-6.842 2,-9.596 -0.1,3.26 -0.89,6.157 -2,9.596"/>
          <path style="fill:#eee5d4" inkscape:connector-curvature="0" id="path10026" d="m 1430,742.101 c -1.29,2.149 -2.11,3.52 -3.03,5.055 -1.8,-0.842 -2.74,-2.541 -2.26,-3.857 0.78,-2.152 3,-0.97 5.29,-1.198"/>
          <path style="fill:#f2e9d9" inkscape:connector-curvature="0" id="path10028" d="m 1150.94,506.727 c -1.81,0.936 -3.22,1.665 -4.7,2.432 -1.29,-2.152 0.23,-3.803 0.2,-6.445 1.81,1.609 3.01,2.684 4.5,4.013"/>
          <path style="fill:#f2e9d9" inkscape:connector-curvature="0" id="path10030" d="m 684.756,561.616 c 1.641,-1.203 2.944,-2.447 4.885,-2.658 0.84,1.441 0.057,2.863 0.226,4.63 -1.885,0.102 -3.297,-0.725 -5.111,-1.972"/>
          <path style="fill:#f2e9d9" inkscape:connector-curvature="0" id="path10032" d="m 464.625,742.852 c 0.545,1.964 0.932,4.06 -0.259,4.87 -1.328,0.904 -2.907,-0.516 -4.465,-1.932 1.655,-1.03 3.088,-1.921 4.724,-2.938"/>
          <path style="fill:#5f7f98" inkscape:connector-curvature="0" id="path10036" d="m 1105.18,523.222 c -0.36,0.969 -1.21,0.845 -1.94,0.771 -0.61,-0.06 -1.38,-0.275 -1.21,-1.101 0.2,-1.057 1.17,-0.848 1.89,-0.784 0.6,0.053 1.26,0.255 1.26,1.114"/>
          <path style="fill:#5d83a1" inkscape:connector-curvature="0" id="path10042" d="m 310.661,686.116 c 0.362,-0.361 0.724,-0.721 1.086,-1.082 1.093,0.448 1.781,1.29 2.425,2.591 -1.704,0.481 -2.582,-0.585 -3.511,-1.509"/>
          <path style="fill:#aad9d3;fill-opacity:1" inkscape:connector-curvature="0" id="path10044" d="m 445.597,700.517 c 0.08,-0.549 0.16,-1.099 0.241,-1.648 0.9,1.393 1.8,2.785 2.7,4.178 -0.374,0.515 -0.786,0.549 -1.239,0.102 -0.814,-0.718 -1.586,-1.463 -1.702,-2.632"/>
          <path style="fill:#aad9d3;fill-opacity:1" inkscape:connector-curvature="0" id="path10048" d="m 447.299,703.149 c 0.413,-0.034 0.826,-0.068 1.239,-0.102 0.723,1.331 1.446,2.661 2.169,3.992 -0.426,0.012 -0.853,0.023 -1.28,0.034 -0.709,-1.308 -1.418,-2.616 -2.128,-3.924"/>
          <path inkscape:connector-curvature="0" style="fill:#392508;fill-opacity:1" id="path10056" d="m 1606.44,462.198 c 10.97,0 21.95,0.05 32.92,-0.025 4.21,-0.028 6.36,1.398 6.49,6.07 0.41,14.705 -1.76,28.816 -8.83,41.881 -7.22,13.336 -19.76,20.072 -33.17,18.044 -6.72,-1.017 -12.12,-4.39 -16.51,-9.431 -9.35,-10.728 -12.72,-23.823 -14.73,-37.456 -0.61,-4.141 0.91,-9.032 -4.49,-11.529 -1.45,-0.67 -1.23,-2.938 -0.52,-4.58 1.06,-2.413 3.21,-2.602 5.43,-2.637 9.97,-0.16 19.94,-0.321 29.92,-0.476 1.16,-0.018 2.32,-0.002 3.49,-0.002 0,0.047 0,0.094 0,0.141"/>
          <path inkscape:connector-curvature="0" style="fill:#392508;fill-opacity:1" id="path10058" d="m 1523.61,399.874 c 0.49,-7.126 3.04,-13.299 8.87,-17.655 4.7,-3.505 9.76,-3.007 14.07,0.957 6.61,6.091 8.77,18.436 4.58,26.303 -2.79,5.249 -9.16,8.477 -14.62,7.411 -6.38,-1.246 -12.32,-8.387 -12.89,-15.517 -0.04,-0.497 -0.01,-0.999 -0.01,-1.499"/>
          <path inkscape:connector-curvature="0" style="fill:#392508;fill-opacity:1" id="path10060" d="m 1692.62,400.983 c 0.12,4.494 -1.27,9.362 -5.67,12.833 -4.38,3.458 -9.37,4.607 -14.44,1.78 -6.13,-3.418 -9.43,-8.896 -9.39,-15.952 0.04,-6.454 2.76,-11.966 7.47,-16.331 5.24,-4.854 11.41,-4.549 16.31,0.706 4.18,4.492 5.75,9.996 5.72,16.964"/>
          <path inkscape:connector-curvature="0" style="fill:#392508;fill-opacity:1" id="path10062" d="m 1535.8,297.567 c 6.57,0.273 12.04,2.205 15.62,7.781 1.55,2.417 2.38,5.143 -0.32,7.14 -2.77,2.05 -5.1,0.994 -7.15,-1.761 -3.23,-4.351 -9.13,-5.449 -14.25,-2.6 -3.03,1.686 -5.89,2.503 -7.62,-1.01 -1.79,-3.638 0.74,-5.875 3.84,-7.41 3.2,-1.587 6.68,-1.885 9.88,-2.14"/>
          <path inkscape:connector-curvature="0" style="fill:#392508;fill-opacity:1" id="path10064" d="m 1601.14,399.314 c 0.31,-3.035 1.85,-4.915 5.01,-5.068 3.18,-0.155 7.58,5.276 7.38,9.277 -0.15,3.033 -1.84,4.907 -5.02,5.03 -3.26,0.127 -7.42,-5.152 -7.37,-9.239"/>
          <path inkscape:connector-curvature="0" style="fill:#392508;fill-opacity:1" id="path10066" d="m 1121.55,231.343 c -0.16,5.57 -1.33,10.674 -6,14.163 -4.63,3.457 -9.81,4.368 -14.86,1.265 -6.1,-3.744 -9.25,-9.515 -8.78,-16.711 0.37,-5.599 2.78,-10.562 6.77,-14.581 5.67,-5.705 12.4,-5.417 17.65,0.734 3.72,4.36 4.97,9.623 5.22,15.13"/>
          <path inkscape:connector-curvature="0" style="fill:#392508;fill-opacity:1" id="path10068" d="m 1260.8,231.571 c 0.23,5.25 -1.15,9.952 -5.21,13.457 -3.93,3.383 -8.6,4.658 -13.49,2.662 -5.98,-2.446 -9.54,-7.3 -10.47,-13.599 -1.12,-7.613 1.72,-14.14 7.24,-19.315 5.27,-4.931 11.88,-4.39 16.65,1.12 3.88,4.476 5.49,9.787 5.28,15.675"/>
          <path inkscape:connector-curvature="0" style="fill:#392508;fill-opacity:1" id="path10070" d="m 1175.95,331.629 c -8.54,0.047 -16.44,-2.088 -23.57,-6.873 -2.92,-1.958 -4.92,-4.476 -2.61,-7.892 2.27,-3.368 5.18,-2.455 8.25,-0.602 12.45,7.515 24.83,7.52 36.9,-0.92 2.81,-1.967 5.58,-2.66 7.86,0.335 2.29,3.001 0.91,5.606 -1.75,7.708 -7.36,5.805 -15.82,8.23 -25.08,8.244"/>
          <path inkscape:connector-curvature="0" style="fill:#392508;fill-opacity:1" id="path10072" d="m 1094.99,118.612 c 7.45,-0.142 11.56,2.318 14.61,6.646 1.65,2.337 1.68,4.75 -0.71,6.588 -2.15,1.662 -4.25,1.148 -6.21,-0.719 -4.96,-4.743 -10.44,-4.298 -14.38,1.423 -1.97,2.864 -4.03,4.73 -7.22,2.388 -3.14,-2.307 -2.08,-5.341 -0.17,-7.872 4.01,-5.299 9.41,-8.169 14.08,-8.454"/>
          <path inkscape:connector-curvature="0" style="fill:#392508;fill-opacity:1" id="path10074" d="m 1181.63,236.102 c -0.16,2.201 -1.77,3.917 -4.95,3.973 -3.29,0.058 -7.32,-5.094 -7.18,-9.267 0.11,-3.15 1.79,-4.849 5,-4.883 3.46,-0.036 7.23,4.857 7.13,10.177"/>
          <path inkscape:connector-curvature="0" style="fill:#423524;fill-opacity:1" id="path10076" d="m 183.668,408.02 c -1.035,-3.663 0.111,-6.37 3.281,-8.529 30.078,-20.497 49.071,-49.643 63.855,-82.053 0.621,-1.362 1.134,-2.773 1.783,-4.12 1.78,-3.694 4.722,-5.314 8.57,-3.707 3.869,1.616 4.885,5.033 3.38,8.73 -2.443,6.003 -5.036,11.972 -8.003,17.73 -12.456,24.166 -27.951,46.062 -48.605,64.02 -4.501,3.359 -8.901,6.867 -13.532,10.039 -4.789,3.28 -7.086,2.698 -10.729,-2.11"/>
          <path inkscape:connector-curvature="0" style="fill:#392508;fill-opacity:1" id="path10078" d="m 225.839,454.13 c -1.142,2.632 0.483,4.587 2.235,6.744 6.485,7.989 6.659,17.781 0.636,24.609 -7.005,7.94 -18.822,5.628 -22.388,-4.381 -3.668,-10.293 0.959,-21.348 10.875,-25.489 1.995,-0.832 2.35,-2.143 2.371,-3.845 0.031,-2.406 -0.081,-5.145 3.22,-5.07 3.682,0.083 3.109,3.152 3.131,5.608 0.004,0.498 -0.042,0.997 -0.08,1.824"/>
          <path inkscape:connector-curvature="0" style="fill:#392508;fill-opacity:1" id="path10080" d="m 355.856,453.548 c -1.162,2.652 0.643,4.427 2.569,6.469 6.042,6.405 7.383,15.177 3.661,22.052 -3.369,6.223 -8.622,9.087 -14.649,7.987 -5.798,-1.058 -9.987,-5.973 -10.841,-12.721 -1.236,-9.776 2.366,-17.23 10.625,-21.43 1.631,-0.829 2.179,-1.948 2.296,-3.473 0.2,-2.582 -0.52,-5.773 3.577,-5.771 2.289,0.002 3.006,1.893 2.762,6.887"/>
          <path inkscape:connector-curvature="0" style="fill:#392508;fill-opacity:1" id="path10082" d="m 283.572,559.596 c -8.245,-0.112 -17.517,-1.549 -25.936,-6.527 -3.342,-1.976 -6.173,-4.503 -8.135,-7.908 -1.404,-2.437 -0.828,-4.522 1.359,-6.086 2.087,-1.491 4.052,-0.946 5.834,0.749 12.328,11.731 35.226,14.492 49.942,6.008 2.176,-1.255 4.054,-2.834 5.445,-5.016 1.678,-2.634 4.096,-3.585 6.76,-1.595 2.651,1.979 2.244,4.512 0.545,7.042 -3.826,5.697 -9.525,8.649 -15.787,10.678 -6.055,1.963 -12.333,2.619 -20.027,2.655"/>
          <path inkscape:connector-curvature="0" style="fill:#392508;fill-opacity:1" id="path10084" d="m 369.72,379.327 c -0.242,1.951 -1.019,3.313 -2.689,4.105 -1.76,0.834 -3.369,0.376 -4.555,-0.909 -1.58,-1.713 -2.981,-3.536 -5.194,-4.547 -3.151,-1.44 -6.087,-1.739 -8.54,1.236 -2.013,2.443 -4.444,3.237 -6.854,0.997 -2.517,-2.34 -1.251,-4.854 0.608,-7.039 6.682,-7.852 22.622,-5.189 26.636,4.44 0.253,0.606 0.428,1.245 0.588,1.717"/>
          <path inkscape:connector-curvature="0" style="fill:#392508;fill-opacity:1" id="path10086" d="m 293.585,473.17 c 0.091,3.912 -3.746,9.339 -6.484,9.33 -3.036,-0.009 -5.005,-1.535 -5.171,-4.751 -0.191,-3.718 3.463,-8.718 6.461,-8.837 3.195,-0.127 4.825,1.62 5.194,4.258"/>
          <path inkscape:connector-curvature="0" style="fill:#392508;fill-opacity:1" id="path10088" d="m 772.483,246.107 c 0.191,-5.783 1.573,-10.019 4.515,-13.185 2.681,-2.886 3.202,-5.703 2.67,-9.319 -0.35,-2.373 -0.692,-5.417 3.037,-5.601 3.498,-0.173 3.151,2.555 3.247,4.909 0.095,2.346 1.098,3.489 3.682,4.359 7.431,2.499 9.764,8.959 10.56,16.012 0.704,6.226 -0.51,11.956 -6.051,15.849 -4.135,2.905 -8.62,3.485 -13.098,0.928 -5.843,-3.338 -8.425,-8.643 -8.562,-13.952"/>
          <path inkscape:connector-curvature="0" style="fill:#392508;fill-opacity:1" id="path10090" d="m 641.612,244.961 c -0.071,-5.068 1.747,-9.579 5.138,-13.136 2.373,-2.49 3.555,-4.802 2.962,-8.263 -0.413,-2.409 -0.618,-5.436 3.1,-5.552 3.497,-0.11 3.022,2.669 3.187,5.007 0.139,1.963 0.686,3.369 3.074,4.384 10.093,4.287 13.714,21.407 6.44,29.611 -3.619,4.082 -8.321,5.74 -13.538,3.949 -6.038,-2.074 -9.107,-6.931 -10.336,-13.012 -0.194,-0.959 -0.027,-1.99 -0.027,-2.988"/>
          <path inkscape:connector-curvature="0" style="fill:#392508;fill-opacity:1" id="path10092" d="m 721.631,331.872 c -8.31,-0.471 -16.245,-1.958 -21.961,-8.829 -2.104,-2.529 -4.131,-5.54 -0.865,-8.285 3.195,-2.687 5.468,-0.587 7.734,2.276 6.546,8.275 24.759,7.742 31.175,-0.809 1.928,-2.57 4.132,-3.526 6.786,-1.78 2.817,1.853 2.352,4.501 0.74,7.015 -4.941,7.703 -12.829,9.472 -21.114,10.4 -0.822,0.092 -1.663,0.012 -2.495,0.012"/>
          <path inkscape:connector-curvature="0" style="fill:#392508;fill-opacity:1" id="path10094" d="m 635.555,153.272 c -0.166,-4.632 5.433,-11.034 11.522,-13.176 5.489,-1.93 12.307,-0.493 15.181,3.18 1.387,1.773 1.655,3.64 0.276,5.476 -1.425,1.899 -3.445,1.868 -5.414,1.111 -7.525,-2.892 -9.415,-2.324 -13.353,4.703 -1.236,2.206 -2.783,3.224 -5.222,2.696 -2.094,-0.453 -3.027,-1.884 -2.99,-3.99"/>
          <path inkscape:connector-curvature="0" style="fill:#392508;fill-opacity:1" id="path10096" d="m 725.188,249.362 c -0.309,2.868 -2.161,4.493 -5.209,4.466 -2.793,-0.024 -6.607,-5.444 -6.397,-8.968 0.187,-3.156 2.029,-4.81 5.161,-4.72 2.836,0.082 6.568,5.394 6.445,9.222"/>
          <path style="fill:#fdfdfd" inkscape:connector-curvature="0" id="path10098" d="m 1600.59,698.706 c -0.06,4.05 -3.19,7.236 -7.17,7.307 -4.08,0.074 -7.72,-3.522 -7.62,-7.535 0.1,-3.894 3.48,-7.248 7.36,-7.302 4.2,-0.059 7.5,3.287 7.43,7.53"/>
          <path style="fill:#fdfdfe" inkscape:connector-curvature="0" id="path10100" d="m 1591.67,734.147 c -4.23,0.039 -7.3,-2.873 -7.44,-7.058 -0.14,-4.199 3.28,-7.672 7.48,-7.599 4.12,0.072 7.04,3.147 7.02,7.402 -0.02,4.45 -2.71,7.214 -7.06,7.255"/>
          <path style="fill:#6e4300" inkscape:connector-curvature="0" id="path10102" d="m 726.866,599.562 c 10e-4,6.331 0.074,12.663 -0.022,18.992 -0.076,4.95 -2.588,7.735 -6.718,7.451 -4.52,-0.311 -6.272,-3.15 -6.267,-7.415 0.013,-12.661 -0.04,-25.323 0.029,-37.984 0.023,-4.381 2.757,-7.333 6.474,-7.362 3.701,-0.03 6.397,2.872 6.475,7.327 0.112,6.328 0.029,12.661 0.029,18.991"/>
          <path style="fill:#fdfdfd" inkscape:connector-curvature="0" id="path10104" d="m 728.543,490.06 c -0.241,3.998 -3.59,7.082 -7.576,6.975 -4.14,-0.111 -7.479,-3.737 -7.229,-7.851 0.248,-4.091 4.048,-7.357 8.108,-6.966 3.964,0.381 6.937,3.863 6.697,7.842"/>
          <path style="fill:#6e4100" inkscape:connector-curvature="0" id="path10106" d="m 1176.81,600.74 c 0,5.975 -0.1,11.952 0.03,17.924 0.1,4.275 -2.06,6.572 -6.02,7.134 -3.6,0.513 -6.89,-2.58 -6.95,-6.832 -0.16,-12.114 -0.15,-24.233 -0.01,-36.347 0.05,-4.539 2.72,-7.107 6.66,-7.068 3.96,0.039 6.22,2.582 6.28,7.264 0.06,5.974 0.01,11.95 0.01,17.925"/>
          <path style="fill:#fefefe" inkscape:connector-curvature="0" id="path10108" d="m 1636.83,476.809 c -0.98,11.354 -3.08,22.07 -9.39,31.47 -10.34,15.404 -27.53,15.014 -37.12,-0.812 -6.09,-10.063 -8.28,-21.245 -9.24,-32.784 -0.2,-2.452 0.66,-3.083 3.03,-3.161 16.64,-0.545 33.27,-0.748 49.92,-0.498 5.68,0.086 1.28,4.307 2.8,5.785"/>
        </g>
      </g>
    </g>
  </g>
</svg>