<?xml version="1.0" encoding="UTF-8" standalone="no"?>
<!-- Created with Inkscape (http://www.inkscape.org/) -->
<svg xmlns:inkscape="http://www.inkscape.org/namespaces/inkscape" xmlns:rdf="http://www.w3.org/1999/02/22-rdf-syntax-ns#" xmlns="http://www.w3.org/2000/svg" xmlns:cc="http://creativecommons.org/ns#" xmlns:dc="http://purl.org/dc/elements/1.1/" xmlns:sodipodi="http://sodipodi.sourceforge.net/DTD/sodipodi-0.dtd" xmlns:svg="http://www.w3.org/2000/svg" xmlns:ns1="http://sozi.baierouge.fr" xmlns:xlink="http://www.w3.org/1999/xlink" id="svg7552" sodipodi:docname="play.svg" xml:space="preserve" viewBox="0 0 297.1 271.38" sodipodi:version="0.32" version="1.0" inkscape:output_extension="org.inkscape.output.svg.inkscape" inkscape:version="0.46dev+devel">
  <sodipodi:namedview id="base" bordercolor="#666666" inkscape:pageshadow="2" guidetolerance="10.0" pagecolor="#ffffff" gridtolerance="10.0" inkscape:zoom="1" objecttolerance="10.0" borderopacity="1.0" inkscape:current-layer="g7559" inkscape:cx="270" inkscape:cy="205" inkscape:window-y="69" inkscape:window-x="69" inkscape:window-height="646" showgrid="false" inkscape:pageopacity="0.0" inkscape:window-width="640"/>
  <g id="g7559" inkscape:label="guide" inkscape:groupmode="layer" transform="matrix(1.25 0 0 -1.25 -21.101 792.61)">
    <g id="g7856" transform="matrix(2.3134 0 0 2.3134 -80.486 -551.49)">
      <path id="path7597" style="fill:#fcd09b" d="m55.292 498.9c-0.494-1.49-13.203-58.51-13.203-58.51l92.041-18.84 0.99 68.92-79.828 8.43"/>
      <path id="path7623" style="fill:#1f57af" d="m113.71 505.29c1.53-4.32 0.7-9.48-2.93-12.58-2.93-2.54-7.04-3.46-10.929-2.41-3.539 0.92-7.124 4.37-7.867 8-1.092 4.63 0.48 9.4 4.502 12.24 3.191 2.18 8.044 2.62 11.544 0.87 2.4-1.27 4.71-3.62 5.68-6.12"/>
      <path id="path7625" style="fill:#8495d3" d="m106.76 510.36c-4.85-1.7-9.575-5.15-12.983-9.66 0 3.59 1.573 7 4.807 8.79 2.226 1.53 5.596 1.53 8.176 0.87"/>
      <path id="path7627" style="fill:#fcd09b" d="m112.74 503.94c-5.02-2.71-10.09-6.56-13.412-11.63-2.317 1.05-4.371 3.5-5.028 5.86 2.842 5.29 8.35 9.96 13.94 11.45 2.32-1 3.89-3.45 4.5-5.68"/>
      <path id="path7629" style="fill:#ffffff" d="m95.656 509.1l-0.742-0.75 0.742 0.75"/>
      <path id="path7631" style="fill:#8495d3" d="m113.05 501.84c-0.43-0.17 0-0.57 0-0.74-0.13-3.06-1.35-5.86-3.97-7.74-2.28-1.75-5.6-2.14-8.4-1.48 2.89 4.67 7.78 8.17 12.2 10.92 0.17-0.17 0.22-0.61 0.17-0.96"/>
      <path id="path7633" style="fill:#1f57af" d="m58.722 495.02c-0.043-0.83 1.007-0.96 1.27-1.66 0.349-0.61 0.523-1.27 1.049-1.79 0.742 1.14 1.923 2.36 3.364 2.01 0-0.61-0.742-0.87-1.05-1.49-0.785-1.22-1.791-2.44-1.703-3.89 1.66-5.5 2.36-11.49 6.949-15.73 0.568 0.7 2.142 0.61 1.88 1.7l-0.219 0.18h0.131c0.218 0.48-0.393 0.92-0.743 1.18-0.393-0.04-0.742 0.17-0.831 0.52 0.045 0.4-0.086 0.7-0.349 0.92-0.088 0.04-0.131-0.04-0.174-0.09v-0.3c-1.444 0.26-1.313 1.96-1.792 3.01-0.614 2.36 1.574 4.02 3.234 5.25 1.836 1.05 4.282 0.48 5.769-0.83 0.874 0.39 1.53 1.22 2.405 1.48 0-0.91-0.875-1.79-1.662-2.53 0.087-1.14 1.355-1.14 2.097-1.57-1.615-1.8 1.138-4.55-1.572-5.64-0.918-0.13-1.618-0.97-2.186-1.71 0.83-0.7 1.967-1.13 3.016-1.57 2.098 0.87 4.108 1.88 6.074 2.93 2.362 3.1 2.448 7.12 4.547 10.31 0.656 0.35 1.181 1.01 1.966 1.05 0.7-0.44 0.219-0.96-0.086-1.4 1.703 0.09 3.452 0.66 5.025 1.4 0.525 0.13 1.138-0.22 1.574-0.52-1.879-1.8-3.147-3.59-5.463-4.33-0.7-3.37-1.093-6.86-1.66-10.27-3.541-2.01-7.388-3.32-11.016-5.16-0.262-3.93 0.438-8.78 0.22-12.68-0.351-0.17-0.657 0.4-0.874-0.08l6.949-5.77c-1.838-2.1 2.141-2.84 2.314-4.72 0.176-1.05 0.176-2.54-0.434-3.5-1.837-2.88-3.936-5.64-5.857-8.48 0.699-0.43 1.748-0.39 2.403-1.13 0.392-0.66 0.918-1.36 0.742-2.1-2.621 0.09-5.463 0.39-7.692 1.75 1.967 3.45 2.754 7.39 5.464 10.49-0.481 0.78-1.573 1.4-1.792 2.23-0.351 0.26-0.787-0.22-0.918-0.53-2.491 1.71-5.071 4.33-7.474 6.6l-0.087-0.08c-0.131 0.17-0.351 0.17-0.525 0.3l-0.088-0.13 0.176-0.17c-1.705-3.11-3.322-6.34-4.589-9.45-2.361 0.75-2.186-2.75-3.978-3.67-1.399-0.39-2.447 0.48-3.147 1.36-2.01 1.48-3.801 3.54-5.901 4.8l-0.305-0.3c-2.055-0.05-4.065-0.26-5.989-0.61v1.97l5.682 3.45c2.229-1.49 4.459-3.28 6.687-4.51 0.306-0.3 0.962-0.61 1.488-0.83l0.436 0.53c-0.524 0.39-1.048 1.27-1.573 1.48 0.306 1.23 1.049 2.28 1.354 3.54 0.7 2.54 2.361 4.64 3.017 7.13l-1.356 0.65c0.873 3.85 2.536 7.39 3.278 11.32-0.656 0.14 0.045 0.53-0.349 0.84-2.448 2.93-4.764 6.07-6.905 9.22-0.482 4.19-1.27 8.65-0.963 12.8 0.395 0.18 0.918-0.04 1.18 0.31-0.743 1.22-1.703 2.36-1.879 3.8 0.481 0.92-0.743 4.55 1.441 2.71"/>
      <path id="path7635" style="stroke:#f9a749;stroke-dasharray:5, 4;fill:none" d="m103.1 488.08s-1.1-39.92-23.44-68.84c0 0 37.72 21.96 58.59 2.19"/>
      <path id="path7637" style="fill:#1f57af" d="m126.16 487.59c1.01-0.87 1.1-2.1 1.18-3.36 0.84-1.27 1.66-1.74 3.1-1.52 0-0.74-0.39-0.36-1-0.89-0.92-0.22-1.53 0.26-2.23 0.62-0.39-0.79-0.09-1.8 0.13-2.63 0.22-0.35 0.62-0.39 0.92-0.52 0.57 0.26 0.13 1.13 0.96 0.96 0.44-0.61 1.01-1.53 0.31-2.23-1.62-0.74-3.19-2.23-5.11-1.57-0.4 0-0.75-0.18-1.05-0.4 1.22-0.96 3.23-1.35 3.75-2.93l3.68-3.67c2.23 1.62 4.67 2.89 6.73 4.72l0.39 2.8c0.48 0.26 0.96 0.04 1.36-0.17l0.74-1.27c1.22 0.79 2.8 1.4 4.33 0.83 0.3-0.22 0.65-0.74 0.39-1.14-1.36-1.61-2.93-3.14-4.81-3.67-0.7-0.39 0.31-0.87 0-1.49-3.01-1.7-5.55-4.67-8.52-6.51-1.57-0.74-2.67 0.88-4.07 1.18-1.09 0.7-2.31 1.1-3.45 1.66 0.13-3.32 0.79-6.68 1.88-9.74-0.13-0.48-0.65-0.88-1.05-1.18 0.92-3.46 2.71-6.56 3.54-10.06 0.31-0.13 0.66 0.22 1.05 0.09 0.09-0.3 0.79-0.61 0.22-0.92-0.96-1-2.36-0.96-3.23-2.09 0.17-0.71 0.34-1.62 1.26-1.71 3.06 0 6.25-0.3 8.92-1.66 1.09 0.48 2.58 1.4 3.76 0.44 0.61-0.61 0.61-1.45 0.74-2.23 0.66-1.79 2.1-4.46 0.22-6.16-2.49 0.43-2.67 3.45-4.94 4.5-4.5-0.22-8.96 0.3-13.33 0.74-2.58-0.09-1.57 4.81-4.28 2.8-2.1-0.26-4.42-0.35-6.52-0.31-0.83-1.74-2.97-3.1-2.84-5.11 0.62-2.62 0.97-5.33 0.97-8.22 1.13-0.96 1.61-2.49 1.22-3.85-2.62-1.79-5.55-3.53-8.92-2.97-0.43 0.05-0.87 0.48-1.14 0.74 0.79 2.71 5.08 3.02 4.51 6.21-0.96 3.94-4.15 7.17-2.93 11.76l2.54 4.2c-0.36 0.83-1.4-0.09-1.27 0.92 1.22 0 0.87 1.39 1.44 2 1.66 2.32 2.62 4.9 3.89 7.35l-0.92 0.08c0.18 3.41 1.36 6.95 0.61 10.63-1.44-1.4-1.22-3.98-3.36-4.64-4.02-0.61-8.133 0.26-10.799 3.15-1.704 0.09-4.283-0.48-4.939 1.57-0.654 0.48-1.18 1.4-1.268 2.1 1.093 0.31 2.405-0.18 3.671 0 2.231-0.13 0.395 3.02 2.449 3.06 0.7-1.14 1.048-2.58 1.879-3.58 0.787 1.09 1.836-0.27 2.711-0.44 1.136-0.35 2.626-0.44 3.806-0.09 3.23 3.37 4.15 7.87 6.6 11.63 0.91 2.14 3.41 1.05 4.8 2.23 1.05 0.43 2.54 1.05 2.62 2.4 0.09 1.01-1.22 0.66-1.57 1.27-1.48 0.96-0.21 2.18-0.31 3.45 1.23 0.61-0.96 2.32 0.84 2.62 2.79-0.17 4.98 3.02 7.65 1.27 0.91 0.13 1.48-0.57 2.09-1.05"/>
      <path id="path7639" style="fill:#1f57af" d="m117.5 491.23s0.27-6.62 13.85-11.21c0 0 0.8 1.53 0.8 2.3 0 0-10.12 4.58-11.98 8.91 0 0-1.87 1.53-2.67 0"/>
      <path id="path7641" style="fill:#1f57af" d="m121.41 489.06s2.68 1.7 5.86-0.49c0 0 3.9-2.2 0.24-5.62l-6.1 6.11"/>
    </g>
  </g>
<metadata><rdf:RDF><cc:Work><dc:format>image/svg+xml</dc:format><dc:type rdf:resource="http://purl.org/dc/dcmitype/StillImage"/><cc:license rdf:resource="http://creativecommons.org/licenses/publicdomain/"/><dc:publisher><cc:Agent rdf:about="http://openclipart.org/"><dc:title>Openclipart</dc:title></cc:Agent></dc:publisher><dc:title>Children Playing</dc:title><dc:date>2007-11-09T04:58:43</dc:date><dc:description>an image from the US government EPA "Sunwise" program. I converted it from PDF format, and removed all the "sunwise" logos. the source link is here - http://www.epa.gov/sunwise/doc/guide.pdf</dc:description><dc:source>https://openclipart.org/detail/8054/children-playing-by-ryanlerch</dc:source><dc:creator><cc:Agent><dc:title>ryanlerch</dc:title></cc:Agent></dc:creator><dc:subject><rdf:Bag><rdf:li>ball</rdf:li><rdf:li>boy</rdf:li><rdf:li>child</rdf:li><rdf:li>epa</rdf:li><rdf:li>epa sunwise</rdf:li><rdf:li>externalsource</rdf:li><rdf:li>girl</rdf:li><rdf:li>kids</rdf:li><rdf:li>play</rdf:li></rdf:Bag></dc:subject></cc:Work><cc:License rdf:about="http://creativecommons.org/licenses/publicdomain/"><cc:permits rdf:resource="http://creativecommons.org/ns#Reproduction"/><cc:permits rdf:resource="http://creativecommons.org/ns#Distribution"/><cc:permits rdf:resource="http://creativecommons.org/ns#DerivativeWorks"/></cc:License></rdf:RDF></metadata></svg>