<?xml version="1.0" encoding="UTF-8" standalone="no"?>
<!-- Generator: Adobe Illustrator 13.0.2, SVG Export Plug-In . SVG Version: 6.00 Build 14948)  -->
<svg xmlns:dc="http://purl.org/dc/elements/1.1/" xmlns:inkscape="http://www.inkscape.org/namespaces/inkscape" xmlns:xlink="http://www.w3.org/1999/xlink" xmlns:sodipodi="http://inkscape.sourceforge.net/DTD/sodipodi-0.dtd" xmlns:cc="http://web.resource.org/cc/" xmlns:rdf="http://www.w3.org/1999/02/22-rdf-syntax-ns#" xmlns="http://www.w3.org/2000/svg" xmlns:svg="http://www.w3.org/2000/svg" xmlns:ns1="http://sozi.baierouge.fr" id="svg2" xml:space="preserve" viewBox="-4.718 167.7 576.61 548.292" sodipodi:docbase="/home/petri/Desktop/Omat Open ClipArt kuvat" style="enable-background:new -4.718 167.7 576.61 548.292" inkscape:export-ydpi="50.415062" inkscape:export-xdpi="50.415062" version="1.1" sodipodi:docname="ABC_Block.svg" inkscape:export-filename="/home/petri/Desktop/Omat Open ClipArt kuvat/ABC_Block.png" inkscape:version="0.41" sodipodi:version="0.32" y="0px" x="0px">
<sodipodi:namedview id="base" bordercolor="#666666" inkscape:window-x="0" inkscape:window-y="26" pagecolor="#ffffff" inkscape:zoom="0.60938539" inkscape:pageshadow="2" borderopacity="1.0" inkscape:current-layer="g1370" inkscape:cx="423.07622" inkscape:cy="509.54269" inkscape:window-height="691" showborder="false" inkscape:pageopacity="0.0" inkscape:window-width="1024" inkscape:document-units="px">
	</sodipodi:namedview>
<g id="layer1" inkscape:label="Layer 1" inkscape:groupmode="layer">
	<g id="g1370" inkscape:label="Layer 1" inkscape:groupmode="layer" transform="translate(-459.9 -181.94)">
			<linearGradient id="rect1291_1_" y2="492.11" gradientUnits="userSpaceOnUse" x2="414.69" gradientTransform="matrix(.9989 0 0 -1.0011 47.596 1282.4)" y1="492.11" x1="408.06">
			<stop style="stop-color:#CDB16A" offset="0"/>
			<stop style="stop-color:#AD9D5F" offset=".0944"/>
			<stop style="stop-color:#B7A154" offset=".1416"/>
			<stop style="stop-color:#C28947" offset=".1652"/>
			<stop style="stop-color:#C9AC46" offset=".1888"/>
			<stop style="stop-color:#C0891F" offset=".1888"/>
			<stop style="stop-color:#BA883A" offset=".1888"/>
			<stop style="stop-color:#BDA976" offset=".1888"/>
			<stop style="stop-color:#C5AD4A" offset=".7132"/>
			<stop style="stop-color:#CDA955" offset=".7263"/>
			<stop style="stop-color:#D5AD43" offset=".7263"/>
			<stop style="stop-color:#D7A13C" offset=".7394"/>
			<stop style="stop-color:#B5955B" offset=".7525"/>
			<stop style="stop-color:#BEB459" offset=".7656"/>
			<stop style="stop-color:#B8A46C" offset=".8173"/>
			<stop style="stop-color:#A39E35" offset=".869"/>
			<stop style="stop-color:#A8A056" offset="1"/>
		</linearGradient>
		<rect id="rect1291" style="fill:url(#rect1291_1_)" height="215.66" width="215.18" y="681.93" x="455.21"/>
			<linearGradient id="rect1293_1_" y2="113.92" gradientUnits="userSpaceOnUse" x2="779.9" gradientTransform="matrix(1.5188 .0028 .5171 -.4075 -703.19 688.55)" y1="119.42" x1="768.13">
			<stop style="stop-color:#CDB16A" offset="0"/>
			<stop style="stop-color:#AD9D5F" offset=".0944"/>
			<stop style="stop-color:#B7A154" offset=".1416"/>
			<stop style="stop-color:#C28947" offset=".1652"/>
			<stop style="stop-color:#C9AC46" offset=".1888"/>
			<stop style="stop-color:#C0891F" offset=".1888"/>
			<stop style="stop-color:#BA883A" offset=".1888"/>
			<stop style="stop-color:#BDA976" offset=".1888"/>
			<stop style="stop-color:#C5AD4A" offset=".7132"/>
			<stop style="stop-color:#CDA955" offset=".7263"/>
			<stop style="stop-color:#D5AD43" offset=".7263"/>
			<stop style="stop-color:#D7A13C" offset=".7394"/>
			<stop style="stop-color:#B5955B" offset=".7525"/>
			<stop style="stop-color:#BEB459" offset=".7656"/>
			<stop style="stop-color:#B8A46C" offset=".8173"/>
			<stop style="stop-color:#A39E35" offset=".869"/>
			<stop style="stop-color:#A8A056" offset="1"/>
		</linearGradient>
		<polygon id="rect1293" style="fill:url(#rect1293_1_)" points="528.47 624.19 743.7 624.59 670.41 682.35 455.18 681.95"/>
			<linearGradient id="rect1295_1_" y2="528.35" gradientUnits="userSpaceOnUse" x2="864.96" gradientTransform="matrix(-.000033259 1.5124 -.5202 .4082 1017.5 -806.72)" y1="508.59" x1="861.95">
			<stop style="stop-color:#CDB16A" offset="0"/>
			<stop style="stop-color:#AD9D5F" offset=".0944"/>
			<stop style="stop-color:#B7A154" offset=".1416"/>
			<stop style="stop-color:#C28947" offset=".1652"/>
			<stop style="stop-color:#C9AC46" offset=".1888"/>
			<stop style="stop-color:#C0891F" offset=".1888"/>
			<stop style="stop-color:#BA883A" offset=".1888"/>
			<stop style="stop-color:#BDA976" offset=".1888"/>
			<stop style="stop-color:#C5AD4A" offset=".7132"/>
			<stop style="stop-color:#CDA955" offset=".7263"/>
			<stop style="stop-color:#D5AD43" offset=".7263"/>
			<stop style="stop-color:#D7A13C" offset=".7394"/>
			<stop style="stop-color:#B5955B" offset=".7525"/>
			<stop style="stop-color:#BEB459" offset=".7656"/>
			<stop style="stop-color:#B8A46C" offset=".8173"/>
			<stop style="stop-color:#A39E35" offset=".869"/>
			<stop style="stop-color:#A8A056" offset="1"/>
		</linearGradient>
		<polygon id="rect1295" style="fill:url(#rect1295_1_)" points="669.75 682.56 669.75 897.69 743.74 839.63 743.75 624.5"/>
		<path id="rect2844" style="fill:#009815" d="m481.36 692.05c-8.612 0-15.562 6.918-15.562 15.531v161.06c0 8.611 6.95 15.531 15.562 15.531h162.91c8.612 0 15.562-6.92 15.562-15.531v-161.06c0-8.613-6.95-15.531-15.562-15.531h-162.91zm15.54 17.09h129.97c8.612 0 15.562 6.918 15.562 15.531v126.25c0 8.611-6.95 15.531-15.562 15.531h-129.97c-8.612 0-15.531-6.92-15.531-15.531v-126.25c-0.01-8.61 6.91-15.53 15.53-15.53z"/>
			<linearGradient id="rect4707_1_" y2="-404.12" gradientUnits="userSpaceOnUse" x2="1352.3" gradientTransform="matrix(1.5188 .0028 .5171 -.4075 -1340.3 482.83)" y1="-403.68" x1="1345.8">
			<stop style="stop-color:#CDB16A" offset="0"/>
			<stop style="stop-color:#AD9D5F" offset=".0944"/>
			<stop style="stop-color:#B7A154" offset=".1416"/>
			<stop style="stop-color:#C28947" offset=".1652"/>
			<stop style="stop-color:#C9AC46" offset=".1888"/>
			<stop style="stop-color:#C0891F" offset=".1888"/>
			<stop style="stop-color:#BA883A" offset=".1888"/>
			<stop style="stop-color:#BDA976" offset=".1888"/>
			<stop style="stop-color:#C5AD4A" offset=".7132"/>
			<stop style="stop-color:#CDA955" offset=".7263"/>
			<stop style="stop-color:#D5AD43" offset=".7263"/>
			<stop style="stop-color:#D7A13C" offset=".7394"/>
			<stop style="stop-color:#B5955B" offset=".7525"/>
			<stop style="stop-color:#BEB459" offset=".7656"/>
			<stop style="stop-color:#B8A46C" offset=".8173"/>
			<stop style="stop-color:#A39E35" offset=".869"/>
			<stop style="stop-color:#A8A056" offset="1"/>
		</linearGradient>
		<polygon id="rect4707" style="fill:url(#rect4707_1_)" points="528.47 624.19 743.7 624.59 670.41 682.35 455.18 681.95"/>
		<path id="path3607" style="fill:#009815" d="m546.3 630.18c-8.499 0-17.315 1.635-19.751 3.668l-45.562 38.039c-2.436 2.033 2.465 3.668 10.964 3.668h160.76c8.499 0 17.315-1.635 19.751-3.668l45.562-38.039c2.437-2.033-2.465-3.668-10.964-3.668h-160.76zm10.49 4.04h128.26c8.499 0 13.4 1.635 10.964 3.668l-35.71 29.81c-2.437 2.035-11.252 3.668-19.751 3.668h-128.26c-8.499 0-13.369-1.633-10.933-3.668l35.714-29.816c2.44-2.03 11.22-3.66 19.72-3.66z"/>
		<path id="path1305" style="fill:#009815" d="m679.06 701.19c-0.018-8.676 2.062-17.318 4.671-19.361l48.776-38.215c2.607-2.043 4.718 3.316 4.736 11.992l0.342 164.09c0.019 8.676-2.062 17.316-4.671 19.361l-48.776 38.213c-2.608 2.045-4.718-3.314-4.736-11.99l-0.34-164.09zm5.21 11.59l0.272 130.91c0.019 8.674 2.129 14.033 4.736 11.99l38.234-29.955c2.608-2.043 4.688-10.686 4.671-19.359l-0.273-130.91c-0.018-8.676-2.128-14.002-4.736-11.959l-38.233 29.955c-2.6 2.05-4.69 10.66-4.67 19.34z"/>
		<g style="enable-background:new">
			<path style="fill:#009815" d="m532.9 803.77c-1.481 3.494-10.554 26.288-10.554 31.612 0 3.661 1.667 7.654 7.221 7.654h6.48c1.852 0 2.037 0.665 2.037 1.331v3.66c0 1.331-0.185 1.83-1.667 1.83-2.407 0-9.998-0.499-25.18-0.499-13.516 0-17.589 0.499-20.182 0.499-1.111 0-1.296-0.998-1.296-2.163v-3.161c0-0.998 0.185-1.497 1.296-1.497h4.814c4.444 0 8.887-2.33 12.59-7.321 2.592-3.494 15.738-32.444 21.848-47.086 1.481-3.327 16.479-39.1 18.145-43.592 0.556-1.664 1.481-3.827 0.185-5.657-0.555-0.665-1.296-1.497-1.296-2.163 0-0.499 0.371-1.164 1.852-1.497 5.925-1.165 17.959-5.49 20.737-8.319 0.926-0.832 1.481-1.497 2.407-1.497 1.111 0 1.481 0.998 2.037 2.828 3.518 10.482 17.959 47.752 21.477 58.4 4.259 12.978 16.293 43.925 18.885 48.417 3.148 5.49 7.962 7.487 10.739 7.487h6.295c1.111 0 1.296 0.665 1.296 1.497v3.161c0 0.998-0.185 2.163-1.667 2.163-3.518 0-7.406-0.499-31.105-0.499-15.368 0-21.848 0.499-25.551 0.499-1.852 0-2.037-0.998-2.037-2.163v-3.161c0-0.832 0.185-1.497 1.111-1.497h5.184c4.999 0 6.666-1.664 5.555-5.99-1.667-5.989-8.887-27.286-11.109-33.276h-40.55zm38.88-6.65c-1.667-4.991-12.59-39.932-13.886-44.091-0.741-2.496-1.111-3.66-2.037-3.66-1.111 0-1.667 0.665-2.222 2.163-0.926 2.162-16.849 41.429-18.33 45.588h36.48z"/>
		</g>
		<g style="enable-background:new">
			<path style="fill:#009815" d="m565.2 654.56c-2.412 0.754-17.562 5.67-18.981 6.818-0.976 0.789-0.374 1.65 5.181 1.65h6.48c1.852 0 1.86 0.144 1.683 0.287l-0.976 0.789c-0.354 0.287-0.674 0.395-2.154 0.395-2.408 0-9.866-0.107-25.048-0.107-13.516 0-17.724 0.107-20.315 0.107-1.109 0-1.028-0.215-0.718-0.466l0.843-0.682c0.266-0.216 0.584-0.323 1.693-0.323h4.814c4.443 0 9.508-0.503 14.542-1.579 3.522-0.753 24.388-6.997 34.4-10.154 2.369-0.718 26.902-8.433 29.767-9.401 1-0.359 2.502-0.825 1.693-1.22-0.378-0.145-0.896-0.323-0.719-0.467 0.133-0.107 0.68-0.251 2.251-0.323 6.234-0.251 19.423-1.184 22.954-1.794 1.147-0.179 1.879-0.323 2.805-0.323 1.111 0 1.217 0.216 1.283 0.61 0.724 2.261 5.229 10.298 5.908 12.595 0.8 2.799 4.582 9.474 5.979 10.441 1.683 1.185 5.965 1.615 8.742 1.615h6.295c1.111 0 1.118 0.144 0.896 0.323l-0.843 0.682c-0.267 0.215-0.761 0.466-2.243 0.466-3.518 0-7.272-0.107-30.972-0.107-15.367 0-21.981 0.107-25.685 0.107-1.85 0-1.769-0.215-1.458-0.466l0.843-0.682c0.222-0.18 0.584-0.323 1.51-0.323h5.184c4.998 0 7.108-0.358 7.151-1.292-0.069-1.291-1.614-5.885-2.237-7.177h-40.5zm40.66-1.44c-0.335-1.077-1.943-8.612-2.132-9.509-0.074-0.539-0.135-0.79-1.061-0.79-1.111 0-1.844 0.144-2.798 0.467-1.502 0.466-27.895 8.935-30.484 9.832h36.47z"/>
		</g>
		<g style="enable-background:new">
			<path style="fill:#009815" d="m699.09 783.42c-0.548 3.896-3.932 29.162-4.052 34.486-0.082 3.66 0.355 7.199 2.114 5.688l2.051-1.764c0.586-0.504 0.63 0.112 0.615 0.777l-0.083 3.661c-0.029 1.331-0.1 1.88-0.568 2.282-0.762 0.655-3.153 2.223-7.959 6.354-4.277 3.678-5.579 5.285-6.399 5.99-0.352 0.303-0.388-0.645-0.361-1.81l0.071-3.161c0.021-0.999 0.092-1.549 0.443-1.851l1.523-1.31c1.407-1.209 2.866-4.748 4.15-10.748 0.898-4.198 5.71-36.728 7.973-53.031 0.544-3.73 6.095-43.585 6.724-48.53 0.213-1.815 0.555-4.229 0.186-5.708-0.161-0.515-0.377-1.145-0.361-1.809 0.011-0.5 0.143-1.267 0.619-2.002 1.901-2.777 5.808-10.379 6.751-13.963 0.312-1.084 0.503-1.9 0.795-2.152 0.353-0.303 0.446 0.596 0.582 2.274 0.878 9.524 4.612 42.864 5.485 52.558 1.057 11.818 4.172 39.492 4.891 43.278 0.873 4.636 2.353 5.321 3.231 4.565l1.992-1.713c0.352-0.303 0.396 0.312 0.378 1.145l-0.071 3.162c-0.022 0.998-0.108 2.213-0.577 2.615-1.113 0.957-2.332 1.518-9.834 7.966-4.864 4.183-6.928 6.443-8.1 7.451-0.586 0.504-0.622-0.442-0.596-1.608l0.071-3.16c0.019-0.832 0.092-1.549 0.384-1.801l1.642-1.41c1.582-1.361 2.147-3.478 1.894-7.502-0.394-5.535-2.2-24.868-2.769-30.254l-12.81 11.01zm12.46-17.23c-0.416-4.539-3.09-36.508-3.406-40.314-0.178-2.295-0.269-3.359-0.562-3.107-0.353 0.303-0.542 1.119-0.753 2.77-0.341 2.414-6.264 46.014-6.825 50.577l11.55-9.93z"/>
		</g>
		<polygon id="rect3939" style="opacity:.3898;enable-background:new" points="669.21 682.8 669.21 897.93 743.2 839.87 743.2 624.74"/>
		<polygon id="rect2194" style="opacity:.1525;enable-background:new" points="529.62 622.71 744.85 623.11 671.56 680.86 456.33 680.47"/>
			<linearGradient id="rect2962_1_" y2="492.11" gradientUnits="userSpaceOnUse" x2="414.69" gradientTransform="matrix(.9989 0 0 -1.0011 335.64 1223.8)" y1="492.11" x1="408.06">
			<stop style="stop-color:#CDB16A" offset="0"/>
			<stop style="stop-color:#AD9D5F" offset=".0944"/>
			<stop style="stop-color:#B7A154" offset=".1416"/>
			<stop style="stop-color:#C28947" offset=".1652"/>
			<stop style="stop-color:#C9AC46" offset=".1888"/>
			<stop style="stop-color:#C0891F" offset=".1888"/>
			<stop style="stop-color:#BA883A" offset=".1888"/>
			<stop style="stop-color:#BDA976" offset=".1888"/>
			<stop style="stop-color:#C5AD4A" offset=".7132"/>
			<stop style="stop-color:#CDA955" offset=".7263"/>
			<stop style="stop-color:#D5AD43" offset=".7263"/>
			<stop style="stop-color:#D7A13C" offset=".7394"/>
			<stop style="stop-color:#B5955B" offset=".7525"/>
			<stop style="stop-color:#BEB459" offset=".7656"/>
			<stop style="stop-color:#B8A46C" offset=".8173"/>
			<stop style="stop-color:#A39E35" offset=".869"/>
			<stop style="stop-color:#A8A056" offset="1"/>
		</linearGradient>
		<rect id="rect2962" style="fill:url(#rect2962_1_)" height="215.66" width="215.18" y="623.35" x="743.25"/>
			<linearGradient id="rect2964_1_" y2="113.92" gradientUnits="userSpaceOnUse" x2="779.9" gradientTransform="matrix(1.5188 .0028 .5171 -.4075 -415.14 629.97)" y1="119.42" x1="768.13">
			<stop style="stop-color:#CDB16A" offset="0"/>
			<stop style="stop-color:#AD9D5F" offset=".0944"/>
			<stop style="stop-color:#B7A154" offset=".1416"/>
			<stop style="stop-color:#C28947" offset=".1652"/>
			<stop style="stop-color:#C9AC46" offset=".1888"/>
			<stop style="stop-color:#C0891F" offset=".1888"/>
			<stop style="stop-color:#BA883A" offset=".1888"/>
			<stop style="stop-color:#BDA976" offset=".1888"/>
			<stop style="stop-color:#C5AD4A" offset=".7132"/>
			<stop style="stop-color:#CDA955" offset=".7263"/>
			<stop style="stop-color:#D5AD43" offset=".7263"/>
			<stop style="stop-color:#D7A13C" offset=".7394"/>
			<stop style="stop-color:#B5955B" offset=".7525"/>
			<stop style="stop-color:#BEB459" offset=".7656"/>
			<stop style="stop-color:#B8A46C" offset=".8173"/>
			<stop style="stop-color:#A39E35" offset=".869"/>
			<stop style="stop-color:#A8A056" offset="1"/>
		</linearGradient>
		<polygon id="rect2964" style="fill:url(#rect2964_1_)" points="816.51 565.61 1031.7 566.01 958.45 623.77 743.22 623.37"/>
			<linearGradient id="rect2966_1_" y2="528.35" gradientUnits="userSpaceOnUse" x2="864.96" gradientTransform="matrix(-.000033259 1.5124 -.5202 .4082 1305.5 -865.3)" y1="508.59" x1="861.95">
			<stop style="stop-color:#CDB16A" offset="0"/>
			<stop style="stop-color:#AD9D5F" offset=".0944"/>
			<stop style="stop-color:#B7A154" offset=".1416"/>
			<stop style="stop-color:#C28947" offset=".1652"/>
			<stop style="stop-color:#C9AC46" offset=".1888"/>
			<stop style="stop-color:#C0891F" offset=".1888"/>
			<stop style="stop-color:#BA883A" offset=".1888"/>
			<stop style="stop-color:#BDA976" offset=".1888"/>
			<stop style="stop-color:#C5AD4A" offset=".7132"/>
			<stop style="stop-color:#CDA955" offset=".7263"/>
			<stop style="stop-color:#D5AD43" offset=".7263"/>
			<stop style="stop-color:#D7A13C" offset=".7394"/>
			<stop style="stop-color:#B5955B" offset=".7525"/>
			<stop style="stop-color:#BEB459" offset=".7656"/>
			<stop style="stop-color:#B8A46C" offset=".8173"/>
			<stop style="stop-color:#A39E35" offset=".869"/>
			<stop style="stop-color:#A8A056" offset="1"/>
		</linearGradient>
		<polygon id="rect2966" style="fill:url(#rect2966_1_)" points="957.8 623.98 957.79 839.11 1031.8 781.05 1031.8 565.92"/>
		<path id="path2968" style="fill:#CA1800" d="m769.41 633.47c-8.612 0-15.562 6.92-15.562 15.531v161.06c0 8.613 6.95 15.531 15.562 15.531h162.91c8.612 0 15.562-6.918 15.562-15.531v-161.06c0-8.611-6.95-15.531-15.562-15.531h-162.91zm15.53 17.09h129.97c8.612 0 15.562 6.92 15.562 15.531v126.25c0 8.613-6.95 15.531-15.562 15.531h-129.97c-8.612 0-15.531-6.918-15.531-15.531v-126.25c0-8.61 6.92-15.53 15.53-15.53z"/>
			<linearGradient id="rect2970_1_" y2="-404.12" gradientUnits="userSpaceOnUse" x2="1352.3" gradientTransform="matrix(1.5188 .0028 .5171 -.4075 -1052.3 424.26)" y1="-403.68" x1="1345.8">
			<stop style="stop-color:#CDB16A" offset="0"/>
			<stop style="stop-color:#AD9D5F" offset=".0944"/>
			<stop style="stop-color:#B7A154" offset=".1416"/>
			<stop style="stop-color:#C28947" offset=".1652"/>
			<stop style="stop-color:#C9AC46" offset=".1888"/>
			<stop style="stop-color:#C0891F" offset=".1888"/>
			<stop style="stop-color:#BA883A" offset=".1888"/>
			<stop style="stop-color:#BDA976" offset=".1888"/>
			<stop style="stop-color:#C5AD4A" offset=".7132"/>
			<stop style="stop-color:#CDA955" offset=".7263"/>
			<stop style="stop-color:#D5AD43" offset=".7263"/>
			<stop style="stop-color:#D7A13C" offset=".7394"/>
			<stop style="stop-color:#B5955B" offset=".7525"/>
			<stop style="stop-color:#BEB459" offset=".7656"/>
			<stop style="stop-color:#B8A46C" offset=".8173"/>
			<stop style="stop-color:#A39E35" offset=".869"/>
			<stop style="stop-color:#A8A056" offset="1"/>
		</linearGradient>
		<polygon id="rect2970" style="fill:url(#rect2970_1_)" points="816.51 565.61 1031.7 566.01 958.45 623.77 743.22 623.37"/>
		<path id="path2972" style="fill:#CA1800" d="m834.34 571.6c-8.499 0-17.315 1.635-19.751 3.668l-45.562 38.039c-2.437 2.035 2.465 3.668 10.964 3.668h160.76c8.499 0 17.315-1.633 19.751-3.668l45.562-38.039c2.437-2.033-2.465-3.668-10.964-3.668h-160.8zm10.49 4.04h128.26c8.499 0 13.4 1.635 10.964 3.668l-35.714 29.818c-2.437 2.033-11.253 3.668-19.751 3.668h-128.26c-8.498 0-13.369-1.635-10.933-3.668l35.714-29.818c2.44-2.04 11.23-3.67 19.72-3.67z"/>
		<path id="path2974" style="fill:#CA1800" d="m967.1 642.61c-0.018-8.674 2.062-17.316 4.671-19.359l48.776-38.215c2.608-2.043 4.719 3.316 4.736 11.99l0.343 164.09c0.018 8.674-2.063 17.316-4.671 19.359l-48.776 38.215c-2.608 2.043-4.719-3.316-4.736-11.99l-0.18-164.1zm5.21 11.59l0.273 130.91c0.019 8.676 2.128 14.035 4.736 11.99l38.234-29.953c2.607-2.043 4.688-10.686 4.671-19.361l-0.273-130.91c-0.019-8.674-2.128-14.002-4.736-11.959l-38.234 29.955c-2.69 2.03-4.77 10.64-4.76 19.32z"/>
		<g style="enable-background:new">
			<path style="fill:#CA1800" d="m807.8 718.4c0-6.156-0.371-26.455-0.556-29.117-0.556-9.649-3.518-9.982-9.628-9.982h-5.925c-1.296 0-1.296-0.167-1.296-1.498v-3.826c0-0.999 0.185-1.498 1.481-1.498 2.406 0 11.294 0.5 28.883 0.5 5.925 0 17.034-0.5 29.624-0.5 13.331 0 25.181 1.165 31.661 4.493 10.554 5.157 14.256 12.811 14.256 22.627 0 10.981-7.405 21.63-27.031 27.453v0.333c22.958 5.324 34.993 15.308 34.993 32.943 0 8.985-5.555 21.297-14.441 25.29-7.592 3.494-20.552 6.156-43.511 6.156-1.666 0-6.48-0.332-11.664-0.499-5.369-0.333-11.109-0.499-14.627-0.499-9.258 0-15.367 0.166-19.441 0.166-3.888 0.167-5.925 0.333-7.221 0.333-1.852 0-2.036-0.499-2.036-1.83v-3.66c0-0.999 0.185-1.331 1.852-1.331h6.479c5.555 0 6.48-1.997 7.222-6.988 0.555-3.827 0.926-25.789 0.926-39.433v-19.62zm27.03 6.82c7.592 0.666 19.441-0.332 24.811-4.658 6.109-4.825 8.887-12.312 8.887-19.633 0-6.323-2.222-12.979-7.591-16.805-6.295-4.492-15.367-5.99-17.404-5.99-3.888 0-7.961 0.166-8.146 2.828-0.37 3.328-0.556 17.804-0.556 31.613v12.65zm0 38.61c0 15.807 4.073 22.296 13.887 22.296 13.146 0 25.551-5.824 25.551-26.621 0-13.478-6.666-22.296-16.664-25.79-9.257-3.161-18.145-2.828-22.773-2.828v32.94z"/>
		</g>
		<g style="enable-background:new">
			<path style="fill:#CA1800" d="m847.24 590.2c1.641-1.327 6.681-5.705 7.204-6.279 2.019-2.081-0.855-2.153-6.965-2.153h-5.926c-1.295 0-1.251-0.035-0.896-0.322l1.021-0.825c0.267-0.216 0.585-0.323 1.88-0.323 2.408 0 11.162 0.107 28.752 0.107 5.924 0 17.166-0.107 29.756-0.107 13.33 0 24.869 0.251 30.463 0.969 9.179 1.112 10.842 2.763 8.225 4.88-2.927 2.369-13.172 4.665-34.351 5.921l-0.089 0.071c21.539 1.148 30.913 3.302 26.211 7.105-2.396 1.938-11.232 4.593-21.184 5.454-8.523 0.753-22.194 1.328-45.151 1.328-1.668 0-6.392-0.072-11.532-0.108-5.28-0.072-10.975-0.107-14.494-0.107-9.256 0-15.411 0.035-19.483 0.035-3.934 0.036-6.015 0.072-7.31 0.072-1.852 0-1.904-0.107-1.55-0.395l0.977-0.79c0.266-0.215 0.54-0.286 2.206-0.286h6.48c5.555 0 7.013-0.431 9.084-1.508 1.574-0.825 7.801-5.562 11.438-8.504l5.23-4.23zm14.92 9.8c-4.214 3.409-1.869 4.809 7.943 4.809 13.145 0 27.104-1.256 32.647-5.741 3.593-2.906-0.722-4.809-9.788-5.562-8.415-0.682-17.391-0.609-22.02-0.609l-8.78 7.1zm10.29-8.33c7.415 0.143 19.53-0.072 26.053-1.005 7.396-1.04 12.169-2.655 14.12-4.234 1.686-1.363 1.239-2.799-3.11-3.624-5.099-0.969-13.771-1.292-15.807-1.292-3.889 0-8.008 0.036-8.901 0.61-1.258 0.718-5.302 3.84-8.983 6.817l-3.37 2.72z"/>
		</g>
		<g style="enable-background:new">
			<path style="fill:#CA1800" d="m983.57 701.63c0.138-6.154 0.477-26.354 0.478-28.965 0.042-9.5-0.889-9.025-2.822-7.363l-1.876 1.612c-0.41 0.353-0.406 0.187-0.376-1.145l0.086-3.827c0.022-0.999 0.092-1.549 0.502-1.9 0.762-0.656 3.564-2.575 9.132-7.361 1.876-1.612 5.402-5.134 9.389-8.561 4.22-3.627 7.943-5.687 9.921-4.123 3.225 2.287 4.225 8.934 4.004 18.75-0.247 10.981-2.831 23.646-9.173 34.809l-0.008 0.334c7.147-0.924 10.733 5.785 10.337 23.422-0.202 8.984-2.237 22.809-5.14 29.221-2.481 5.56-6.644 11.75-13.911 17.996-0.527 0.454-2.044 1.431-3.681 2.674-1.692 1.129-3.507 2.525-4.618 3.482-2.932 2.519-4.869 4.348-6.158 5.455-1.234 1.226-1.884 1.945-2.294 2.299-0.586 0.504-0.634 0.055-0.604-1.276l0.082-3.661c0.022-0.998 0.089-1.381 0.616-1.834l2.052-1.764c1.758-1.512 2.096-3.76 2.443-8.954 0.261-3.978 0.871-26.04 1.178-39.685l0.46-19.63zm7.54 38.07c-0.355 15.807 0.789 21.187 3.896 18.517 4.16-3.577 8.218-12.777 8.685-33.574 0.303-13.477-1.608-20.482-4.695-21.256-2.859-0.643-5.681 2.109-7.146 3.368l-0.74 32.94zm0.87-38.6c2.388-1.4 6.161-5.623 7.958-11.41 2.042-6.487 3.09-14.731 3.254-22.052 0.143-6.322-0.411-12.375-2.025-14.74-1.892-2.779-4.729-1.808-5.374-1.254-1.23 1.059-2.523 2.334-2.643 5.047-0.192 3.428-0.576 17.954-0.886 31.764l-0.32 12.64z"/>
		</g>
		<polygon id="rect2988" style="opacity:.3898;enable-background:new" points="957.31 623.61 957.3 838.74 1031.3 780.69 1031.3 565.56"/>
		<polygon id="rect2990" style="opacity:.1525;enable-background:new" points="815.44 565.28 1030.7 565.67 957.38 623.43 742.15 623.03"/>
			<linearGradient id="rect3017_1_" y2="492.11" gradientUnits="userSpaceOnUse" x2="414.69" gradientTransform="matrix(.9989 0 0 -1.0011 119.8 1008.9)" y1="492.11" x1="408.06">
			<stop style="stop-color:#CDB16A" offset="0"/>
			<stop style="stop-color:#AD9D5F" offset=".0944"/>
			<stop style="stop-color:#B7A154" offset=".1416"/>
			<stop style="stop-color:#C28947" offset=".1652"/>
			<stop style="stop-color:#C9AC46" offset=".1888"/>
			<stop style="stop-color:#C0891F" offset=".1888"/>
			<stop style="stop-color:#BA883A" offset=".1888"/>
			<stop style="stop-color:#BDA976" offset=".1888"/>
			<stop style="stop-color:#C5AD4A" offset=".7132"/>
			<stop style="stop-color:#CDA955" offset=".7263"/>
			<stop style="stop-color:#D5AD43" offset=".7263"/>
			<stop style="stop-color:#D7A13C" offset=".7394"/>
			<stop style="stop-color:#B5955B" offset=".7525"/>
			<stop style="stop-color:#BEB459" offset=".7656"/>
			<stop style="stop-color:#B8A46C" offset=".8173"/>
			<stop style="stop-color:#A39E35" offset=".869"/>
			<stop style="stop-color:#A8A056" offset="1"/>
		</linearGradient>
		<rect id="rect3017" style="fill:url(#rect3017_1_)" height="215.66" width="215.18" y="408.46" x="527.42"/>
			<linearGradient id="rect3019_1_" y2="113.92" gradientUnits="userSpaceOnUse" x2="779.9" gradientTransform="matrix(1.5188 .0028 .5171 -.4075 -630.98 415.08)" y1="119.42" x1="768.13">
			<stop style="stop-color:#CDB16A" offset="0"/>
			<stop style="stop-color:#AD9D5F" offset=".0944"/>
			<stop style="stop-color:#B7A154" offset=".1416"/>
			<stop style="stop-color:#C28947" offset=".1652"/>
			<stop style="stop-color:#C9AC46" offset=".1888"/>
			<stop style="stop-color:#C0891F" offset=".1888"/>
			<stop style="stop-color:#BA883A" offset=".1888"/>
			<stop style="stop-color:#BDA976" offset=".1888"/>
			<stop style="stop-color:#C5AD4A" offset=".7132"/>
			<stop style="stop-color:#CDA955" offset=".7263"/>
			<stop style="stop-color:#D5AD43" offset=".7263"/>
			<stop style="stop-color:#D7A13C" offset=".7394"/>
			<stop style="stop-color:#B5955B" offset=".7525"/>
			<stop style="stop-color:#BEB459" offset=".7656"/>
			<stop style="stop-color:#B8A46C" offset=".8173"/>
			<stop style="stop-color:#A39E35" offset=".869"/>
			<stop style="stop-color:#A8A056" offset="1"/>
		</linearGradient>
		<polygon id="rect3019" style="fill:url(#rect3019_1_)" points="600.67 350.72 815.9 351.12 742.62 408.88 527.39 408.48"/>
			<linearGradient id="rect3021_1_" y2="528.35" gradientUnits="userSpaceOnUse" x2="864.96" gradientTransform="matrix(-.000033259 1.5124 -.5202 .4082 1089.7 -1080.2)" y1="508.59" x1="861.95">
			<stop style="stop-color:#CDB16A" offset="0"/>
			<stop style="stop-color:#AD9D5F" offset=".0944"/>
			<stop style="stop-color:#B7A154" offset=".1416"/>
			<stop style="stop-color:#C28947" offset=".1652"/>
			<stop style="stop-color:#C9AC46" offset=".1888"/>
			<stop style="stop-color:#C0891F" offset=".1888"/>
			<stop style="stop-color:#BA883A" offset=".1888"/>
			<stop style="stop-color:#BDA976" offset=".1888"/>
			<stop style="stop-color:#C5AD4A" offset=".7132"/>
			<stop style="stop-color:#CDA955" offset=".7263"/>
			<stop style="stop-color:#D5AD43" offset=".7263"/>
			<stop style="stop-color:#D7A13C" offset=".7394"/>
			<stop style="stop-color:#B5955B" offset=".7525"/>
			<stop style="stop-color:#BEB459" offset=".7656"/>
			<stop style="stop-color:#B8A46C" offset=".8173"/>
			<stop style="stop-color:#A39E35" offset=".869"/>
			<stop style="stop-color:#A8A056" offset="1"/>
		</linearGradient>
		<polygon id="rect3021" style="fill:url(#rect3021_1_)" points="741.96 409.09 741.96 624.22 815.95 566.16 815.96 351.03"/>
		<path id="path3023" style="fill:#2448A3" d="m553.57 418.58c-8.612 0-15.562 6.919-15.562 15.531v161.06c0 8.611 6.95 15.531 15.562 15.531h162.91c8.612 0 15.562-6.92 15.562-15.531v-161.06c0-8.612-6.95-15.531-15.562-15.531h-162.91zm15.53 17.09h129.97c8.612 0 15.562 6.919 15.562 15.531v126.25c0 8.611-6.95 15.531-15.562 15.531h-129.97c-8.612 0-15.531-6.92-15.531-15.531v-126.25c0-8.61 6.92-15.53 15.53-15.53z"/>
			<linearGradient id="rect3025_1_" y2="-404.12" gradientUnits="userSpaceOnUse" x2="1352.3" gradientTransform="matrix(1.5188 .0028 .5171 -.4075 -1268.1 209.36)" y1="-403.68" x1="1345.8">
			<stop style="stop-color:#CDB16A" offset="0"/>
			<stop style="stop-color:#AD9D5F" offset=".0944"/>
			<stop style="stop-color:#B7A154" offset=".1416"/>
			<stop style="stop-color:#C28947" offset=".1652"/>
			<stop style="stop-color:#C9AC46" offset=".1888"/>
			<stop style="stop-color:#C0891F" offset=".1888"/>
			<stop style="stop-color:#BA883A" offset=".1888"/>
			<stop style="stop-color:#BDA976" offset=".1888"/>
			<stop style="stop-color:#C5AD4A" offset=".7132"/>
			<stop style="stop-color:#CDA955" offset=".7263"/>
			<stop style="stop-color:#D5AD43" offset=".7263"/>
			<stop style="stop-color:#D7A13C" offset=".7394"/>
			<stop style="stop-color:#B5955B" offset=".7525"/>
			<stop style="stop-color:#BEB459" offset=".7656"/>
			<stop style="stop-color:#B8A46C" offset=".8173"/>
			<stop style="stop-color:#A39E35" offset=".869"/>
			<stop style="stop-color:#A8A056" offset="1"/>
		</linearGradient>
		<polygon id="rect3025" style="fill:url(#rect3025_1_)" points="600.67 350.72 815.9 351.12 742.62 408.88 527.39 408.48"/>
		<path id="path3027" style="fill:#2448A3" d="m618.51 356.71c-8.499 0-17.315 1.634-19.751 3.668l-45.562 38.039c-2.436 2.034 2.465 3.668 10.964 3.668h160.76c8.499 0 17.315-1.634 19.752-3.668l45.562-38.039c2.437-2.034-2.465-3.668-10.964-3.668h-160.76zm10.49 4.03h128.26c8.499 0 13.4 1.634 10.964 3.668l-35.714 29.817c-2.437 2.034-11.252 3.668-19.751 3.668h-128.26c-8.499 0-13.369-1.634-10.933-3.668l35.714-29.817c2.44-2.03 11.22-3.67 19.72-3.67z"/>
		<path id="path3029" style="fill:#2448A3" d="m751.27 427.72c-0.018-8.675 2.062-17.317 4.671-19.361l48.777-38.214c2.607-2.043 4.718 3.316 4.735 11.991l0.343 164.09c0.019 8.676-2.062 17.318-4.671 19.361l-48.776 38.213c-2.608 2.045-4.719-3.314-4.736-11.99l-0.34-164.09zm5.21 11.59l0.272 130.91c0.019 8.674 2.129 14.033 4.736 11.99l38.234-29.955c2.608-2.043 4.688-10.686 4.671-19.36l-0.273-130.91c-0.018-8.675-2.128-14.002-4.736-11.959l-38.233 29.955c-2.61 2.04-4.69 10.65-4.67 19.33z"/>
		<g style="enable-background:new">
			<path style="fill:#2448A3" d="m593.63 563.08c-13.701-10.981-20.181-30.115-20.181-44.424 0-17.137 6.11-32.611 19.07-45.089 10.554-10.149 25.921-17.969 48.879-17.969 16.849 0 30.735 3.827 37.215 6.988 2.592 1.165 3.518 0.999 3.888-0.167l1.481-4.159c0.37-0.999 0.74-0.999 3.518-0.999s3.147 0.333 3.147 2.662c0 3.162 3.333 31.446 4.259 36.438 0.185 1.165 0 1.996-0.926 2.163l-4.073 0.999c-0.926 0.333-1.667-0.333-2.222-1.83-2.037-6.655-7.036-15.141-14.812-22.295-7.961-6.988-17.774-12.479-31.846-12.479-27.032 0-38.511 22.128-38.326 46.753 0 10.481 3.333 30.946 16.479 43.426 12.035 11.147 22.588 12.479 28.883 12.479 21.107 0 36.845-8.652 43.696-17.803 0.926-1.331 1.852-1.997 2.777-1.331l3.147 2.495c0.555 0.333 0.74 0.999 0 1.997-10.739 13.976-28.699 27.453-54.805 27.453-24.65-0.01-37.61-5.99-49.27-15.31z"/>
		</g>
		<g style="enable-background:new">
			<path style="fill:#2448A3" d="m618.19 388.16c-10.771-2.369-12.15-6.495-8.336-9.581 4.569-3.696 14.804-7.033 31.091-9.724 13.258-2.189 30.71-3.876 53.668-3.876 16.85 0 29.715 0.826 35.352 1.507 2.281 0.251 3.252 0.215 3.934-0.036l2.59-0.897c0.637-0.215 1.008-0.215 3.785-0.215 2.775 0 3.059 0.072 2.438 0.574-0.844 0.682-5.051 6.782-5.455 7.858-0.125 0.251-0.533 0.431-1.504 0.467l-4.338 0.215c-1.014 0.072-1.578-0.071-1.734-0.395-0.262-1.436-3-3.266-8.867-4.809-6.1-1.507-14.449-2.691-28.521-2.691-27.032 0-44.409 4.772-50.788 10.083-2.795 2.261-4.919 6.674 4.899 9.365 9.063 2.404 19.263 2.691 25.558 2.691 21.108 0 39.151-1.866 48.442-3.839 1.281-0.288 2.383-0.431 3.133-0.288l2.48 0.539c0.467 0.072 0.477 0.215-0.533 0.431-14.463 3.014-36.016 5.92-62.123 5.92-24.61 0.01-35.98-1.29-45.16-3.29z"/>
		</g>
		<g style="enable-background:new">
			<path style="fill:#2448A3" d="m766.51 545.49c-4.091-7.254-5.713-24.625-5.391-38.933 0.385-17.139 2.667-34.275 7.05-50.28 3.568-13.022 8.608-25.023 15.876-31.271 5.333-4.584 9.643-4.536 11.623-3.137 0.794 0.459 1.092 0.04 1.233-1.225l0.562-4.562c0.14-1.1 0.258-1.201 1.137-1.957 0.879-0.755 0.988-0.523 0.937 1.806-0.071 3.161 0.348 30.54 0.529 35.28 0.033 1.114-0.045 1.996-0.342 2.415l-1.312 2.106c-0.301 0.585-0.521 0.122-0.662-1.226-0.496-6.101-1.887-13.227-4.188-18.266-2.363-4.822-5.347-7.641-9.8-3.813-8.558 7.356-12.688 32.61-13.184 57.184-0.235 10.483 0.36 30.041 4.241 38.942 3.56 7.873 6.869 6.333 8.862 4.62 6.682-5.744 11.857-18.678 14.231-29.693 0.322-1.584 0.631-2.5 0.908-2.087l0.941 1.639c0.168 0.181 0.212 0.797-0.045 1.997-3.714 16.898-9.701 35.262-17.965 42.367-7.8 6.71-11.77 4.25-15.25-1.9z"/>
		</g>
		<polygon id="rect3043" style="opacity:.3898;enable-background:new" points="741.14 409.08 741.14 624.21 815.13 566.16 815.14 351.02"/>
		<polygon id="rect3045" style="opacity:.1525;enable-background:new" points="601.98 349.64 817.21 350.03 743.93 407.79 528.7 407.39"/>
	</g>
</g>
<metadata><rdf:RDF><cc:Work><dc:format>image/svg+xml</dc:format><dc:type rdf:resource="http://purl.org/dc/dcmitype/StillImage"/><cc:license rdf:resource="http://creativecommons.org/licenses/publicdomain/"/><dc:publisher><cc:Agent rdf:about="http://openclipart.org/"><dc:title>Openclipart</dc:title></cc:Agent></dc:publisher><dc:title>abc blocks petri lummema 01</dc:title><dc:date>2010-04-17T22:06:30</dc:date><dc:description>originally uploaded by Petri Lummemaki from OCAL 0.18</dc:description><dc:source>https://openclipart.org/detail/48673/abc-blocks-petri-lummema-01-by-anonymous</dc:source><dc:creator><cc:Agent><dc:title>Anonymous</dc:title></cc:Agent></dc:creator><dc:subject><rdf:Bag><rdf:li>abc</rdf:li><rdf:li>alphabet</rdf:li><rdf:li>blocks</rdf:li><rdf:li>toy</rdf:li></rdf:Bag></dc:subject></cc:Work><cc:License rdf:about="http://creativecommons.org/licenses/publicdomain/"><cc:permits rdf:resource="http://creativecommons.org/ns#Reproduction"/><cc:permits rdf:resource="http://creativecommons.org/ns#Distribution"/><cc:permits rdf:resource="http://creativecommons.org/ns#DerivativeWorks"/></cc:License></rdf:RDF></metadata></svg>