<?xml version="1.0" encoding="UTF-8" standalone="no"?>
<svg
   version="1.1"
   width="600px"
   height="600px"
   viewBox="0 0 200 200"
   style="overflow:hidden!important;"
   id="svg170"
   sodipodi:docname="avatar.svg"
   inkscape:version="1.2.1 (9c6d41e410, 2022-07-14, custom)"
   xmlns:inkscape="http://www.inkscape.org/namespaces/inkscape"
   xmlns:sodipodi="http://sodipodi.sourceforge.net/DTD/sodipodi-0.dtd"
   xmlns="http://www.w3.org/2000/svg"
   xmlns:svg="http://www.w3.org/2000/svg">
  <sodipodi:namedview
     id="namedview172"
     pagecolor="#505050"
     bordercolor="#ffffff"
     borderopacity="1"
     inkscape:showpageshadow="0"
     inkscape:pageopacity="0"
     inkscape:pagecheckerboard="1"
     inkscape:deskcolor="#505050"
     showgrid="false"
     inkscape:zoom="0.78666667"
     inkscape:cx="-102.9661"
     inkscape:cy="238.34746"
     inkscape:current-layer="svga-group-head" />
  <defs
     id="SvgjsDefs2848">
    <linearGradient
       id="SvgjsLinearGradient6945"
       x1="82.14"
       y1="87.906"
       x2="82.14"
       y2="109.3074"
       gradientUnits="userSpaceOnUse"
       class="svga-on-canvas-glasses-gradient-single-0-null">
      <stop
         id="SvgjsStop6946"
         stop-opacity="1"
         stop-color="#9bc2cf"
         offset="0" />
      <stop
         id="SvgjsStop6947"
         stop-opacity="0"
         stop-color="#6086c4"
         offset="1" />
    </linearGradient>
    <linearGradient
       id="SvgjsLinearGradient6949"
       x1="-17.86"
       y1="87.906"
       x2="-17.86"
       y2="109.3074"
       gradientTransform="matrix(-1 0 0 1 100 0)"
       gradientUnits="userSpaceOnUse"
       class="svga-on-canvas-glasses-gradient-single-1-null">
      <stop
         id="SvgjsStop6950"
         stop-opacity="1"
         stop-color="#9bc2cf"
         offset="0" />
      <stop
         id="SvgjsStop6951"
         stop-opacity="0"
         stop-color="#6086c4"
         offset="1" />
    </linearGradient>
    <linearGradient
       id="SvgjsLinearGradient6993"
       x1="81.0729"
       y1="112.2763"
       x2="81.0729"
       y2="92.4328"
       gradientTransform="matrix(1 0 0 -1 0 202)"
       gradientUnits="userSpaceOnUse"
       class="svga-on-canvas-glasses-gradient-single-0-null">
      <stop
         id="SvgjsStop6994"
         stop-opacity="1"
         stop-color="#97a1ad"
         offset="0" />
      <stop
         id="SvgjsStop6995"
         stop-opacity="0.6667"
         stop-color="#889ab3"
         offset="0.3333" />
      <stop
         id="SvgjsStop6996"
         stop-opacity="3.130000e-02"
         stop-color="#6287c3"
         offset="0.9687" />
      <stop
         id="SvgjsStop6997"
         stop-opacity="0"
         stop-color="#6086c4"
         offset="1" />
    </linearGradient>
    <linearGradient
       id="SvgjsLinearGradient6999"
       x1="-1736.927"
       y1="112.2763"
       x2="-1736.927"
       y2="92.4328"
       gradientTransform="matrix(-1 0 0 -1 -1618 202)"
       gradientUnits="userSpaceOnUse"
       class="svga-on-canvas-glasses-gradient-single-1-null">
      <stop
         id="SvgjsStop7000"
         stop-opacity="1"
         stop-color="#97a1ad"
         offset="0" />
      <stop
         id="SvgjsStop7001"
         stop-opacity="0.6667"
         stop-color="#889ab3"
         offset="0.3333" />
      <stop
         id="SvgjsStop7002"
         stop-opacity="3.130000e-02"
         stop-color="#6287c3"
         offset="0.9687" />
      <stop
         id="SvgjsStop7003"
         stop-opacity="0"
         stop-color="#6086c4"
         offset="1" />
    </linearGradient>
    <linearGradient
       id="SvgjsLinearGradient7059"
       x1="81.0335"
       y1="111.8772"
       x2="81.0335"
       y2="93.2499"
       gradientTransform="matrix(1 0 0 -1 0 202)"
       gradientUnits="userSpaceOnUse"
       class="svga-on-canvas-glasses-gradient-single-0-null">
      <stop
         id="SvgjsStop7060"
         stop-opacity="1"
         stop-color="#bfeaf2"
         offset="0" />
      <stop
         id="SvgjsStop7061"
         stop-opacity="0.649"
         stop-color="#a1cae3"
         offset="0.351" />
      <stop
         id="SvgjsStop7062"
         stop-opacity="0"
         stop-color="#6086c4"
         offset="1" />
    </linearGradient>
    <linearGradient
       id="SvgjsLinearGradient7064"
       x1="-1736.9666"
       y1="111.8772"
       x2="-1736.9666"
       y2="93.2499"
       gradientTransform="matrix(-1 0 0 -1 -1618 202)"
       gradientUnits="userSpaceOnUse"
       class="svga-on-canvas-glasses-gradient-single-1-null">
      <stop
         id="SvgjsStop7065"
         stop-opacity="1"
         stop-color="#bfeaf2"
         offset="0" />
      <stop
         id="SvgjsStop7066"
         stop-opacity="0.649"
         stop-color="#a1cae3"
         offset="0.351" />
      <stop
         id="SvgjsStop7067"
         stop-opacity="0"
         stop-color="#6086c4"
         offset="1" />
    </linearGradient>
    <linearGradient
       id="SvgjsLinearGradient7216"
       x1="81.0936"
       y1="85.914"
       x2="81.0936"
       y2="112.2733"
       gradientUnits="userSpaceOnUse"
       class="svga-on-canvas-glasses-gradient-single-0-null">
      <stop
         id="SvgjsStop7217"
         stop-opacity="1"
         stop-color="#211810"
         offset="0" />
      <stop
         id="SvgjsStop7218"
         stop-opacity="0.7372"
         stop-color="#231b13"
         offset="0.2628" />
      <stop
         id="SvgjsStop7219"
         stop-opacity="0.5527"
         stop-color="#2b231c"
         offset="0.4473" />
      <stop
         id="SvgjsStop7220"
         stop-opacity="0.3921"
         stop-color="#38312c"
         offset="0.6079" />
      <stop
         id="SvgjsStop7221"
         stop-opacity="0.2453"
         stop-color="#4b4641"
         offset="0.7547" />
      <stop
         id="SvgjsStop7222"
         stop-opacity="0.1091"
         stop-color="#62605e"
         offset="0.8909" />
      <stop
         id="SvgjsStop7223"
         stop-opacity="0"
         stop-color="#7a7a7a"
         offset="1" />
    </linearGradient>
    <linearGradient
       id="SvgjsLinearGradient7225"
       x1="-18.9064"
       y1="85.914"
       x2="-18.9064"
       y2="112.2733"
       gradientTransform="matrix(-1 0 0 1 100 0)"
       gradientUnits="userSpaceOnUse"
       class="svga-on-canvas-glasses-gradient-single-1-null">
      <stop
         id="SvgjsStop7226"
         stop-opacity="1"
         stop-color="#211810"
         offset="0" />
      <stop
         id="SvgjsStop7227"
         stop-opacity="0.7372"
         stop-color="#231b13"
         offset="0.2628" />
      <stop
         id="SvgjsStop7228"
         stop-opacity="0.5527"
         stop-color="#2b231c"
         offset="0.4473" />
      <stop
         id="SvgjsStop7229"
         stop-opacity="0.3921"
         stop-color="#38312c"
         offset="0.6079" />
      <stop
         id="SvgjsStop7230"
         stop-opacity="0.2453"
         stop-color="#4b4641"
         offset="0.7547" />
      <stop
         id="SvgjsStop7231"
         stop-opacity="0.1091"
         stop-color="#62605e"
         offset="0.8909" />
      <stop
         id="SvgjsStop7232"
         stop-opacity="0"
         stop-color="#7a7a7a"
         offset="1" />
    </linearGradient>
    <linearGradient
       id="SvgjsLinearGradient7292"
       x1="80.9656"
       y1="87.264"
       x2="80.9656"
       y2="114.3098"
       gradientUnits="userSpaceOnUse"
       class="svga-on-canvas-glasses-gradient-single-0-null">
      <stop
         id="SvgjsStop7293"
         stop-opacity="1"
         stop-color="#ff73b2"
         offset="0.004166667" />
      <stop
         id="SvgjsStop7294"
         stop-opacity="0.8085"
         stop-color="#ff75ae"
         offset="0.1949" />
      <stop
         id="SvgjsStop7295"
         stop-opacity="0.5986"
         stop-color="#ff79a0"
         offset="0.4039" />
      <stop
         id="SvgjsStop7296"
         stop-opacity="0.3799"
         stop-color="#ff818a"
         offset="0.6217" />
      <stop
         id="SvgjsStop7297"
         stop-opacity="0.1566"
         stop-color="#ff8b6c"
         offset="0.844" />
      <stop
         id="SvgjsStop7298"
         stop-opacity="0"
         stop-color="#ff9452"
         offset="1" />
    </linearGradient>
    <linearGradient
       id="SvgjsLinearGradient7300"
       x1="-19.0344"
       y1="87.264"
       x2="-19.0344"
       y2="114.3098"
       gradientTransform="matrix(-1 0 0 1 100 0)"
       gradientUnits="userSpaceOnUse"
       class="svga-on-canvas-glasses-gradient-single-1-null">
      <stop
         id="SvgjsStop7301"
         stop-opacity="1"
         stop-color="#ff73b2"
         offset="0.004166667" />
      <stop
         id="SvgjsStop7302"
         stop-opacity="0.8085"
         stop-color="#ff75ae"
         offset="0.1949" />
      <stop
         id="SvgjsStop7303"
         stop-opacity="0.5986"
         stop-color="#ff79a0"
         offset="0.4039" />
      <stop
         id="SvgjsStop7304"
         stop-opacity="0.3799"
         stop-color="#ff818a"
         offset="0.6217" />
      <stop
         id="SvgjsStop7305"
         stop-opacity="0.1566"
         stop-color="#ff8b6c"
         offset="0.844" />
      <stop
         id="SvgjsStop7306"
         stop-opacity="0"
         stop-color="#ff9452"
         offset="1" />
    </linearGradient>
    <linearGradient
       id="SvgjsLinearGradient7381"
       x1="81.4379"
       y1="89.2881"
       x2="81.4379"
       y2="108.3286"
       gradientUnits="userSpaceOnUse"
       class="svga-on-canvas-glasses-gradient-single-0-null">
      <stop
         id="SvgjsStop7382"
         stop-opacity="1"
         stop-color="#ffba38"
         offset="0.004166667" />
      <stop
         id="SvgjsStop7383"
         stop-opacity="0.8314"
         stop-color="#f5b232"
         offset="0.1721" />
      <stop
         id="SvgjsStop7384"
         stop-opacity="0.541"
         stop-color="#d99d24"
         offset="0.4612" />
      <stop
         id="SvgjsStop7385"
         stop-opacity="0.1664"
         stop-color="#ac7b0c"
         offset="0.8343" />
      <stop
         id="SvgjsStop7386"
         stop-opacity="0"
         stop-color="#966a00"
         offset="1" />
    </linearGradient>
    <linearGradient
       id="SvgjsLinearGradient7389"
       x1="-18.5595"
       y1="89.2881"
       x2="-18.5595"
       y2="108.3286"
       gradientTransform="matrix(-1 0 0 1 100 0)"
       gradientUnits="userSpaceOnUse"
       class="svga-on-canvas-glasses-gradient-single-2-null">
      <stop
         id="SvgjsStop7390"
         stop-opacity="1"
         stop-color="#ffba38"
         offset="0.004166667" />
      <stop
         id="SvgjsStop7391"
         stop-opacity="0.8314"
         stop-color="#f5b232"
         offset="0.1721" />
      <stop
         id="SvgjsStop7392"
         stop-opacity="0.541"
         stop-color="#d99d24"
         offset="0.4612" />
      <stop
         id="SvgjsStop7393"
         stop-opacity="0.1664"
         stop-color="#ac7b0c"
         offset="0.8343" />
      <stop
         id="SvgjsStop7394"
         stop-opacity="0"
         stop-color="#966a00"
         offset="1" />
    </linearGradient>
  </defs>
  <g
     id="svga-group-backs-single">
    <path
       id="SvgjsPath8287"
       d="M 0,0 H 200 V 200 H 0 Z"
       fill="#99dfd1"
       stroke-width="none"
       opacity="1"
       stroke="none" />
    <path
       id="SvgjsPath8288"
       d="M 0,0 V 10.1 L 76.5,100 Z M 0,34.1 V 50 l 76.5,58.3 z m 0,37.1 v 13.6 l 76.5,33.4 z M 38.3,0 H 21.1 L 88.3,108.3 Z M 74.6,0 H 61 L 88.2,90 Z M 0,108.3 v 9.9 l 76.5,9.9 z M 0,144 v 13.6 l 76.5,-22.1 z m 0,35.7 V 200 L 88.3,135.5 Z M 38.3,200 H 54.7 L 81.2,157.6 Z M 123.5,100 200,10.1 V 0 Z M 200,50 V 34.1 l -76.5,74.2 z m 0,34.8 V 71.2 l -76.5,47 z M 178.9,0 h -17.2 l -50,108.3 z M 139,0 h -13.6 l -13.6,90 z m 61,118.2 v -9.9 L 123.5,128 Z m 0,39.4 V 144 l -76.5,-8.5 z m 0,42.4 v -20.3 l -88.3,-44.2 z m -54.7,0 h 16.4 l -43,-42.4 z M 111.7,0 H 88.3 L 100,100 Z M 76.5,200 h 11.7 l 6.4,-58.5 z m 35.2,0 h 11.7 l -18.2,-58.5 z m -17,0 h 10.6 L 100,157.6 Z"
       fill="#7ad0bf"
       stroke-width="none"
       opacity="1"
       stroke="none" />
  </g>
  <g
     id="g526"
     transform="translate(-1.454364,-13.100386)">
    <g
       id="svga-group-humanwrap-move">
      <g
         id="svga-group-humanwrap"
         transform="matrix(1.0500003,0,0,1.0500003,-5.0069044,-6.4277497)">
        <g
           id="svga-group-hair-back-move">
          <g
             id="svga-group-hair-back">
            <path
               id="SvgjsPath3929"
               d="m 85.5,39.3 c 0,0 -26,4.5 -33.6,29.6 -7.6,25.1 -0.6,18.1 -3.4,35.8 -2.8,17.7 0.8,26.5 4.8,30.5 0,0 -4.2,8.8 1.1,16.4 0,0 -5.1,3.7 -2.8,11.3 0,0 -6.8,3.4 -2.8,14.9 4,11.6 15.8,8.5 18.9,4.2 3.1,-4.2 45.2,-28.2 49.7,-29.6 4.5,-1.4 18.6,-9.6 22.3,-22.9 0,0 9,-11.8 5.9,-30.2 0,0 5.1,-14.7 0.9,-28.5 C 142.3,57 133.2,48.8 125.3,48.5 117.4,48.2 90.9,42.3 90.9,42.3 Z"
               fill="#2a232b"
               stroke-width="none"
               opacity="1"
               stroke="none" />
            <path
               id="SvgjsPath3930"
               d="m 57.7,65.3 c 0,0 -6,10.5 -6.2,18.1 -0.2,7.6 0,14.7 -1.7,22.9 -1.7,8.2 2,15 8.8,19.8 6.8,4.8 9.7,11.5 11.7,15.2 2,3.7 20.9,10.4 16.7,-12.8 C 85.5,120.6 62.6,74.5 61.8,71.4 61,68.3 57.7,65.3 57.7,65.3 Z m 77.6,21.2 c 0,0 7.1,11 6.2,21 -0.9,10 -2,20.1 -7.6,27.2 -5.7,7.1 -16.7,10.8 -16.7,10.8 l 8.5,-28.9 z"
               fill="#221b23"
               stroke-width="none"
               opacity="1"
               stroke="none" />
          </g>
        </g>
        <g
           id="svga-group-humanbody-back">
          <path
             id="SvgjsPath3152"
             d="M 168.5,219.5 166.8,198 c 0,0 0.7,-9 -8.8,-15.3 -9.5,-6.3 -23.4,-10.1 -29.5,-14.2 -6.1,-4.1 -9.2,-4.5 -9,-16.9 0.2,-12.4 0.9,-40.3 0.9,-40.3 H 79.6 c 0,0 0.7,27.9 0.9,40.3 0.2,12.4 -2.9,12.8 -9,16.9 -6.1,4.1 -20,7.9 -29.5,14.2 -9.5,6.3 -8.8,15.3 -8.8,15.3 l -1.6,21.5 z"
             fill="#f3d4cf"
             stroke-width="none"
             opacity="1"
             stroke="none" />
        </g>
        <g
           id="svga-group-chinshadow-single">
          <path
             id="SvgjsPath8835"
             d="m 83.1,156.9 c 5,5.2 12.1,7.4 16.9,7.4 4.8,0 12,-2.1 16.9,-7.4 0.86,-0.92 1.73,-1.91 2.61,-2.96 -0.02,-0.73 -0.02,-1.5 -0.01,-2.34 0.2,-12.4 0.9,-40.3 0.9,-40.3 H 79.6 c 0,0 0.7,27.9 0.9,40.3 0.01,0.85 0.01,1.64 -0.01,2.38 0.88,1.04 1.76,2.01 2.61,2.92 z"
             fill="#d4958a"
             stroke-width="none"
             opacity="0.65"
             stroke="none" />
        </g>
        <g
           id="svga-group-humanbody-front">
          <path
             id="SvgjsPath3153"
             d="m 73.8,175.9 c 5.1,2.9 11.8,5.2 17.6,5.7 0.4,0 0.4,-0.6 0.1,-0.7 -2.8,-1.1 -5.9,-1.7 -8.8,-2.6 -2.9,-0.9 -5.8,-2 -8.8,-2.7 -0.1,-0.1 -0.3,0.2 -0.1,0.3 z m 35.2,6.2 c 5.3,-0.6 11.3,-3 15.9,-5.8 0.3,-0.2 0.1,-0.6 -0.2,-0.5 -2.6,0.9 -5.2,2 -7.8,2.9 -2.6,0.9 -5.4,1.5 -8,2.5 -0.5,0.1 -0.5,0.9 0.1,0.9 z"
             fill="#d4958a"
             stroke-width="none"
             opacity="1"
             stroke="none" />
          <path
             id="SvgjsPath3154"
             d="M 168.4,219.4 166.3,198 c 0,-2.2 -0.5,-4.5 -1.5,-6.6 -0.9,-2.1 -2.3,-3.9 -3.9,-5.5 -1.6,-1.6 -3.5,-2.8 -5.5,-4 -2,-1.2 -4.1,-2.2 -6.2,-3.1 -4.2,-1.9 -8.6,-3.6 -12.9,-5.4 -2.2,-0.9 -4.3,-1.9 -6.4,-3 -1.1,-0.6 -2.1,-1.2 -3,-1.9 -1,-0.6 -2,-1.2 -3,-1.9 -1,-0.7 -2,-1.5 -2.8,-2.6 -0.8,-1 -1.3,-2.2 -1.7,-3.4 -0.7,-2.4 -0.8,-4.8 -0.8,-7.2 0,-4.7 0.2,-9.4 0.3,-14.1 0.2,-9.4 0.6,-18.7 0.9,-28 l 0.6,0.6 -20.4,-0.2 -20.4,-0.1 0.3,-0.3 0.7,28 c 0.1,4.7 0.3,9.3 0.4,14 0,2.4 -0.1,4.7 -0.8,7.1 -0.3,1.2 -0.9,2.3 -1.6,3.3 -0.8,1 -1.7,1.8 -2.7,2.5 -1,0.7 -2,1.3 -2.9,2 -0.9,0.6 -1.9,1.3 -3,1.9 -2.1,1.2 -4.2,2.1 -6.4,3.1 -4.3,1.9 -8.6,3.6 -12.8,5.6 -2.1,1 -4.2,2.1 -6.1,3.2 -2,1.2 -3.8,2.4 -5.4,4 -1.6,1.6 -2.9,3.4 -3.8,5.4 -0.4,1 -0.8,2.1 -1,3.1 -0.2,1.1 -0.4,2.2 -0.3,3.2 v 0.2 l -1.5,21.5 -1,-1.1 34,0.1 c 11.3,0 22.7,0.1 34.1,0.2 l 34.2,0.3 z m 0.2,0.2 -34,0.4 -34.2,0.3 C 89,220.4 77.5,220.5 66,220.5 l -34.4,0.1 h -1.1 l 0.1,-1.1 1.7,-21.5 v 0.1 c -0.1,-5.1 2.2,-9.8 5.7,-13.3 1.7,-1.7 3.8,-3.1 5.8,-4.3 2,-1.2 4.2,-2.2 6.3,-3.2 4.3,-2 8.7,-3.7 13,-5.4 2.1,-0.9 4.3,-1.8 6.3,-2.9 1,-0.5 1.9,-1.1 3,-1.8 1,-0.6 2,-1.2 2.9,-1.9 0.9,-0.6 1.8,-1.4 2.4,-2.2 0.7,-0.9 1.2,-1.9 1.5,-2.9 0.6,-2.1 0.8,-4.5 0.8,-6.8 0,-4.6 -0.1,-9.3 -0.2,-14 l -0.6,-28 v -0.3 h 0.3 l 20.4,-0.1 20.4,-0.2 h 0.6 v 0.6 c -0.1,9.3 -0.2,18.7 -0.4,28 -0.1,4.7 -0.2,9.4 -0.2,14 0.1,2.3 0.2,4.6 0.8,6.7 0.3,1.1 0.8,2 1.4,2.9 0.6,0.8 1.4,1.6 2.4,2.2 0.9,0.6 1.9,1.3 2.9,1.9 1,0.7 1.9,1.3 2.9,1.8 2,1.1 4.1,2.1 6.3,3 4.3,1.8 8.6,3.6 12.9,5.6 2.1,1 4.2,2.1 6.2,3.3 2,1.2 4,2.6 5.7,4.3 3.4,3.4 5.6,8.1 5.4,13 V 198 Z m -112.8,-0.4 1.9,-13.8 0.1,13.8 z m 88.6,0 -1.9,-13.8 -0.1,13.8 z"
             fill="#c5796d"
             stroke-width="none"
             opacity="1"
             stroke="none" />
        </g>
        <g
           id="svga-group-clothes-single">
          <path
             id="SvgjsPath7664"
             d="m 122.4,220 2.7,-26.8 c 0,0 -14.3,16 -25,19.1 0,0 -16.5,-9.3 -26.3,-19.1 l 3.9,26.8 z"
             fill="#efefef"
             stroke-width="none"
             opacity="1" />
          <path
             id="SvgjsPath7665"
             d="m 125.3,192.9 c -0.2,-0.2 -0.4,-0.1 -0.6,0 a 147.859,147.859 0 0 1 -11.5,10.9 c -2,1.7 -4.1,3.3 -6.3,4.8 -2.2,1.4 -4.5,2.7 -6.9,3.5 -2.3,-1.3 -4.6,-2.7 -6.9,-4.2 -2.3,-1.5 -4.5,-3 -6.7,-4.6 -4.4,-3.2 -8.6,-6.6 -12.4,-10.4 -0.1,-0.1 -0.2,-0.1 -0.3,-0.1 -0.2,0 -0.3,0.2 -0.3,0.4 0.6,4.5 1.2,8.9 1.8,13.4 0.6,4.5 1.2,8.9 1.9,13.4 0,0.2 0.3,0.4 0.5,0.4 h 11.3 l 11.2,-0.1 11.2,-0.1 11.1,-0.2 1.6,-13.3 1.5,-13.5 c 0,-0.1 -0.1,-0.2 -0.2,-0.3 z m -1.9,13.5 -1.1,13.5 -11.3,-0.2 -11.2,-0.1 -11.2,-0.1 H 77.9 c -0.6,-4.3 -1.3,-8.6 -1.9,-13 -0.6,-4.1 -1.2,-8.2 -1.9,-12.3 3.7,3.5 7.8,6.6 11.9,9.5 2.2,1.6 4.5,3.1 6.8,4.5 2.3,1.4 4.6,2.9 7,4.3 h 0.1 c 2.6,-0.8 4.9,-2 7.2,-3.4 2.3,-1.4 4.4,-3 6.5,-4.6 2.1,-1.7 4.1,-3.4 6,-5.3 1.6,-1.5 3.2,-3.2 4.7,-4.8 -0.2,4 -0.5,8 -0.9,12 z"
             fill="#87105d"
             stroke-width="none"
             opacity="1"
             stroke="none" />
          <path
             id="SvgjsPath7666"
             d="m 75.7,167.9 c 0,0 1.2,-3.7 1.7,-6.4 0.6,-2.7 0.4,-9.3 0.4,-9.3 0,0 -1.9,4.1 -4.6,6.4 -2.7,2.3 -13.2,9.1 -13.2,9.1 l 2.3,1.6 c 0,0 -24.6,8.7 -26.3,9.9 -1.7,1.2 -1.9,3.7 -1.9,3.7 l -2.1,0.6 c -4.1,16.8 -4.1,36.6 -4.1,36.6 h 54.5 c 0,0 -2.3,-16.6 -3.3,-23 -0.9,-6.5 -3.4,-29.2 -3.4,-29.2 z m 92.7,15.5 -2.1,-0.6 c 0,0 -0.2,-2.5 -1.9,-3.7 -1.7,-1.2 -26.3,-9.9 -26.3,-9.9 l 2.3,-1.6 c 0,0 -10.4,-6.8 -13.2,-9.1 -2.7,-2.3 -4.6,-6.4 -4.6,-6.4 0,0 -0.2,6.6 0.4,9.3 0.6,2.7 1.7,6.4 1.7,6.4 0,0 -2.5,22.6 -3.5,29 -1,6.4 -3.3,23 -3.3,23 h 54.5 c 0,0.2 0,-19.5 -4,-36.4 z"
             fill="#a6357e"
             stroke-width="none"
             opacity="1"
             stroke="none" />
          <path
             id="SvgjsPath7667"
             d="m 140.3,179 c -1.8,-1.9 -4.2,-3.2 -6.2,-5 -2,-1.8 -3.6,-3.9 -5.4,-5.9 -0.2,-0.2 -0.6,0.1 -0.4,0.3 1.3,2.5 3.1,4.7 5.1,6.7 1.7,1.7 3.9,3.9 6.3,4.7 -5.2,9.5 -8.4,21.2 -9.6,31.9 0,0.2 0.3,0.3 0.4,0.1 1.2,-5.5 2.2,-11 3.9,-16.4 1.6,-5.4 4.1,-10.4 6.1,-15.7 0.1,-0.1 0,-0.2 -0.1,-0.3 0.1,-0.1 0,-0.2 -0.1,-0.4 z m -2,-11.9 c -2.1,-1.2 -4.3,-2.2 -6.3,-3.6 -2.2,-1.5 -4.2,-3.3 -6.1,-5.2 -0.2,-0.2 -0.4,0.1 -0.2,0.2 3.1,3.9 7.5,7.8 12.4,9.1 0.3,0.2 0.5,-0.3 0.2,-0.5 z m 18.9,10.5 c -5.7,-2.4 -11.6,-4.6 -17.5,-6.4 -0.2,-0.1 -0.3,0.2 -0.1,0.3 3.5,1.7 7.1,3.3 10.7,4.8 4.6,1.9 10.2,3.1 12.7,7.8 0.2,0.4 0.8,0.1 0.7,-0.3 -0.6,-3.5 -3.5,-5 -6.5,-6.2 z m 9.5,8.4 c -0.1,-0.4 -0.7,-0.3 -0.7,0.1 0.7,5.4 1.9,10.6 2.5,16 0.6,5.4 0.4,10.9 1.1,16.2 0,0.4 0.5,0.4 0.6,0 1.2,-9.9 -0.4,-22.8 -3.5,-32.3 z M 74.1,169.1 c 0.5,-1 0.6,-2.2 0.8,-3.3 0.3,-1.2 0.7,-2.4 1,-3.6 0.1,-0.2 -0.2,-0.3 -0.3,-0.1 -0.7,1 -1.1,2.1 -1.6,3.2 -0.4,1.1 -0.9,2.4 -0.8,3.6 0.1,0.4 0.7,0.7 0.9,0.2 z m -0.3,1.6 c 0,-0.1 -0.2,-0.1 -0.2,0 -0.1,6.5 1.2,13.2 2.2,19.7 1,7.1 2.1,14.3 4,21.3 0,0.1 0.1,0 0.1,0 -0.7,-6.6 -1.8,-13.1 -2.8,-19.6 -1.2,-7 -1.5,-14.4 -3.3,-21.4 z m -5.1,0 c -2.8,3.1 -5.4,5.9 -8.8,8.3 -0.4,0.3 -0.3,0.9 0.1,1 1.4,4.4 3.4,8.5 4.8,12.9 1.4,4.5 2.3,9.2 3.5,13.7 0.1,0.3 0.5,0.2 0.5,-0.1 -0.5,-8.7 -3.2,-19.2 -7.9,-26.7 3.3,-2.3 6.5,-5.2 8.4,-8.7 0,-0.4 -0.4,-0.7 -0.6,-0.4 z m -32.6,11.1 c 1.3,5.7 3.9,11.4 5.9,16.9 0.1,0.3 0.5,0.2 0.5,-0.1 -1.1,-5.6 -2.6,-12.2 -5.6,-17.1 -0.4,-0.4 -0.9,-0.1 -0.8,0.3 z"
             fill="#b54c90"
             stroke-width="none"
             opacity="1"
             stroke="none" />
          <path
             id="SvgjsPath7668"
             d="m 80.7,200.4 c -0.3,-2.2 -0.6,-4.3 -0.9,-6.5 -1.1,-8.6 -2.2,-17.3 -3.4,-25.9 0.4,-1.2 0.7,-2.5 1,-3.7 0.1,-0.3 0.2,-0.6 0.2,-0.9 0.3,-0.4 0.9,-1.1 1.3,-2 0.6,-1.4 1.1,-3.8 1.2,-6.2 0.1,-2.4 0,-4.8 0,-4.8 0,0 -2.4,1.1 -2.5,1.8 -0.9,1.8 -1.9,3.4 -3.2,4.9 -1.2,1.5 -2.9,2.6 -4.5,3.8 -3,2.1 -6,4.1 -9.2,6 -0.3,0.2 -0.6,0.3 -0.9,0.5 l -0.1,0.1 c -0.2,0.2 -0.1,0.5 0.1,0.6 0.4,0.3 0.8,0.6 1.2,0.8 l 0.2,0.2 c -4.8,1.6 -9.6,3.2 -14.4,4.9 -2.5,0.9 -5.1,1.8 -7.6,2.8 l -1.9,0.8 -1,0.4 c -0.3,0.2 -0.7,0.3 -1,0.6 -0.7,0.5 -1.2,1.2 -1.5,1.9 -0.2,0.5 -0.4,1.1 -0.5,1.6 l -1.6,0.4 c -0.3,0.1 -0.5,0.3 -0.6,0.6 -1.4,6 -2.2,12.2 -2.8,18.3 -0.2,3.1 -0.5,6.1 -0.5,9.2 0,1.5 -0.1,3.1 -0.1,4.6 v 4.6 l 27,0.6 13.8,0.2 c 4.6,0.1 9.2,0.1 13.8,0.1 h 0.2 c 0.6,-0.1 1,-0.6 0.9,-1.2 l -1.8,-13 z M 28,219.9 c 0.1,-0.1 0,-0.3 0.1,-0.5 v -0.6 l 0.1,-1.1 0.1,-2.3 c 0.1,-1.5 0.2,-3.1 0.4,-4.6 0.3,-3.1 0.6,-6.1 1,-9.1 0.4,-3 0.9,-6.1 1.4,-9.1 0.5,-2.9 1.1,-5.7 1.8,-8.5 l 1.6,-0.4 h 0.1 c 0.5,1.2 1.1,2.4 1.5,3.7 l 0.9,2.2 0.8,2.3 c 1,3 1.9,6.1 2.6,9.2 0.8,3.1 1.4,6.2 2,9.4 0.3,1.6 0.5,3.2 0.7,4.8 0.2,1.4 0.4,2.9 0.5,4.4 z m 41,-0.8 -13.5,0.2 -12,0.3 c 0,-3.1 -0.2,-6.2 -0.6,-9.2 -0.4,-3.2 -1,-6.4 -1.7,-9.5 -0.8,-3.1 -1.7,-6.2 -2.9,-9.2 -1,-2.8 -2.3,-5.4 -3.8,-8 0.2,-0.1 0.4,-0.4 0.4,-0.6 0.1,-1.1 0.6,-2.3 1.4,-2.9 0.2,-0.2 0.4,-0.2 0.7,-0.4 l 0.9,-0.4 1.9,-0.8 7.5,-2.9 15,-5.7 c 1.2,0.6 2.5,1.1 3.9,1.5 -0.5,0.4 -1,0.9 -1.5,1.3 -1.2,1 -2.5,2 -3.7,3 -1.3,0.9 -2.6,1.8 -3.9,2.6 -0.4,0.2 -0.5,0.7 -0.4,1.1 1.3,3.3 2.6,6.6 3.8,9.9 1.2,3.3 2.3,6.7 3.5,10.1 1.1,3.4 2.1,6.8 3.1,10.2 0.9,3.1 1.6,6.3 2.4,9.5 -0.2,-0.1 -0.3,-0.1 -0.5,-0.1 z m 0.6,0 c -0.3,-3.3 -0.7,-6.5 -1.3,-9.7 -0.7,-3.5 -1.5,-7 -2.5,-10.5 -1,-3.5 -2.1,-6.9 -3.3,-10.3 -1.2,-3.1 -2.4,-6.2 -3.8,-9.3 1.2,-0.8 2.2,-1.6 3.3,-2.5 1.2,-1 2.4,-2.1 3.6,-3.3 2.3,-2.3 4.5,-4.6 6.5,-7.1 -1.9,1.7 -3.7,3.3 -5.6,4.9 -1.2,-0.9 -2.4,-1.6 -3.7,-2.3 0,0 0,-0.1 -0.1,-0.1 l -1.1,-0.7 c -0.2,-0.1 -0.4,-0.3 -0.7,-0.4 0.1,-0.1 0.2,-0.1 0.3,-0.2 3,-2 6,-4.1 9,-6.2 1.6,-1.2 3.3,-2.3 4.7,-3.8 1,-1.2 1.9,-2.5 2.7,-3.8 0,2.2 -0.1,4.4 -0.3,6.5 -0.2,1.3 -0.5,2.5 -0.9,3.8 -0.4,1.3 -0.8,2.5 -1.2,3.8 v 0.2 c 0.8,8.7 1.8,17.4 2.8,26.1 0.2,2.2 0.5,4.4 0.8,6.5 l 0.9,6.5 1.7,11.8 c -4,0 -7.9,0 -11.8,0.1 z m 102.9,-8.3 c -0.1,-3.1 -0.3,-6.1 -0.6,-9.2 -0.5,-6.1 -1.4,-12.3 -2.8,-18.3 -0.1,-0.3 -0.3,-0.5 -0.6,-0.6 l -1.6,-0.4 c -0.1,-0.6 -0.2,-1.1 -0.5,-1.6 -0.3,-0.7 -0.8,-1.4 -1.5,-1.9 -0.3,-0.3 -0.7,-0.4 -1.1,-0.6 l -1,-0.4 -1.9,-0.8 c -2.5,-1 -5.1,-1.9 -7.6,-2.8 -4.8,-1.7 -9.6,-3.3 -14.4,-4.9 l 0.2,-0.2 c 0.4,-0.3 0.8,-0.5 1.2,-0.8 0.2,-0.1 0.3,-0.4 0.1,-0.6 0,-0.1 -0.1,-0.1 -0.1,-0.1 -0.3,-0.2 -0.6,-0.4 -0.9,-0.5 -3.1,-1.9 -6.2,-3.9 -9.1,-6 -1.6,-1.2 -3.3,-2.3 -4.5,-3.8 -1.3,-1.5 -2.3,-3.2 -3.2,-4.9 0,-0.1 -0.1,-0.1 -0.1,-0.1 -0.5,-0.6 -2.4,-1.1 -2.4,-1.1 -0.1,2.9 -0.1,7.4 0.5,9.7 0.4,1.7 1.8,3.6 2.4,4.5 0.3,1 0.5,2 0.8,2.9 -1.2,8.6 -2.3,17.2 -3.4,25.9 -0.3,2.2 -0.6,4.3 -0.9,6.5 l -1,6.5 -1.8,13 c -0.1,0.6 0.3,1.1 0.9,1.2 h 0.2 c 4.6,0 9.2,0 13.8,-0.1 l 13.8,-0.2 27,-0.6 c 0.1,-0.3 0,-0.5 0.1,-0.6 v -4 c 0.1,-2.1 0.1,-3.6 0,-5.1 z m -53.4,8.1 1.7,-11.8 0.9,-6.5 c 0.3,-2.2 0.6,-4.3 0.8,-6.5 1,-8.7 1.9,-17.4 2.8,-26.1 v -0.2 c -0.4,-1.2 -0.8,-2.5 -1.2,-3.8 -0.3,-1.3 -0.7,-2.5 -0.9,-3.8 -0.2,-2.1 -0.3,-4.3 -0.3,-6.5 0.8,1.4 1.7,2.6 2.7,3.8 1.3,1.6 3.1,2.7 4.7,3.8 3,2.1 6,4.1 9,6.2 0.1,0.1 0.2,0.1 0.3,0.2 -0.2,0.1 -0.4,0.3 -0.7,0.4 l -1.1,0.7 -0.1,0.1 c -1.3,0.7 -2.5,1.4 -3.7,2.3 -1.9,-1.6 -3.8,-3.2 -5.6,-4.9 2,2.5 4.2,4.9 6.5,7.1 1.1,1.1 2.3,2.2 3.6,3.3 1.1,0.9 2.1,1.7 3.3,2.5 -1.4,3.1 -2.6,6.1 -3.8,9.3 -1.2,3.4 -2.4,6.8 -3.3,10.3 -1,3.4 -1.8,7 -2.5,10.5 -0.6,3.2 -1.1,6.5 -1.3,9.7 -4,0 -7.9,0 -11.8,-0.1 z m 25.8,0.4 -13.5,-0.2 h -0.5 c 0.8,-3.2 1.5,-6.3 2.4,-9.5 0.9,-3.4 2,-6.9 3.1,-10.2 1.1,-3.4 2.2,-6.8 3.5,-10.1 1.2,-3.3 2.5,-6.7 3.9,-9.9 0.2,-0.4 0,-0.9 -0.4,-1.1 -1.3,-0.7 -2.6,-1.6 -3.9,-2.6 -1.3,-0.9 -2.5,-1.9 -3.7,-3 -0.5,-0.4 -1,-0.9 -1.5,-1.3 1.3,-0.4 2.6,-1 3.9,-1.5 l 15,5.7 7.5,2.9 1.9,0.8 0.9,0.4 c 0.3,0.1 0.5,0.2 0.7,0.4 0.8,0.6 1.3,1.8 1.4,2.9 0,0.3 0.2,0.5 0.4,0.6 -1.4,2.6 -2.7,5.2 -3.8,8 -1.2,3 -2.1,6.1 -2.9,9.2 -0.7,3.1 -1.4,6.3 -1.7,9.5 -0.4,3.1 -0.6,6.1 -0.6,9.2 z m 12,0.3 c 0.2,-1.5 0.3,-2.9 0.6,-4.4 0.2,-1.6 0.5,-3.2 0.7,-4.8 0.6,-3.2 1.2,-6.3 1.9,-9.4 0.7,-3.1 1.6,-6.2 2.6,-9.2 l 0.8,-2.3 0.9,-2.2 c 0.4,-1.2 1,-2.4 1.5,-3.7 h 0.1 l 1.6,0.4 c 0.6,2.8 1.3,5.6 1.8,8.5 0.5,3 1,6 1.4,9.1 0.4,3 0.7,6.1 0.9,9.1 0.1,1.5 0.3,3.1 0.4,4.6 l 0.1,2.3 0.1,1.1 v 0.6 c 0,0.2 0,0.4 0.1,0.5 z"
             fill="#87105d"
             stroke-width="none"
             opacity="1"
             stroke="none" />
        </g>
        <g
           id="svga-group-head">
          <g
             id="svga-group-ears-left-move">
            <g
               id="svga-group-ears-left">
              <path
                 id="SvgjsPath9839"
                 d="M 64.2,96.3 C 64,96 61.1,92.3 58.7,90 c -2.5,-2.3 -3.2,-2.2 -4.4,-0.8 -1.2,1.4 -2.7,8.5 -2.3,11.7 0.4,3.2 3.3,8.2 4.9,11 1.6,2.8 3.1,6.3 4.8,6 1.8,-0.3 4.2,-4.3 5.3,-7.3 1.2,-3 0.6,-10.3 -2.8,-14.3 z"
                 fill="#f3d4cf"
                 stroke-width="none"
                 opacity="1" />
              <path
                 id="SvgjsPath9840"
                 d="m 67.9,104.8 c 0.1,0.8 0.2,1.6 0.2,2.4 0,0.8 0,1.6 -0.2,2.4 l -0.3,1.2 c -0.1,0.4 -0.3,0.7 -0.4,1 -0.3,0.7 -0.6,1.3 -0.9,2 -0.7,1.2 -1.4,2.4 -2.4,3.4 -0.5,0.5 -1,1 -1.7,1.2 -0.3,0.1 -0.8,0.1 -1.2,0 -0.4,-0.2 -0.7,-0.4 -1,-0.7 -1.2,-1.2 -1.8,-2.6 -2.5,-4 -0.7,-1.4 -1.4,-2.7 -2.1,-4.1 -0.7,-1.4 -1.4,-2.8 -2,-4.2 -0.3,-0.7 -0.6,-1.4 -0.9,-2.2 -0.3,-0.7 -0.5,-1.5 -0.6,-2.3 -0.2,-1.6 0,-3.2 0.1,-4.7 0.2,-1.5 0.4,-3 0.8,-4.5 0.2,-0.7 0.4,-1.5 0.7,-2.2 0.1,-0.2 0.2,-0.3 0.3,-0.5 0.1,-0.2 0.2,-0.4 0.3,-0.5 0.2,-0.3 0.5,-0.5 0.8,-0.7 0.3,-0.2 0.7,-0.3 1.1,-0.3 0.4,0.1 0.7,0.2 1.1,0.4 0.6,0.4 1.1,0.9 1.7,1.4 2,2.1 3.7,4.5 5.6,6.8 1.8,2.5 2.9,5.6 3.5,8.7 z M 58.3,90.2 c -1,-0.8 -2.2,-1.7 -2.9,-1.2 -0.2,0.1 -0.4,0.3 -0.6,0.6 -0.1,0.1 -0.2,0.2 -0.2,0.3 -0.1,0.1 -0.1,0.3 -0.2,0.4 -0.3,0.6 -0.5,1.2 -0.7,1.9 -0.4,1.3 -0.8,2.8 -1.1,4.2 -0.3,1.4 -0.5,3 -0.4,4.4 0.1,0.7 0.3,1.5 0.5,2.2 l 0.9,2.1 c 0.6,1.4 1.4,2.7 2.2,4 0.8,1.3 1.6,2.6 2.3,3.9 0.4,0.7 0.7,1.3 1.1,1.9 0.4,0.6 0.8,1.2 1.2,1.6 0.4,0.4 0.8,0.6 1.2,0.4 0.4,-0.2 0.9,-0.5 1.3,-1 0.8,-0.9 1.5,-2 2.2,-3.2 l 0.9,-1.8 c 0.1,-0.3 0.3,-0.6 0.4,-0.9 l 0.2,-0.4 c 0,-0.2 0.1,-0.3 0.1,-0.5 0.3,-1.3 0.3,-2.8 0.3,-4.3 -0.1,-1.5 -0.3,-3 -0.8,-4.5 -0.5,-1.5 -1.2,-2.9 -2.1,-4 -1.7,-2.2 -3.7,-4.4 -5.8,-6.1 z"
                 fill="#e4b3ab"
                 stroke-width="none"
                 opacity="1" />
              <path
                 id="SvgjsPath9841"
                 d="m 54.1,102.4 c -0.2,-2.1 -0.4,-7.4 0.8,-9 2,-2.7 5.6,6.1 6.5,8.8 0,0.1 0.1,0.2 0.1,0.2 0.1,0.3 -0.1,0.7 -0.4,0.6 -0.4,-0.2 -0.8,-0.6 -1.2,-0.8 -1.1,-0.5 -1.5,0.4 -1.2,1.7 0.4,1.7 1.3,2.7 2.1,4 0.1,0.2 0,0.4 -0.2,0.3 -1.5,-0.9 -3.3,-4.2 -2.9,-6.2 0.3,-1.8 1.8,-1.7 2.9,-0.8 -0.7,-1.6 -1.4,-3.1 -2.3,-4.5 -0.6,-0.9 -1.1,-1.9 -2,-2 -1.1,-0.2 -0.9,0.3 -1.1,1.7 -0.8,4.6 -0.3,9.7 2.4,13.7 0.1,0.1 0,0.2 -0.1,0.1 -2,-2.2 -3.1,-4.7 -3.4,-7.8 z"
                 fill="#d4958a"
                 stroke-width="none"
                 opacity="1" />
            </g>
          </g>
          <g
             id="svga-group-ears-right-move">
            <g
               id="svga-group-ears-right">
              <path
                 id="SvgjsPath9842"
                 d="m 135.8,96.3 c 0.2,-0.3 3.1,-4 5.5,-6.3 2.5,-2.3 3.2,-2.2 4.4,-0.8 1.2,1.4 2.7,8.5 2.3,11.7 -0.4,3.2 -3.3,8.2 -4.9,11 -1.6,2.8 -3.1,6.3 -4.8,6 -1.8,-0.3 -4.2,-4.3 -5.3,-7.3 -1.2,-3 -0.6,-10.3 2.8,-14.3 z"
                 fill="#f3d4cf"
                 stroke-width="none"
                 opacity="1" />
              <path
                 id="SvgjsPath9843"
                 d="m 135.7,96.3 c 1.8,-2.3 3.5,-4.7 5.6,-6.8 0.5,-0.5 1,-1 1.7,-1.4 0.3,-0.2 0.7,-0.4 1.1,-0.4 0.4,-0.1 0.8,0.1 1.1,0.3 0.3,0.2 0.6,0.5 0.8,0.7 0.1,0.1 0.2,0.3 0.3,0.5 0.1,0.2 0.2,0.3 0.3,0.5 0.3,0.7 0.5,1.4 0.7,2.2 0.4,1.5 0.6,3 0.8,4.5 0.1,1.5 0.3,3.1 0.1,4.7 -0.1,0.8 -0.3,1.6 -0.6,2.3 -0.3,0.8 -0.6,1.5 -0.9,2.2 -0.6,1.4 -1.3,2.8 -2,4.2 -0.7,1.4 -1.4,2.7 -2.1,4.1 -0.7,1.4 -1.4,2.8 -2.5,4 -0.3,0.3 -0.6,0.6 -1,0.7 -0.4,0.1 -0.9,0.2 -1.2,0 -0.7,-0.2 -1.2,-0.7 -1.7,-1.2 -1,-1 -1.7,-2.2 -2.4,-3.4 -0.3,-0.6 -0.6,-1.3 -0.9,-2 -0.1,-0.3 -0.3,-0.7 -0.4,-1 l -0.3,-1.2 c -0.1,-0.8 -0.2,-1.6 -0.2,-2.4 0,-0.8 0.1,-1.6 0.2,-2.4 0.5,-3.3 1.6,-6.4 3.5,-8.7 z m 0.1,0.1 c -0.9,1.1 -1.6,2.5 -2.1,4 -0.5,1.5 -0.7,3 -0.8,4.5 -0.1,1.5 0,3 0.3,4.3 0,0.2 0.1,0.3 0.1,0.5 l 0.2,0.4 c 0.1,0.3 0.3,0.6 0.4,0.9 l 0.9,1.8 c 0.6,1.2 1.4,2.3 2.2,3.2 0.4,0.4 0.9,0.8 1.3,1 0.4,0.2 0.8,0 1.2,-0.4 0.4,-0.4 0.8,-1 1.2,-1.6 0.4,-0.6 0.8,-1.3 1.1,-1.9 0.7,-1.3 1.6,-2.6 2.3,-3.9 0.8,-1.3 1.5,-2.6 2.2,-4 l 0.9,-2.1 c 0.3,-0.7 0.5,-1.5 0.5,-2.2 0.1,-1.5 -0.1,-3 -0.4,-4.4 -0.3,-1.4 -0.6,-2.9 -1.1,-4.2 -0.2,-0.7 -0.5,-1.3 -0.7,-1.9 -0.1,-0.1 -0.1,-0.3 -0.2,-0.4 -0.1,-0.1 -0.1,-0.2 -0.2,-0.3 l -0.6,-0.6 c -0.7,-0.6 -1.8,0.4 -2.9,1.2 -2,1.6 -4,3.8 -5.8,6.1 z"
                 fill="#e4b3ab"
                 stroke-width="none"
                 opacity="1" />
              <path
                 id="SvgjsPath9844"
                 d="m 145.9,102.4 c 0.2,-2.1 0.4,-7.4 -0.8,-9 -2,-2.7 -5.6,6.1 -6.5,8.8 0,0.1 -0.1,0.2 -0.1,0.2 -0.1,0.3 0.1,0.7 0.4,0.6 0.4,-0.2 0.8,-0.6 1.2,-0.8 1.1,-0.5 1.5,0.4 1.2,1.7 -0.4,1.7 -1.3,2.7 -2.1,4 -0.1,0.2 0,0.4 0.2,0.3 1.5,-0.9 3.3,-4.2 2.9,-6.2 -0.3,-1.8 -1.8,-1.7 -2.9,-0.8 0.7,-1.6 1.4,-3.1 2.3,-4.5 0.6,-0.9 1.1,-1.9 2,-2 1.1,-0.2 0.9,0.3 1.1,1.7 0.8,4.6 0.3,9.7 -2.4,13.7 -0.1,0.1 0,0.2 0.1,0.1 2,-2.2 3.1,-4.7 3.4,-7.8 z"
                 fill="#d4958a"
                 stroke-width="none"
                 opacity="1" />
            </g>
          </g>
          <g
             id="svga-group-faceshape-wrap">
            <g
               id="svga-group-faceshape-single">
              <path
                 id="SvgjsPath8825"
                 d="M 100.06,41.44 C 78.66,41.44 60.2,56.9 59,85.4 c 0,0 0.35,20.61 3.05,28.21 1,3 11.92,22.35 21.12,32.05 5,5.2 11.95,7.2 16.75,7.2 4.8,0 11.8,-2.52 16.7,-7.72 9.3,-9.8 19.94,-28.25 20.94,-31.15 2.7,-7.7 3.43,-28.59 3.43,-28.59 C 139.8,57 121.46,41.44 100.06,41.44 Z"
                 fill="#f3d4cf"
                 stroke-width="none"
                 opacity="1"
                 stroke="none" />
              <path
                 id="SvgjsPath8826"
                 d="m 100,41.3 c -21.4,0 -39.8,15.6 -41,44.1 0,0 0,20.6 2.7,28.2 1,3 12.2,22.7 21.4,32.4 5,5.2 12.1,7.4 16.9,7.4 4.8,0 12,-2.2 16.9,-7.4 9.3,-9.8 20.4,-29.5 21.4,-32.4 C 141,105.9 141,85.4 141,85.4 139.8,57 121.4,41.3 100,41.3 Z m 30.1,16 0.7,1 0.6,1 c 1.6,2.6 2.9,5.4 3.9,8.3 l 1.1,3.3 c 0,0 1,4.2 1.3,5.7 l 0.2,1.1 0.1,0.6 0.1,0.6 0.1,1.1 c 0,0.4 0.1,0.8 0.1,1.1 0.1,0.8 0.1,1.5 0.2,2.3 l 0.1,2.2 -0.1,2.3 -0.1,2.4 c -0.1,1.6 -0.1,3.2 -0.2,4.7 -0.2,3.2 -0.4,6.3 -0.7,9.4 l -0.1,1.2 c 0,0.4 -0.1,0.8 -0.2,1.1 l -0.2,1.1 -0.2,1.1 c -0.1,0.8 -0.3,1.5 -0.4,2.2 -0.1,0.4 -0.2,0.7 -0.3,1 -0.1,0.3 -0.2,0.7 -0.3,0.9 l -0.4,0.9 c -0.1,0.3 -1.2,2.4 -1.6,3.1 -0.4,0.7 -0.8,1.4 -1.1,2.1 l -1.2,2.1 c -1.6,2.7 -3.2,5.5 -4.9,8.1 -1.7,2.7 -3.4,5.3 -5.3,7.9 -1.8,2.5 -3.7,5.1 -5.8,7.4 -1,1.1 -2.1,2.1 -3.2,3 -1.2,0.9 -2.5,1.7 -3.8,2.3 -1.3,0.7 -2.8,1.2 -4.2,1.6 -1.4,0.4 -2.9,0.6 -4.4,0.7 -1.5,0 -3,-0.1 -4.5,-0.4 -1.5,-0.3 -3,-0.7 -4.4,-1.3 -1.4,-0.6 -2.8,-1.3 -4.1,-2.1 -1.3,-0.9 -2.5,-1.8 -3.5,-2.9 l -1.6,-1.7 -1.5,-1.8 c -1,-1.2 -2,-2.5 -2.9,-3.8 -1.9,-2.5 -3.7,-5.2 -5.4,-7.9 -1.7,-2.7 -3.3,-5.4 -4.8,-8.2 L 66.1,120 c -0.4,-0.7 -0.7,-1.4 -1.1,-2.1 -0.4,-0.7 -0.7,-1.4 -1,-2.1 -0.2,-0.4 -0.3,-0.7 -0.5,-1.1 -0.2,-0.4 -0.3,-0.7 -0.4,-1 -0.4,-1.4 -0.7,-2.9 -0.9,-4.4 l -0.3,-2.4 c 0,-0.4 -0.1,-0.8 -0.1,-1.2 l -0.1,-1.2 c -0.2,-3.1 -0.3,-6.3 -0.4,-9.5 0,-1.6 -0.1,-3.2 -0.1,-4.8 v -4.7 c -0.02,-3.75 0.7,-7.4 0.7,-7.4 l 0.1,-0.6 0.2,-1.1 c 1.1,-6 3.1,-11.9 6.4,-17.2 1.6,-2.6 3.5,-5.1 5.7,-7.3 2.2,-2.2 4.7,-4.1 7.5,-5.7 0.7,-0.4 1.4,-0.8 2.1,-1.1 L 85,44.6 c 0,0 1.8,-0.7 2.2,-0.8 0,0 1.9,-0.6 2.2,-0.7 0.4,-0.1 2.6,-0.7 3.4,-0.8 l 2.4,-0.4 a 38.663,38.663 0 0 1 9.6,0 l 2.4,0.4 c 0.8,0.1 3.1,0.7 3.4,0.8 0.4,0.1 0.8,0.2 1.1,0.3 0,0 1.8,0.7 2.2,0.8 l 2.2,0.9 c 0.7,0.3 1.4,0.7 2.1,1.1 2.7,1.5 5.2,3.5 7.5,5.7 0.3,0.3 0.5,0.6 0.8,0.8 0.3,0.3 0.5,0.6 0.8,0.8 l 0.8,0.9 c 0.3,0.3 0.5,0.6 0.7,0.9 0.4,0.7 0.9,1.3 1.3,2 z"
                 fill="#c5796d"
                 stroke-width="none"
                 opacity="1"
                 stroke="none" />
            </g>
          </g>
          <g
             id="svga-group-mouth-single-move"
             transform="translate(-0.63492045,1.9047614)">
            <g
               id="svga-group-mouth-single">
              <path
                 id="SvgjsPath9470"
                 d="m 90,128.1 c 0,0 2,2.6 4,3.8 2,1.2 9.4,1.3 13.4,-0.2 4,-1.5 7.5,-6.6 8.1,-7.8 0,0 -2.9,1.9 -7.1,1.5 -4.3,-0.3 -13.7,0.8 -15.6,1.6 -1.9,0.8 -2.8,1.1 -2.8,1.1 z"
                 fill="#da7c87"
                 stroke-width="none"
                 opacity="1"
                 transform="translate(0,3)"
                 stroke="none" />
              <path
                 id="SvgjsPath9471"
                 d="m 117.2,121.6 c -0.5,-0.4 -1,-0.6 -1.6,-0.4 -0.4,0.1 -0.4,0.7 -0.1,0.8 0.1,0.1 0.2,0.1 0.3,0.2 l -0.6,0.6 c -0.7,0.8 -2.3,2.2 -5.3,0.8 -3,-1.4 -5.1,-1.8 -7.1,-0.5 -2,1.3 -2.7,0.9 -4.6,0.2 -1.9,-0.6 -4.3,0.4 -5.5,1.7 -1.2,1.3 -2.2,2.6 -4.1,2 -1.9,-0.6 -0.8,0.5 -0.8,0.5 0.2,0.1 1.5,1.1 2.5,1.4 1.1,0.2 2.1,-0.5 4.5,-1.2 2.4,-0.7 8.1,-1.2 11.9,-1.1 5.4,0.2 6.8,-0.6 8.3,-1.8 0.7,-0.6 1.2,-1.1 1.5,-1.6 0.1,0.2 0.2,0.4 0.4,0.5 0.3,0.2 0.8,0.1 0.9,-0.3 0.2,-0.8 -0.2,-1.4 -0.6,-1.8 z"
                 fill="#d26d79"
                 stroke-width="none"
                 opacity="1"
                 transform="translate(0,3)"
                 stroke="none" />
              <path
                 id="SvgjsPath9472"
                 d="m 95.7,129.5 c 3.4,0 7.4,0.1 10.8,-0.9 0.5,-0.1 0.5,-0.8 0,-1 -3.4,-1 -7.7,-0.1 -10.9,1.2 -0.3,0.2 -0.3,0.7 0.1,0.7 z"
                 fill="#e28c96"
                 stroke-width="none"
                 opacity="1"
                 transform="translate(0,3)"
                 stroke="none" />
            </g>
          </g>
          <g
             id="svga-group-eyes-left-move">
            <g
               id="svga-group-eyes-left">
              <g
                 id="svga-group-eyesback-left">
                <path
                   id="SvgjsPath4949"
                   d="m 90.9,101.3 c 0,0 -0.3,-2.5 -1,-3.8 -0.7,-1.3 -3.7,-4.4 -7,-5 -4.9,-1 -9.3,1.7 -9.3,1.7 0,0 0,2.4 1.5,4.1 1.4,1.7 3.9,2.6 4.9,2.7 1,0.1 4.6,0.3 6.5,0 1.3,-0.2 2.8,-0.2 3.4,0 0.5,0.2 1,0.3 1,0.3 z"
                   fill="#ffffff"
                   stroke-width="none"
                   opacity="1" />
              </g>
              <g
                 id="svga-group-eyesiriswrapper-left">
                <g
                   id="svga-group-eyesiriscontrol-left">
                  <g
                     id="svga-group-eyesiris-left">
                    <path
                       id="SvgjsPath3169"
                       d="m 82,91.5 c 2.7,0 4.9,2.2 4.9,4.9 0,2.7 -2.2,4.9 -4.9,4.9 -2.7,0 -4.9,-2.2 -4.9,-4.9 0,-2.7 2.2,-4.9 4.9,-4.9 z"
                       fill="#392100"
                       stroke-width="none"
                       opacity="1"
                       stroke="none" />
                    <path
                       id="SvgjsPath3170"
                       d="m 82,93.8 c 1.4,0 2.6,1.2 2.6,2.6 0,1.4 -1.2,2.6 -2.6,2.6 -1.4,0 -2.6,-1.2 -2.6,-2.6 0,-1.4 1.2,-2.6 2.6,-2.6 z"
                       fill="#000000"
                       stroke-width="none"
                       opacity="1" />
                    <path
                       id="SvgjsPath3171"
                       d="m 81.3,94.3 -0.5,-0.5 c -0.2,-0.2 -0.4,-0.3 -0.7,-0.3 -0.3,0 -0.5,0.1 -0.7,0.3 -0.2,0.2 -0.3,0.4 -0.3,0.7 0,0.3 0.1,0.5 0.3,0.7 l 0.5,0.5 c 0.2,0.2 0.4,0.3 0.7,0.3 0.2,0 0.5,-0.1 0.7,-0.3 0.4,-0.5 0.4,-1 0,-1.4 z m 2.5,4.4 c 0.8,0 0.8,-1.3 0,-1.3 -0.8,0 -0.9,1.3 0,1.3 z"
                       fill="#ffffff"
                       stroke-width="none"
                       opacity="1" />
                  </g>
                </g>
              </g>
              <g
                 id="svga-group-eyesfront-left">
                <path
                   id="SvgjsPath4957"
                   d="m 70.73,98.03 c 0,6.9 4.93,12.5 11.02,12.5 6.09,0 11.02,-5.6 11.02,-12.5 0,-6.9 -4.93,-12.5 -11.02,-12.5 -6.09,0 -11.02,5.59 -11.02,12.5 z m 2.88,-3.78 c 0,0 4.42,-2.71 9.34,-1.75 3.29,0.64 6.2,3.74 6.95,5.03 0.75,1.28 1.03,3.82 1.03,3.82 0,0 -0.53,-0.14 -1.11,-0.32 -0.57,-0.18 -2.05,-0.19 -3.39,0.04 -1.89,0.32 -5.46,0.18 -6.45,0.04 -1,-0.14 -3.49,-1.07 -4.92,-2.75 -1.41,-1.69 -1.45,-4.11 -1.45,-4.11 z"
                   fill="#f3d4cf"
                   stroke-width="none"
                   opacity="1"
                   stroke="none" />
                <path
                   id="SvgjsPath4958"
                   d="m 73.27,94.64 c -0.1,0.42 -0.12,0.84 -0.06,1.25 -0.57,-0.03 -1.21,0.05 -1.59,0.44 -0.14,0.14 0.01,0.33 0.18,0.3 0.3,-0.05 0.58,-0.2 0.88,-0.27 0.21,-0.05 0.42,-0.06 0.63,-0.05 0.06,0.21 0.13,0.42 0.22,0.63 -0.18,0.06 -0.35,0.14 -0.5,0.21 -0.38,0.17 -0.75,0.42 -0.99,0.76 -0.11,0.15 0.09,0.28 0.22,0.22 0.35,-0.16 0.68,-0.38 1.03,-0.55 0.15,-0.07 0.32,-0.12 0.49,-0.18 0.16,0.28 0.35,0.54 0.56,0.8 -0.41,0.24 -0.78,0.58 -0.9,1.03 -0.03,0.1 0.09,0.21 0.19,0.15 0.36,-0.24 0.65,-0.57 0.96,-0.88 1.11,1.22 2.67,2.16 3.92,2.57 1.88,0.62 3.93,0.72 5.89,0.62 1.85,-0.09 4.72,-1.14 6.43,-0.21 0.07,0.04 0.13,0.02 0.17,-0.02 l 0.03,-0.03 c 0.01,-0.02 0.02,-0.04 0.02,-0.06 0,-0.01 0.01,-0.01 0.01,-0.03 -0.1,-4.06 -2.64,-7.49 -6.4,-8.97 -2.08,-0.82 -4.37,-1.02 -6.58,-0.69 -2.59,0.39 -4.87,1.66 -7.54,1.44 -0.23,-0.02 -0.34,0.3 -0.18,0.44 0.9,0.88 1.89,1.13 2.91,1.08 z m 0.67,-0.07 c 1.99,-0.32 4.11,-1.54 6.09,-1.68 5.13,-0.36 10.05,3 10.7,8.24 -2.39,-0.82 -5.13,-0.1 -7.59,-0.15 -2.01,-0.04 -4.14,-0.32 -5.91,-1.34 -2.21,-1.28 -2.61,-2.93 -3.29,-5.07 z"
                   fill="#8a5353"
                   stroke-width="none"
                   opacity="1"
                   stroke="none" />
              </g>
            </g>
          </g>
          <g
             id="svga-group-eyes-right-move">
            <g
               id="svga-group-eyes-right">
              <g
                 id="svga-group-eyesback-right">
                <path
                   id="SvgjsPath4950"
                   d="m 109.1,101.3 c 0,0 0.3,-2.5 1,-3.8 0.7,-1.3 3.7,-4.4 7,-5 4.9,-1 9.3,1.7 9.3,1.7 0,0 0,2.4 -1.5,4.1 -1.4,1.7 -3.9,2.6 -4.9,2.7 -1,0.1 -4.6,0.3 -6.5,0 -1.3,-0.2 -2.8,-0.2 -3.4,0 -0.5,0.2 -1,0.3 -1,0.3 z"
                   fill="#ffffff"
                   stroke-width="none"
                   opacity="1" />
              </g>
              <g
                 id="svga-group-eyesiriswrapper-right">
                <g
                   id="svga-group-eyesiriscontrol-right">
                  <g
                     id="svga-group-eyesiris-right">
                    <path
                       id="SvgjsPath3172"
                       d="m 118,91.5 c 2.7,0 4.9,2.2 4.9,4.9 0,2.7 -2.2,4.9 -4.9,4.9 -2.7,0 -4.9,-2.2 -4.9,-4.9 0,-2.7 2.2,-4.9 4.9,-4.9 z"
                       fill="#392100"
                       stroke-width="none"
                       opacity="1"
                       stroke="none" />
                    <path
                       id="SvgjsPath3173"
                       d="m 118,93.8 c 1.4,0 2.6,1.2 2.6,2.6 0,1.4 -1.2,2.6 -2.6,2.6 -1.4,0 -2.6,-1.2 -2.6,-2.6 0,-1.4 1.2,-2.6 2.6,-2.6 z"
                       fill="#000000"
                       stroke-width="none"
                       opacity="1" />
                    <path
                       id="SvgjsPath3174"
                       d="m 117.4,94.3 -0.5,-0.5 c -0.2,-0.2 -0.4,-0.3 -0.7,-0.3 -0.3,0 -0.5,0.1 -0.7,0.3 -0.2,0.2 -0.3,0.4 -0.3,0.7 0,0.3 0.1,0.5 0.3,0.7 l 0.5,0.5 c 0.2,0.2 0.4,0.3 0.7,0.3 0.2,0 0.5,-0.1 0.7,-0.3 0.3,-0.5 0.4,-1 0,-1.4 z m 2.4,4.4 c 0.8,0 0.8,-1.3 0,-1.3 -0.8,0 -0.8,1.3 0,1.3 z"
                       fill="#ffffff"
                       stroke-width="none"
                       opacity="1" />
                  </g>
                </g>
              </g>
              <g
                 id="svga-group-eyesfront-right">
                <path
                   id="SvgjsPath4959"
                   d="m 118.26,85.53 c -6.08,0 -11.02,5.6 -11.02,12.5 0,6.9 4.93,12.5 11.02,12.5 6.09,0 11.02,-5.6 11.02,-12.5 0,-6.9 -4.94,-12.5 -11.02,-12.5 z m 6.67,12.82 c -1.43,1.68 -3.92,2.6 -4.92,2.75 -1,0.14 -4.56,0.29 -6.45,-0.04 -1.34,-0.23 -2.82,-0.21 -3.39,-0.04 -0.57,0.18 -1.11,0.32 -1.11,0.32 0,0 0.29,-2.53 1.03,-3.82 0.75,-1.28 3.66,-4.38 6.95,-5.03 4.92,-0.96 9.34,1.75 9.34,1.75 0,0 -0.03,2.43 -1.45,4.11 z"
                   fill="#f3d4cf"
                   stroke-width="none"
                   opacity="1"
                   stroke="none" />
                <path
                   id="SvgjsPath4962"
                   d="m 129.64,93.58 c 0.15,-0.15 0.04,-0.46 -0.18,-0.44 -2.68,0.22 -4.96,-1.05 -7.54,-1.44 -2.21,-0.33 -4.49,-0.13 -6.58,0.69 -3.76,1.48 -6.31,4.91 -6.4,8.97 0,0.01 0.01,0.02 0.01,0.03 0,0.02 0.01,0.04 0.02,0.06 l 0.03,0.03 c 0.04,0.04 0.1,0.06 0.17,0.02 1.71,-0.93 4.58,0.11 6.43,0.21 1.96,0.1 4.02,-0.01 5.89,-0.62 1.25,-0.41 2.81,-1.35 3.92,-2.57 0.31,0.31 0.6,0.64 0.96,0.88 0.1,0.06 0.22,-0.04 0.19,-0.15 -0.12,-0.45 -0.5,-0.79 -0.9,-1.03 0.21,-0.26 0.4,-0.52 0.56,-0.8 0.17,0.06 0.34,0.11 0.49,0.18 0.35,0.17 0.68,0.39 1.03,0.55 0.13,0.06 0.33,-0.07 0.22,-0.22 -0.25,-0.34 -0.61,-0.59 -0.99,-0.76 -0.15,-0.07 -0.32,-0.15 -0.5,-0.21 0.09,-0.21 0.17,-0.42 0.22,-0.63 0.21,0 0.42,0.01 0.63,0.05 0.3,0.07 0.58,0.21 0.88,0.27 0.17,0.03 0.31,-0.16 0.18,-0.3 -0.38,-0.39 -1.02,-0.48 -1.59,-0.44 0.06,-0.41 0.04,-0.83 -0.06,-1.25 1.02,0.03 2.01,-0.22 2.91,-1.08 z m -6.87,6.06 c -1.77,1.03 -3.9,1.3 -5.91,1.34 -2.46,0.05 -5.21,-0.67 -7.59,0.15 0.65,-5.24 5.56,-8.6 10.7,-8.24 1.98,0.14 4.1,1.36 6.09,1.68 -0.68,2.14 -1.08,3.79 -3.29,5.07 z"
                   fill="#8a5353"
                   stroke-width="none"
                   opacity="1"
                   stroke="none" />
              </g>
            </g>
          </g>
          <g
             id="svga-group-facehighlight-single" />
          <g
             id="svga-group-eyebrows-left-move">
            <g
               id="svga-group-eyebrows-left-rotate">
              <g
                 id="svga-group-eyebrows-left">
                <path
                   id="SvgjsPath5905"
                   d="m 72.9,84.2 c 0.1,-0.2 0.4,-0.3 0.6,-0.4 0.2,-0.1 0.4,-0.2 0.6,-0.2 0.4,-0.2 0.8,-0.4 1.2,-0.5 0.5,-0.1 1.2,-0.5 1.7,-0.2 1.6,-0.6 3.7,-0.2 5.1,0.6 1.9,0.2 3.9,0.8 5.3,1.8 0.1,0.1 0.2,0.2 0.2,0.3 0.3,0.1 0.5,0.2 0.8,0.3 1,0.4 2.1,0.7 3.1,1.2 0.1,0 0.2,0.1 0.3,0.1 0.3,0.1 0.4,0.7 0.2,0.8 -0.1,0.1 -0.1,0.2 -0.2,0.3 -0.8,0.6 -1.8,0.2 -2.6,-0.1 -0.7,-0.3 -1.5,-0.6 -2,-1.2 -0.8,-0.3 -1.4,-0.7 -2.1,-1.1 -0.1,0 -0.2,-0.1 -0.3,-0.1 -1.2,-0.2 -2.5,-0.7 -3.7,-1.3 -0.7,-0.1 -1.3,-0.3 -2,-0.3 -0.9,-0.1 -1.8,0.2 -2.8,-0.1 h -0.1 c -0.2,0.1 -0.4,0.1 -0.6,0.2 -0.8,0.2 -1.5,0.4 -2.3,0.4 -0.1,0 -0.2,-0.1 -0.2,-0.2 H 73 c 0,0 -0.2,-0.1 -0.1,-0.3 z"
                   fill="#2a232b"
                   stroke-width="none"
                   opacity="1" />
                <path
                   id="SvgjsPath5906"
                   d="m 77.4,82.3 c 3.1,-0.2 6.2,1.5 9,2.6 1.7,0.7 5.2,0.9 5.9,3 0.1,0.3 -0.3,0.4 -0.5,0.2 -0.9,-1.2 -2.4,-1.4 -3.8,-1.8 -1.2,-0.4 -2.3,-0.8 -3.5,-1.3 -2.4,-1 -4.8,-1.6 -7.3,-2.2 -0.1,-0.1 0,-0.4 0.2,-0.5 z"
                   fill="#3a353a"
                   stroke-width="none"
                   opacity="1" />
                <path
                   id="SvgjsPath5907"
                   d="m 93.3,87.9 c 0.3,-1.4 -1.8,-1.9 -2.8,-2.3 -2.4,-1 -4.9,-2.1 -7.4,-2.8 -1.5,-0.4 -3.1,-0.7 -4.6,-0.7 -1.2,0 -2.3,0.1 -3.5,0.5 -2,0.6 -3.9,1.8 -5.6,3.1 -0.9,0.5 -1.8,1.2 -2.5,1.9 -0.1,0.1 0,0.3 0.2,0.2 0,0 0.1,0 0.1,-0.1 0,0.1 0.1,0.1 0.2,0.1 1.5,-0.7 2.8,-1.6 4.3,-2.2 1.5,-0.6 3.1,-1 4.7,-1.1 h 0.7 c 1.9,0 3.7,0.4 5.4,1.2 2.4,1.1 4.6,2.6 7,3.5 0.4,0.2 0.9,0.2 1.4,0.2 1.1,0 2.2,-0.4 2.4,-1.5 z M 78.5,83 c 1.6,0 3.2,0.4 4.8,0.9 2,0.7 4,1.6 6,2.4 0.4,0.2 2.4,0.7 2.6,1.2 0.2,0.6 -0.2,0.8 -0.8,0.9 -0.3,0 -0.6,-0.1 -0.8,-0.1 -0.6,-0.2 -1.2,-0.6 -1.7,-0.9 -3.1,-1.6 -6.3,-3.5 -9.8,-3.7 h -1 c -1.1,0 -2.3,0.1 -3.5,0.3 0.5,-0.2 1,-0.4 1.6,-0.6 0.8,-0.3 1.7,-0.4 2.6,-0.4 z"
                   fill="#1b141c"
                   stroke-width="none"
                   opacity="1" />
              </g>
            </g>
          </g>
          <g
             id="svga-group-eyebrows-right-move">
            <g
               id="svga-group-eyebrows-right-rotate">
              <g
                 id="svga-group-eyebrows-right">
                <path
                   id="SvgjsPath5908"
                   d="m 127.1,84.2 c -0.1,-0.2 -0.4,-0.3 -0.6,-0.4 -0.2,-0.1 -0.4,-0.2 -0.6,-0.2 -0.4,-0.2 -0.8,-0.4 -1.2,-0.5 -0.5,-0.1 -1.2,-0.5 -1.7,-0.2 -1.6,-0.6 -3.7,-0.2 -5.1,0.6 -1.9,0.2 -3.9,0.8 -5.3,1.8 -0.1,0.1 -0.2,0.2 -0.2,0.3 -0.3,0.1 -0.5,0.2 -0.8,0.3 -1,0.4 -2.1,0.7 -3.1,1.2 -0.1,0 -0.2,0.1 -0.3,0.1 -0.3,0.1 -0.4,0.7 -0.2,0.8 0.1,0.1 0.1,0.2 0.2,0.3 0.8,0.6 1.8,0.2 2.6,-0.1 0.7,-0.3 1.5,-0.6 2,-1.2 0.8,-0.3 1.4,-0.7 2.1,-1.1 0.1,0 0.2,-0.1 0.3,-0.1 1.2,-0.2 2.5,-0.7 3.7,-1.3 0.7,-0.1 1.3,-0.3 2,-0.3 0.9,-0.1 1.8,0.2 2.8,-0.1 h 0.1 c 0.2,0.1 0.4,0.1 0.6,0.2 0.8,0.2 1.5,0.4 2.3,0.4 0.1,0 0.2,-0.1 0.2,-0.2 h 0.1 c 0,0 0.2,-0.1 0.1,-0.3 z"
                   fill="#2a232b"
                   stroke-width="none"
                   opacity="1" />
                <path
                   id="SvgjsPath5909"
                   d="m 122.6,82.3 c -3.1,-0.2 -6.2,1.5 -9,2.6 -1.7,0.7 -5.2,0.9 -5.9,3 -0.1,0.3 0.3,0.4 0.5,0.2 0.9,-1.2 2.4,-1.4 3.8,-1.8 1.2,-0.4 2.3,-0.8 3.5,-1.3 2.4,-1 4.8,-1.6 7.3,-2.2 0.1,-0.1 0,-0.4 -0.2,-0.5 z"
                   fill="#3a353a"
                   stroke-width="none"
                   opacity="1" />
                <path
                   id="SvgjsPath5910"
                   d="m 109,89.3 c 0.5,0 1,-0.1 1.4,-0.2 2.4,-0.9 4.7,-2.4 7,-3.5 1.8,-0.8 3.6,-1.2 5.4,-1.2 h 0.7 c 1.6,0.1 3.2,0.5 4.6,1.1 1.5,0.6 2.9,1.6 4.3,2.2 0.1,0 0.2,0 0.2,-0.1 0,0 0.1,0 0.1,0.1 0.2,0.1 0.3,-0.1 0.2,-0.2 -0.7,-0.7 -1.6,-1.4 -2.5,-1.9 -1.7,-1.3 -3.6,-2.4 -5.6,-3.1 -1.1,-0.4 -2.3,-0.5 -3.5,-0.5 -1.6,0 -3.1,0.3 -4.6,0.7 -2.5,0.7 -5,1.8 -7.4,2.8 -0.9,0.4 -3.1,0.9 -2.8,2.3 0.4,1.2 1.5,1.6 2.5,1.5 z m 15.2,-5.9 c 0.5,0.2 1.1,0.3 1.6,0.6 -1.2,-0.2 -2.3,-0.3 -3.5,-0.3 h -1 c -3.5,0.2 -6.8,2.2 -9.8,3.7 -0.6,0.3 -1.1,0.7 -1.7,0.9 -0.2,0.1 -0.5,0.1 -0.8,0.1 -0.5,0 -1,-0.2 -0.8,-0.9 0.2,-0.5 2.2,-1 2.6,-1.2 2,-0.8 4,-1.7 6,-2.4 1.6,-0.5 3.2,-0.9 4.8,-0.9 0.8,0 1.7,0.1 2.6,0.4 z"
                   fill="#1b141c"
                   stroke-width="none"
                   opacity="1" />
              </g>
            </g>
          </g>
          <g
             id="svga-group-nose-single-move">
            <g
               id="svga-group-nose-single">
              <path
                 id="SvgjsPath8968"
                 d="m 104.93,107.57 c -0.14,-0.18 -0.45,0.05 -0.32,0.25 0.84,1.29 1.76,2.56 2.54,3.89 0.53,0.9 1.07,2.03 0.7,3.12 -0.61,1.79 -2.18,1.68 -3.45,1 0.48,-0.61 0.75,-1.33 0.69,-2.12 -0.02,-0.19 -0.29,-0.37 -0.44,-0.18 -1.26,1.59 -2.06,3.25 -4.41,3.34 -2.48,0.1 -4.08,-1.91 -4.73,-4.07 -0.06,-0.19 -0.32,-0.14 -0.33,0.04 -0.07,0.99 0.25,1.95 0.79,2.76 -0.36,0.07 -0.73,0.14 -1.09,0.16 -1.15,0.07 -1.34,-0.02 -2.11,-0.98 -0.8,-1.01 -0.81,-1.27 -0.36,-2.39 0.21,-0.53 0.52,-0.98 0.82,-1.45 0.97,-1.52 1.84,-3.06 2.48,-4.75 1.29,-3.37 1.85,-7.09 1.22,-10.66 -0.03,-0.15 -0.26,-0.11 -0.27,0.04 -0.01,2.89 -0.19,5.74 -1.04,8.52 -0.88,2.88 -2.54,5.04 -3.92,7.64 -0.72,1.35 -1.02,3.12 0.21,4.28 1.22,1.15 3.1,0.78 4.52,0.24 0.85,0.92 2.02,1.56 3.26,1.67 1.4,0.12 3.23,-0.55 4.36,-1.7 1.31,1.45 3.82,0.78 4.47,-1.08 1.01,-2.82 -2.06,-5.64 -3.59,-7.57 z"
                 fill="#c5796d"
                 stroke-width="none"
                 opacity="1"
                 transform="translate(0,2)"
                 stroke="none" />
              <path
                 id="SvgjsPath8969"
                 d="m 102,110.13 c -0.8,-0.75 -2.07,-0.97 -2.97,-0.27 -0.33,0.25 -0.52,0.57 -0.61,0.9 -0.16,0.05 -0.3,0.14 -0.44,0.27 -0.68,0.67 -0.39,1.71 0.19,2.34 0.5,0.53 1.31,0.78 2.02,0.75 0.88,-0.05 1.67,-0.46 2.16,-1.2 0.57,-0.86 0.4,-2.09 -0.35,-2.79 z"
                 fill="#fbe5e2"
                 stroke-width="none"
                 opacity="1"
                 transform="translate(0,2)"
                 stroke="none" />
            </g>
          </g>
          <g
             id="svga-group-hair-front">
            <path
               id="SvgjsPath3925"
               d="m 121.5,56 c 0,0 -6.3,13.8 -31.2,17 -24.9,3.2 -29.8,16 -26.9,21.6 2.9,5.6 9.7,9.2 2.4,19.9 -7.3,10.7 -0.5,12.6 1.7,16 2.2,3.4 -1.7,5.3 -1.9,7.5 -0.2,2.2 1.9,4.6 1.9,4.6 0,0 -4.8,-3.1 -3.4,-9 1.4,-5.8 -9,-8.7 -6.1,-16.2 2.9,-7.5 5.3,-9.4 1,-22.3 -4.3,-12.9 -5.8,-22.5 -1.5,-34.2 6.1,-16.2 41.7,-39.7 65.9,-13.3 0,0 11.4,-1.2 17.4,16 6.1,17.2 1.2,27.4 -0.7,29.8 0,0 -0.7,0.5 -2.4,-6.1 C 136,80.8 130.2,78.1 126.1,68.9 122,59.7 121.5,56 121.5,56 Z"
               fill="#322c33"
               stroke-width="none"
               opacity="1"
               stroke="none" />
            <path
               id="SvgjsPath3926"
               d="m 70,170.9 c 5.4,-4.9 4.1,-10.9 1.7,-15.8 3.3,-10.5 -3.9,-15.3 -3.9,-15.3 0,0 -12.8,4.2 -13.4,11.8 -0.3,4.1 -0.3,7.3 0.2,9.8 -1.1,0.3 -2.2,0.8 -3,1.4 -6.4,5.1 -3.4,11.7 -2.8,14.9 0.6,3.2 2.4,5.1 2.4,5.1 -1.4,2.3 -4.3,7.4 -1,16.4 3.3,9 12.9,13.6 12.9,13.6 -4.5,-5.6 -3.9,-14 -3.9,-14 0,0 0.6,2.9 2.3,8.6 1.8,5.6 8.2,10.3 8.2,10.3 0,0 -1.4,-3.1 0,-8.8 1.4,-5.7 1.6,-8.6 1.6,-8.6 -0.2,5.3 2.9,10.7 2.9,10.7 -1,-4.5 1.4,-9.7 0,-17.7 -1.4,-8 -9.2,-10.2 -9.2,-10.2 6.1,-6 5,-12.2 5,-12.2 z M 123,49.2 c 0,0 0.4,2.2 -1.5,6.8 -1.9,4.6 -7.2,16 -32.4,17.7 -25.2,1.7 -25.4,19.7 -24.3,21.6 1.1,1.9 6.6,9.3 3.4,14.4 0,0 0.8,-5.7 -3.6,-11.6 C 60.2,92.2 59.3,87.7 64.2,80.8 69.1,73.9 77.7,72 92.7,70.5 107.7,69 114.1,65 117,60.8 c 3,-4.2 4.9,-8.9 6,-11.6 z m -5.1,0.4 c 0,0 -3.4,7.8 -20.5,10.8 -17.1,3 -33.2,5.9 -38.3,21 0,0 -0.4,-6.3 8.5,-14.2 8.9,-7.9 32.6,-9.3 38.1,-10.4 5.4,-1.1 10.3,-5.1 12.2,-7.2 z m -9.5,-6.4 c 0,0 -29,-3.2 -43.8,17.4 0,0 4.9,-10.8 17.6,-16.3 12.7,-5.5 26.2,-1.1 26.2,-1.1 z M 125.5,54 c 0,0 1.7,11.2 7.2,18.8 5.5,7.6 8.7,16.1 8.7,16.1 0,0 0,-8.5 -4.9,-15.7 -4.9,-7.1 -8.9,-12 -11,-19.2 z m 1.3,-2.5 c 0,0 11.4,10.8 15.4,27.7 0,0 -0.6,-10.6 -5.3,-17.6 -4.6,-6.9 -10.1,-10.1 -10.1,-10.1 z"
               fill="#2a232b"
               stroke-width="none"
               opacity="1"
               stroke="none" />
            <path
               id="SvgjsPath3927"
               d="m 119.2,54.9 c 0,0 -5.2,11.4 -24.9,13 -19.7,1.7 -25.4,4.3 -29.9,8.5 0,0 6.4,-9.7 18.5,-11.6 12.1,-1.9 26.3,-3 36.3,-9.9 z M 117,46.8 c 0,0 -4.5,7.1 -20.2,8.5 -15.7,1.4 -27.5,4.5 -34.6,13.5 0,0 5.5,-16.4 22.8,-20.6 17.3,-4.2 16.1,0.5 32,-1.4 z M 127.9,57 c 0,0 2.4,5.2 5.9,10.2 3.5,5 6.4,10.4 7.4,14.5 0,0 -0.7,-9.5 -5.2,-16.1 C 131.5,59 127.9,57 127.9,57 Z"
               fill="#3a353a"
               stroke-width="none"
               opacity="1"
               stroke="none" />
            <path
               id="SvgjsPath3928"
               d="m 57.9,172.9 c -2.2,2.4 -1.2,6.4 -1.2,6.4 0,0 0.4,-4.1 3.7,-5.7 3.3,-1.6 7.8,-2.5 9.6,-2.6 0,0 4.2,-4.9 2.1,-12.9 0,0 -1,8.3 -5.3,9.4 -4.2,1 -6.7,3 -8.9,5.4 z m 8.2,18.5 c -1,-4.1 -5.8,-6.9 -7.6,-7.9 1.7,0 3,0.1 3,0.1 0,0 -2.4,-0.1 -6.4,-1.9 -4,-1.7 -5.7,-7.8 -5.4,-11 0.2,-2.3 2.3,-4.8 3.6,-5.9 2.4,2.4 5.7,3.6 5.7,3.6 -5,-6 -2.8,-11.8 -1.6,-14.2 4.4,3.6 8,3.6 8,3.6 -14.2,-8.4 -12,-22.7 -12,-22.7 -1.5,2.5 -4.5,9.9 1.1,16.4 -3.2,1.3 -4.8,7.4 -2.9,11 -1.5,1 -3.7,3.1 -4.6,7.5 -1.5,7 2.9,12.2 4.2,12.8 0,0 -3.3,4.3 -0.2,16.2 3,11.9 12.1,13.8 12.1,13.8 -6,-3.8 -9.9,-12.9 -10.5,-18.7 -0.5,-4.7 1.3,-9.2 2.1,-10.8 1.1,0.1 2.3,0.1 3.4,0.1 0.9,1 3.5,4.4 4.9,9.3 1.6,6 0.5,9.9 1.2,14.2 0.7,4.2 4.4,9.1 4.4,9.1 0,0 -3.1,-6.5 -2.9,-11.5 0,-4.9 1.6,-8.1 0.4,-13.1 z m 5.1,-0.9 c -2.2,-5.2 -6.5,-6.1 -6.5,-6.1 4.5,3.7 5.7,7.8 6,11.9 0.3,4.1 2,8.4 2,8.4 -0.3,-3.1 0.8,-9.1 -1.5,-14.2 z m -0.1,-38.1 c 0.8,-3.7 -0.7,-9.5 -2.6,-11.8 0,0 3.5,7.5 -0.8,17.6 0,0 2.5,-2.1 3.4,-5.8 z M 63,144.1 c 0,0 -7.2,-7.4 -10.6,-20.9 0,0 -2.1,16.7 10.6,20.9 z"
               fill="#221b23"
               stroke-width="none"
               opacity="1"
               stroke="none" />
          </g>
          <g
             id="svga-group-glasses-single-move">
            <g
               id="svga-group-glasses-single">
              <path
                 id="SvgjsPath7460"
                 d="m 96,95 c 0,0 0.3,-2.1 -3.3,-3.3 -2.7,-0.9 -5.6,-1.1 -7.9,-1.1 -2.3,0 -9.7,-0.1 -11.6,0.1 -1.9,0.2 -4.7,0.4 -5.7,3.2 -1,2.8 0.3,7.5 4.1,9.8 3.8,2.3 11.6,2.5 16.6,1 5.1,-1.5 7.4,-5 7.8,-9.7 z"
                 fill="#ffffff"
                 stroke-width="none"
                 opacity="0.44" />
              <path
                 id="SvgjsPath7461"
                 d="m 104,95 c 0,0 -0.3,-2.1 3.3,-3.3 2.7,-0.9 5.6,-1.1 7.9,-1.1 2.3,0 9.7,-0.1 11.6,0.1 1.9,0.2 4.7,0.4 5.6,3.2 0.9,2.8 -0.3,7.5 -4.1,9.8 -3.8,2.3 -11.6,2.5 -16.6,1 -5,-1.5 -7.3,-5 -7.7,-9.7 z"
                 fill="#ffffff"
                 stroke-width="none"
                 opacity="0.44" />
              <path
                 id="SvgjsPath7462"
                 d="m 96,94.4 c 0,0 3.4,-1.6 8,0 v 0.9 c 0,0 -4.9,-0.9 -8.1,0 z"
                 fill="#af0053"
                 stroke-width="none"
                 opacity="1" />
              <path
                 id="SvgjsPath7463"
                 d="m 80.8,106 c -3.9,0 -7.3,-0.7 -9.4,-2 -3.4,-2.1 -4.7,-6 -4.5,-8.7 v -0.1 h -2.3 v -1.9 h 2.8 v -0.1 c 1.2,-2.3 3.8,-2.6 5.5,-2.8 h 0.2 c 0.8,-0.1 2.7,-0.1 5.7,-0.1 h 6 c 2.3,0 5.2,0.1 8,1.1 3.7,1.3 3.6,3.4 3.5,3.7 -0.5,5.2 -3.2,8.6 -8,10 -2.1,0.6 -4.7,0.9 -7.5,0.9 z M 78.9,91 c -3,0 -4.9,0 -5.7,0.1 H 73 c -1.9,0.2 -4.3,0.4 -5.2,2.9 -0.9,2.8 0.4,7.2 3.9,9.4 2,1.2 5.2,1.9 9,1.9 2.6,0 5.3,-0.3 7.3,-1 4.6,-1.4 7.1,-4.5 7.5,-9.4 0,-0.2 0.1,-1.8 -3.1,-2.9 -2.7,-0.9 -5.6,-1 -7.8,-1 z m 40.3,15 c -2.7,0 -5.4,-0.4 -7.5,-1 -4.8,-1.5 -7.5,-4.8 -8,-10 0,-0.2 -0.2,-2.4 3.5,-3.7 2.8,-0.9 5.8,-1.1 8,-1.1 h 6 c 3,0 4.9,0 5.7,0.1 h 0.2 c 1.7,0.2 4.4,0.4 5.5,2.8 v 0.1 l 3.80899,0 v 1.9 l -3.30899,0 v 0.1 c 0.2,2.7 -1.1,6.6 -4.5,8.7 -2.1,1.4 -5.6,2.1 -9.4,2.1 z m 1.9,-15 h -5.9 c -2.2,0 -5.1,0.1 -7.8,1 -3.2,1.1 -3.1,2.7 -3.1,2.9 0.4,5 2.9,8 7.5,9.4 2,0.6 4.7,1 7.3,1 3.8,0 7.1,-0.7 9,-1.9 3.5,-2.2 4.9,-6.6 3.9,-9.4 -0.8,-2.5 -3.2,-2.7 -5.2,-2.9 h -0.2 C 126,91 124.1,91 121.1,91 Z"
                 fill="#ce136b"
                 stroke-width="none"
                 opacity="1"
                 sodipodi:nodetypes="scccccccccsscccssccccscccssscccsscccccccccssscccsccccs" />
              <path
                 id="SvgjsPath7464"
                 d="m 121.2,90.1 v 0.2 c 3,0 4.8,0 5.7,0.1 h 0.2 c 1.7,0.2 4.3,0.4 5.4,2.7 l 0.1,0.1 3.78602,0 V 95 L 133,95 v 0.2 c 0.2,2.7 -1.1,6.5 -4.5,8.6 -2.1,1.3 -5.5,2 -9.3,2 -2.7,0 -5.4,-0.4 -7.5,-1 -4.8,-1.5 -7.4,-4.8 -7.9,-9.9 0,-0.2 -0.2,-2.3 3.5,-3.5 2.8,-0.9 5.7,-1.1 8,-1.1 h 6.1 l -0.2,-0.2 m -2,15.3 c 3.8,0 7.1,-0.7 9.1,-1.9 3.6,-2.2 4.9,-6.7 4,-9.6 -0.9,-2.6 -3.4,-2.8 -5.3,-3 h -0.2 c -0.8,-0.1 -2.6,-0.1 -5.7,-0.1 h -5.9 c -2.2,0 -5.1,0.1 -7.8,1 -3.2,1.1 -3.2,2.8 -3.1,3 0.4,5 2.9,8.1 7.6,9.5 2,0.8 4.6,1.1 7.3,1.1 m 2,-15.3 h -6 c -2.3,0 -5.2,0.1 -8,1.1 -3.8,1.3 -3.7,3.5 -3.6,3.8 0.5,5.2 3.2,8.7 8.1,10.1 2.1,0.7 4.8,1 7.6,1 3.6,0 7.2,-0.6 9.5,-2.1 3.2,-2 4.8,-5.8 4.6,-8.8 h 3.14636 l 2.70579,-2.903201 -0.55981,-1.518374 L 136.54636,93 H 132.9 c -1.2,-2.4 -3.8,-2.7 -5.6,-2.8 h -0.2 c -1.2,0 -3.5,-0.1 -5.9,-0.1 z m -2,15.1 c -2.6,0 -5.2,-0.3 -7.3,-1 -4.6,-1.4 -7,-4.4 -7.4,-9.3 0,-0.1 -0.1,-1.7 3,-2.8 2.7,-0.9 5.5,-1 7.7,-1 h 6 c 2.4,0 4.7,0 5.6,0.1 h 0.2 c 1.9,0.2 4.2,0.4 5.1,2.8 0.9,2.7 -0.4,7.1 -3.9,9.3 -2.2,1.3 -5.6,1.9 -9,1.9 z M 78.8,90.4 h 6.1 c 2.2,0 5.2,0.1 8,1.1 3.6,1.2 3.5,3.3 3.5,3.5 -0.5,5.1 -3.1,8.5 -7.9,9.9 -2.1,0.7 -4.8,1 -7.5,1 -3.9,0 -7.3,-0.7 -9.3,-2 C 68.4,101.8 67,98 67.2,95.3 v -0.2 h -2.3 v -1.7 h 2.8 l 0.1,-0.1 c 1.1,-2.3 3.7,-2.5 5.4,-2.7 h 0.2 c 0.6,-0.2 2.4,-0.2 5.4,-0.2 m 2,15 c 2.7,0 5.3,-0.3 7.3,-1 4.7,-1.4 7.1,-4.5 7.6,-9.6 0,-0.2 0.1,-1.9 -3.2,-3 -2.7,-0.9 -5.6,-1 -7.8,-1 h -5.9 c -3,0 -4.9,0 -5.7,0.1 L 73,91 c -1.9,0.2 -4.4,0.4 -5.3,3 -0.9,2.8 0.4,7.3 4,9.6 2,1.1 5.4,1.8 9.1,1.8 m -2,-15.3 c -2.4,0 -4.7,0 -5.7,0.1 h -0.2 c -1.8,0.2 -4.4,0.4 -5.6,2.8 h -2.8 v 2.2 h 2.3 c -0.2,3 1.3,6.8 4.6,8.8 2.3,1.4 5.9,2.1 9.5,2.1 2.7,0 5.4,-0.4 7.6,-1 4.9,-1.5 7.6,-4.9 8.1,-10.1 0,-0.2 0.2,-2.5 -3.6,-3.8 -2.8,-1 -5.8,-1.1 -8,-1.1 z m 2,15.1 c -3.4,0 -6.8,-0.6 -9,-1.9 -3.5,-2.2 -4.8,-6.5 -3.9,-9.3 0.8,-2.4 3.2,-2.6 5.1,-2.8 h 0.2 c 0.9,-0.1 3.3,-0.1 5.6,-0.1 h 6 c 2.2,0 5.1,0.1 7.7,1 3.1,1.1 3,2.7 3,2.8 -0.4,4.9 -2.9,7.9 -7.4,9.3 -2,0.7 -4.6,1 -7.3,1 z"
                 fill="#af0053"
                 stroke-width="none"
                 opacity="1"
                 sodipodi:nodetypes="cccccccccccscccscccccccssccccsscccsccccccccssscccssccccscscccscccccccccccccssscccccscccccccscccsssccccsscccs" />
            </g>
          </g>
        </g>
      </g>
    </g>
  </g>
  <rect
     id="svga-credit-rect"
     width="200"
     height="15"
     x="0"
     y="185"
     fill="#ecf0f1"
     opacity="0.5"
     style="display:none" />
  <text
     id="svga-credit-text"
     font-family="'Avenir Next', Roboto, Helvetica, Arial, sans-serif"
     font-size="10px"
     text-anchor="start"
     font-weight="400"
     size="10px"
     anchor="start"
     weight="400"
     fill="#333333"
     x="33.298973"
     y="182.60825"
     style="display:none"><tspan
       id="SvgjsTspan2896"
       dy="13"
       x="33.298973">Created on AvatarMaker.com</tspan></text>
</svg>
