<?xml version="1.0" encoding="UTF-8" standalone="no"?>
<!-- Generator: Adobe Illustrator 12.0.0, SVG Export Plug-In . SVG Version: 6.00 Build 51448)  -->

<svg
   id="Layer_1"
   style="enable-background:new 0 0 138.322 138.188"
   space="preserve"
   sodipodi:docname="tabella-architetto-franc-01.svg"
   viewBox="0 0 138.322 138.188"
   sodipodi:version="0.32"
   version="1.1"
   inkscape:version="1.3 (0e150ed6c4, 2023-07-21)"
   xmlns:inkscape="http://www.inkscape.org/namespaces/inkscape"
   xmlns:sodipodi="http://sodipodi.sourceforge.net/DTD/sodipodi-0.dtd"
   xmlns="http://www.w3.org/2000/svg"
   xmlns:svg="http://www.w3.org/2000/svg"
   xmlns:rdf="http://www.w3.org/1999/02/22-rdf-syntax-ns#"
   xmlns:cc="http://creativecommons.org/ns#"
   xmlns:dc="http://purl.org/dc/elements/1.1/">
  <defs
     id="defs1" />
  <sodipodi:namedview
     id="base"
     bordercolor="#666666"
     inkscape:pageshadow="2"
     inkscape:window-width="787"
     pagecolor="#ffffff"
     inkscape:zoom="1.3025733"
     inkscape:window-x="22"
     borderopacity="1.0"
     inkscape:current-layer="Layer_1"
     inkscape:cx="298.25578"
     inkscape:cy="21.495912"
     inkscape:window-y="29"
     inkscape:window-height="510"
     inkscape:pageopacity="0.0"
     inkscape:showpageshadow="0"
     inkscape:pagecheckerboard="1"
     inkscape:deskcolor="#d1d1d1" />
  <g
     id="g3">
    <path
       id="path5"
       style="fill:#FFFFFF"
       d="m136.67 81.629v50.044c0 8.34-20.666 4.989-25.896 5.036-35.376 0.32-70.755 0.194-106.13 0.598-4.484 0.051-3.74-4.697-3.697-7.647 0.125-8.313 0.212-16.628 0.273-24.944 0.157-21.162 0.085-42.32 0.085-63.477v-36c0-5.146 8.066-3.724 11.321-3.724h99.693c4.165 0 24.354-2.984 24.354 4.05v76.06" />
    <path
       id="path7"
       style="fill:#A8A8A8"
       d="m4.784 0.646c-6.545 0-4.342 13.481-4.342 17.319v33.806c0 22.804 0.037 45.608-0.242 68.413-0.054 4.51-0.122 9.019-0.193 13.528-0.081 5.178 5.559 4.458 8.97 4.423 17.335-0.185 34.671-0.315 52.008-0.367 20.792-0.063 41.584-0.082 62.376-0.324 6.083-0.071 14.183 1.502 14.183-6.552v-116.42c0-3.44 1.462-11.734-2.656-13.481-3.452-1.467-9.152-0.342-12.723-0.342h-63.988c-17.793-0.001-35.589-0.001-53.388-0.001m-3.045 133.19c0-42.059 0.438-84.123 0.438-126.18 0-4.561 1.884-5.277 6.048-5.277h22.018 68.804c3.653 0 36.749-2.81 36.749 2.695v43.853 67.228 16.291c0 5.947-20.765 3.347-24.271 3.382-23.665 0.22-47.332 0.154-70.998 0.302-3.67 0.02-38.793 3.11-38.793-2.29" />
    <path
       id="path9"
       style="fill:#F4F4F4"
       d="m127.39 98.685c-0.592 9.807-21.065 3.646-26.656 6.219-2.869 1.321-3.149 3.683-3.745 6.4-0.564 2.565-1.637 5.023-2.949 7.289-1.058 1.822-2.299 3.535-3.678 5.127-2.847 3.287-4.023 3.626-8.243 3.738-18.259 0.481-36.523 0.742-54.788 0.92-4.285 0.043-16.221 2.584-16.185-4.031 0.188-36.092 0.376-72.181 0.564-108.27 0.022-4.21 3.15-4.137 6.417-4.137h20.486 61.959 19.801c5.021 0 5.865 2.125 5.931 6.945 0.37 26.595 0.72 53.196 1.09 79.797" />
    <path
       id="path11"
       style="fill:#D82A2A"
       d="m137.61 30.657c0 5.078-9.771 3.471-12.788 3.471h-27.44-69.087-21.354c-7.196 0-6.357-5.305-6.357-11.397 0.001-3.963-2.767-22.731 3.753-22.731h15.316 90.248 24.105c6.7 0 3.61 25.875 3.61 30.657" />
    <path
       id="path13"
       style="fill:#EF5656"
       d="m4.634 28.561c-0.106-0.089 2.386-13.563 2.533-15.017 0.517-5.031 1.395-6.962 6.609-7.16 16.172-0.62 32.358-1.259 48.543-1.384 20.742-0.163 41.521 0.379 62.239 1.357 4.368 0.205 5.938 1.414 6.277 5.957 0.261 3.459-0.586 14.48 2.076 16.961 0.009 0.007 1.305-8.396 1.36-9.182 0.305-4.393 0.517-8.791 0.689-13.189 0.214-5.406-5.565-4.301-9.195-4.301h-54.485-56.708c-2.87 0-11.378-1.422-11.378 3.337-0.853 2.799 0.169 7.371 0.281 10.254 0.088 2.224-0.754 10.763 1.144 12.367" />
    <path
       id="path15"
       style="fill:#B20D0D"
       d="m136.67 33.624h-108.26-22.969-4.537c-1.005 0-0.705-2.959 1.481-2.997 36.955-0.617 73.913-0.792 110.87-0.333 6.415 0.08 12.83 0.173 19.247 0.286 2.75 0.051 5.22-0.802 4.16 3.044" />
    <linearGradient
       id="XMLID_6_"
       y2="463.82"
       gradientUnits="userSpaceOnUse"
       y1="463.82"
       gradientTransform="matrix(181.33 0 0 -181.33 45114 84197)"
       x2="-247.01"
       x1="-248.78">
      <stop
         id="stop18"
         style="stop-color:#F4F4F4"
         offset="0" />
      <stop
         id="stop20"
         style="stop-color:#6E6E6E"
         offset="1" />
    </linearGradient>
    <path
       id="path22"
       style="fill:url(#XMLID_6_)"
       d="m37.693 62.636h-14.317c-2.447 0-1.287 3.93-1.287 5.984v39.128 11.694c0 1.676 9.475 0.733 11.145 0.733 0.476 0 4.458 0.239 4.458-0.196v-9.379c0-4.664 0.085-3.92-5.008-4.046-0.504-0.012-9.706-0.091-9.706-0.545 0-1.095 14.714 0.423 14.714-1.214v-13.64c0.001-9.501 0.001-19.006 0.001-28.514" />
    <linearGradient
       id="XMLID_7_"
       y2="463.86"
       gradientUnits="userSpaceOnUse"
       y1="463.86"
       gradientTransform="matrix(181.33 0 0 -181.33 45159 84189)"
       x2="-246.86"
       x1="-248.6">
      <stop
         id="stop25"
         style="stop-color:#F4F4F4"
         offset="0" />
      <stop
         id="stop27"
         style="stop-color:#6E6E6E"
         offset="1" />
    </linearGradient>
    <path
       id="path29"
       style="fill:url(#XMLID_7_)"
       d="m115.75 48.751h-14.898c1.156 17.456 0.931 35.295 0.112 52.76 5.013-0.128 10.053-1.119 14.544-3.411-0.175-5.438-0.241-10.878-0.271-16.318-0.05-10.985-0.2-22.06 0.52-33.03" />
    <linearGradient
       id="XMLID_8_"
       y2="463.7"
       gradientUnits="userSpaceOnUse"
       y1="463.7"
       gradientTransform="matrix(181.33 0 0 -181.33 45159 84189)"
       x2="-246.85"
       x1="-248.6">
      <stop
         id="stop32"
         style="stop-color:#FFFFFF"
         offset="0" />
      <stop
         id="stop34"
         style="stop-color:#737373"
         offset="1" />
    </linearGradient>
    <path
       id="path36"
       style="fill:url(#XMLID_8_)"
       d="m106.65 105.01c-1.043-0.007-2.084 0.034-3.122 0.122h8.65c-1.84-0.04-3.69-0.12-5.53-0.12" />
    <path
       id="path38"
       style="fill:#EF5656"
       d="m69.808 92.123h-16.385c0.438 0-1.179-14.017-0.147-14.979 1.95-1.816 13.459 0 16.385 0 0.297 0.001 0.147 13.413 0.147 14.979" />
    <path
       id="path40"
       style="fill:#A8A8A8"
       d="m23.867 92.627c0 1.795 0.156 29.998-0.888 29.998-1.339 0-1.339-59.996 0-59.996 1.044 0.005 0.888 28.207 0.888 30.003" />
    <path
       id="path42"
       style="fill:#A8A8A8"
       d="m38.618 92.627c0 1.795 0.156 29.998-0.888 29.998-1.338 0-1.338-59.996 0-59.996 1.044 0.005 0.888 28.207 0.888 30.003" />
    <path
       id="path44"
       style="fill:#A8A8A8"
       d="m53.659 83.517c0 2.214 0.156 37.373-0.888 37.373-1.34 0-1.34-74.747 0-74.747 1.044 0 0.888 35.159 0.888 37.374" />
    <path
       id="path46"
       style="fill:#A8A8A8"
       d="m70.725 83.517c0 2.214 0.156 37.373-0.888 37.373-1.34 0-1.34-74.747 0-74.747 1.044 0 0.888 35.159 0.888 37.374" />
    <path
       id="path48"
       style="fill:#A8A8A8"
       d="m101.39 76.146c0 1.796 0.146 29.989-0.89 29.989-1.347 0-1.347-59.992 0-59.992 1.03-0.005 0.89 28.204 0.89 29.998" />
    <path
       id="path50"
       style="fill:#A8A8A8"
       d="m85.764 83.517c0 2.214 0.156 37.373-0.888 37.373-1.341 0-1.341-74.747 0-74.747 1.044 0 0.888 35.159 0.888 37.374" />
    <path
       id="path52"
       style="fill:#A8A8A8"
       d="m117 76.146c0 1.796 0.147 29.989-0.89 29.989-1.346 0-1.346-59.992 0-59.992 1.04-0.005 0.89 28.204 0.89 29.998" />
    <path
       id="path54"
       style="fill:#A8A8A8"
       d="m69.754 61.741c2.75 0 46.772-0.158 46.772 0.888 0 1.34-93.547 1.34-93.547 0-0.004-1.046 44.02-0.888 46.771-0.888" />
    <path
       id="path56"
       style="fill:#A8A8A8"
       d="m69.754 75.624c2.75 0 46.772-0.157 46.772 0.889 0 1.34-93.547 1.34-93.547 0-0.004-1.046 44.02-0.889 46.771-0.889" />
    <path
       id="path58"
       style="fill:#A8A8A8"
       d="m69.754 91.533c2.75 0 46.772-0.158 46.772 0.888 0 1.341-93.547 1.339-93.547 0-0.004-1.046 44.02-0.888 46.771-0.888" />
    <path
       id="path60"
       style="fill:#A8A8A8"
       d="m84.515 47.279c1.983 0 33.313-0.156 33.313 0.888 0 1.339-66.628 1.339-66.628 0-0.002-1.043 31.33-0.888 33.313-0.888" />
    <path
       id="path62"
       style="fill:#A8A8A8"
       d="m69.757 105.12c2.751 0 46.764-0.147 46.764 0.893 0 1.349-93.542 1.349-93.542 0 0.001-1.04 44.029-0.89 46.779-0.89" />
    <path
       id="path64"
       style="fill:#A8A8A8"
       d="m54.445 119.88c1.878 0 31.462-0.157 31.462 0.887 0 1.339-62.929 1.339-62.929 0 0.001-1.05 29.589-0.89 31.467-0.89" />
    <path
       id="path66"
       style="fill:#DBDBDB"
       d="m84.456 134.42c12.902 1.284 25.941-5.427 34.564-14.604 4.806-5.104 7.468-11.811 11.233-17.631 3.541-5.47 2.462 4.834 2.457 6.959-0.014 6.11 2.796 21.35-4.888 23.437-13.69 3.71-29.416 2.42-43.364 1.83" />
    <path
       id="path68"
       style="fill:#DBDBDB"
       d="m121.75 103.94c-1.747 0.381-3.556 0.47-5.339 0.432-0.15 1.75 4.26 0.02 5.34-0.43m9.06-28.231c-0.383 2.895-1.247 5.736-2.421 8.404-2.239 5.088 0.164 10.342-1.153 15.583 4.95-6.498 4.87-16.278 3.57-23.987" />
    <path
       id="path70"
       style="fill:#D2D2D2"
       d="m127.22 86.499c-1.667 3.082-3.865 5.877-6.536 8.152-2.29 1.947-3.9 1.755-4.021 4.945-0.059 1.593-0.124 3.188-0.253 4.779 3.857 0.084 6.958-0.563 9.716-3.394 2.87-2.954 1.15-10.62 1.09-14.491" />
    <path
       id="path72"
       style="fill:#DBDBDB"
       d="m100.27 105.14c-0.692 0.38 0.04 0.3 0 0" />
    <path
       id="path74"
       style="fill:#D2D2D2"
       d="m100.03 101.53c-2.859 0-4.989 1.119-6.345 3.719 1.644 0.018 5.158 0.68 6.589-0.107 0-0.98-0.19-2.5-0.24-3.61" />
    <path
       id="path76"
       style="fill:#DBDBDB"
       d="m115.79 104.36c0.03 0.53 0.08 1.53 0 0" />
    <path
       id="path78"
       style="fill:#D2D2D2"
       d="m115.79 103.99c0.02 0.56 0.03 0.41 0 0" />
    <path
       id="path80"
       style="fill:#DBDBDB"
       d="m96.578 112.86c-1.091 3.577-2.999 6.892-5.329 9.801-2.885 3.602-2.947 8.68-6.793 11.764 9.141-2.64 12.345-13.03 12.122-21.56m1.935-6.14c-0.138 0-0.633 0.47 0 0m5.017-1.58c-0.558-0.009-2.77-0.278-2.833 0.21 0.95 0.07 1.89 0 2.83-0.21m12.26 0h-3.607c1.2 0.03 2.4 0.03 3.61 0" />
    <path
       id="path82"
       style="fill:#D2D2D2"
       d="m98.399 106.72c-5.759 0.084-5.936 0.547-6.89 6.181-0.662 3.91-1.061 7.867-1.964 11.735 2.825-3.049 5.176-6.604 6.609-10.518 0.996-2.72 0.368-4.88 2.245-7.4" />
    <linearGradient
       id="XMLID_9_"
       y2="463.7"
       gradientUnits="userSpaceOnUse"
       y1="463.7"
       gradientTransform="matrix(181.33 0 0 -181.33 45159 84189)"
       x2="-246.86"
       x1="-248.6">
      <stop
         id="stop85"
         style="stop-color:#DBDBDB"
         offset="0" />
      <stop
         id="stop87"
         style="stop-color:#636363"
         offset="1" />
    </linearGradient>
    <path
       id="path89"
       style="fill:url(#XMLID_9_)"
       d="m107.73 103.75c-0.907 0-6.854 0.007-7.012 1.389 5.007 0.129 10.049 0 15.064 0v-0.779c-2.7-0.11-5.33-0.61-8.05-0.61" />
    <linearGradient
       id="XMLID_10_"
       y2="463.71"
       gradientUnits="userSpaceOnUse"
       y1="463.71"
       gradientTransform="matrix(181.33 0 0 -181.33 45159 84189)"
       x2="-246.85"
       x1="-248.6">
      <stop
         id="stop92"
         style="stop-color:#D2D2D2"
         offset="0" />
      <stop
         id="stop94"
         style="stop-color:#5E5E5E"
         offset="1" />
    </linearGradient>
    <path
       id="path96"
       style="fill:url(#XMLID_10_)"
       d="m100.18 104.2c0.013 0.284 0.014 0.777 0.087 0.937-0.03-0.32-0.06-0.63-0.09-0.94m15.33-6.1c-2.376 1.212-4.921 2.071-7.527 2.62-4.469 0.941-6.752-0.731-7.237 4.179 4.74-2.174 10.092-0.74 15.039-0.543-0.09-2.09-0.2-4.17-0.27-6.26" />
    <path
       id="path98"
       style="fill:#909090"
       d="m100.97 101.51c-0.314 0.008-0.629 0.012-0.942 0.017 0.059 1.271 0.13 2.543 0.268 3.812 1.02 0.02 0.64-3.22 0.67-3.83" />
    <path
       id="path100"
       style="fill:#909090"
       d="m116.74 97.434c-2.181 1.259-1.13 5.245-0.851 7.697 1.11-0.04 0.82-6.684 0.85-7.696" />
    <path
       id="path102"
       style="fill:#909090"
       d="m93.681 105.25c-0.227 0.513-0.452 1.024-0.679 1.537 3.722-0.038 5.49-0.772 8.853-1.418-2.73-0.05-5.454-0.09-8.179-0.12" />
    <path
       id="path104"
       style="fill:#D0D0D0"
       d="m92.562 134.12c-1.094 0.04-2.186 0.068-3.281 0.085 1.101 0.18 2.195 0.15 3.281-0.08m39.328-39.097c-0.922 0-4.599 10.449-5.088 11.39-4.499 8.646-10.984 16.568-18.905 22.299 8.118-4.695 13.596-11.317 18.182-19.327 1.621-2.83 3.029-6.117 5.184-8.597 0.52-0.58 1.96-5.757 0.63-5.757" />
    <path
       id="path106"
       style="fill:#BFBFBF"
       d="m132.1 100.19c-3.054 0.001-9.985 15.934-12.038 18.438-7.371 8.999-17.637 14.432-28.987 15.686 6.483 0.374 13.432 1.458 19.42-1.321 5.933-2.755 12.438-6.721 15.271-12.908 1.57-3.429 0.854-10.875 4.877-12.76 1.86-0.88 2.51-7.14 1.46-7.14" />
    <path
       id="path108"
       style="fill:#FFFFFF"
       d="m99.575 107.16c0 3.575 21.302 3.201 20.692-1.476-0.26-1.96-20.695-1.25-20.695 1.48" />
  </g>
  <metadata
     id="metadata1">
    <rdf:RDF>
      <cc:Work>
        <dc:format>image/svg+xml</dc:format>
        <dc:type
           rdf:resource="http://purl.org/dc/dcmitype/StillImage" />
        <cc:license
           rdf:resource="http://creativecommons.org/licenses/publicdomain/" />
        <dc:publisher>
          <cc:Agent
             rdf:about="http://openclipart.org/">
            <dc:title>Openclipart</dc:title>
          </cc:Agent>
        </dc:publisher>
        <dc:title>Architetto -- tabella</dc:title>
        <dc:date>2010-03-28T09:18:35</dc:date>
        <dc:description>Drawing by Francesco 'Architetto' Rollandin. From OCAL 0.18 release.</dc:description>
        <dc:source>https://openclipart.org/detail/34669/architetto----tabella-by-anonymous</dc:source>
        <dc:creator>
          <cc:Agent>
            <dc:title>Anonymous</dc:title>
          </cc:Agent>
        </dc:creator>
        <dc:subject>
          <rdf:Bag>
            <rdf:li>application</rdf:li>
            <rdf:li>calendar</rdf:li>
            <rdf:li>icon</rdf:li>
            <rdf:li>spreadsheet</rdf:li>
            <rdf:li>window</rdf:li>
          </rdf:Bag>
        </dc:subject>
      </cc:Work>
      <cc:License
         rdf:about="http://creativecommons.org/licenses/publicdomain/">
        <cc:permits
           rdf:resource="http://creativecommons.org/ns#Reproduction" />
        <cc:permits
           rdf:resource="http://creativecommons.org/ns#Distribution" />
        <cc:permits
           rdf:resource="http://creativecommons.org/ns#DerivativeWorks" />
      </cc:License>
    </rdf:RDF>
  </metadata>
  <text
     xml:space="preserve"
     style="font-size:16px;line-height:1.25;font-family:ABeeZee;-inkscape-font-specification:ABeeZee;text-align:center;text-decoration:none;text-decoration-line:none;text-decoration-color:#000000;letter-spacing:0px;word-spacing:0px;text-anchor:middle;fill:#000000;stroke:#000000;stroke-width:0;stroke-linecap:butt;stroke-linejoin:miter;stroke-opacity:1;stop-color:#000000"
     x="-36.888115"
     y="-50.195183"
     id="text1"><tspan
       sodipodi:role="line"
       id="tspan1"
       x="-36.888115"
       y="-50.195183"
       style="font-size:16px">https://openclipart.org/detail/34669/architetto-tabella</tspan></text>
</svg>
